<svg width="18" height="18" viewBox="0 0 18 18" fill="none" xmlns="http://www.w3.org/2000/svg">
<g clip-path="url(#clip0_21139_21540)">
<path d="M13.6468 6.73538C13.6468 6.93613 13.5165 7.1112 13.3325 7.19144C12.554 7.53086 12.0183 8.11219 11.7732 8.96388C11.4638 10.0379 11.8634 11.1421 12.7893 11.8349C13.6297 12.4644 14.8806 12.4953 15.7831 11.9099C16.7145 11.306 17.1631 10.2119 16.9462 9.12781C16.7549 8.17208 16.1641 7.55271 15.2973 7.17923C15.0679 7.08025 14.9933 6.97818 14.9948 6.73538C15.0057 5.11157 14.9972 3.48853 15.0034 1.86471C15.005 1.50592 14.9552 1.19663 14.5673 1.04894C14.1747 0.8997 13.9251 1.11544 13.6966 1.37757C12.5258 2.71837 11.3558 4.05996 10.1912 5.40618C10.0287 5.59407 9.86856 5.67449 9.59802 5.66908C8.32928 5.64356 7.05898 5.65207 5.78946 5.65825C5.2546 5.66057 5.00894 5.90879 5.00194 6.4431C4.99339 7.13902 4.99805 7.83494 4.99728 8.53086C4.99728 8.66927 4.99728 8.80768 4.99728 8.97702C4.71274 8.99017 4.47019 8.99558 4.22919 9.01337C3.15791 9.09378 2.38904 9.8678 2.33074 10.9457C2.30664 11.3957 2.33774 11.8481 2.31364 12.2981C2.30664 12.4265 2.22579 12.5958 2.12317 12.667C1.14596 13.3466 0.779016 14.3449 1.13119 15.4274C1.45537 16.4242 2.35484 17.0025 3.50231 16.9979C5.87265 16.9878 8.24299 16.9925 10.6133 17.0002C11.7452 17.0041 12.8119 16.1543 12.9705 15.0996C13.1578 13.857 12.4566 12.7304 11.2804 12.4211C10.9974 12.3468 10.6926 12.3515 10.3459 12.3151C10.3412 12.2169 10.3303 12.094 10.3303 11.9718C10.3296 10.5026 10.3257 9.03347 10.3358 7.56508C10.3366 7.41043 10.3747 7.21944 10.4695 7.10809C11.4623 5.95363 12.4698 4.81155 13.475 3.66792C13.5146 3.62307 13.566 3.58828 13.6468 3.51791L13.6468 6.73538ZM8.98853 12.3113H3.65623C3.65623 11.9239 3.6539 11.5659 3.65623 11.2086C3.6609 10.5784 3.89568 10.3433 4.52383 10.3433C5.90918 10.3418 7.29454 10.3433 8.6799 10.3441C8.77863 10.3441 8.87736 10.3588 8.98853 10.3681V12.3113ZM5.57956 15.6641V13.6938H8.42024V15.6641H5.57956ZM14.3877 10.9867C13.6227 10.9991 13.0365 10.4555 13.014 9.71238C12.9914 8.96852 13.5574 8.36539 14.2967 8.34451C15.0322 8.32363 15.6541 8.89893 15.6774 9.62191C15.7007 10.3495 15.1099 10.9751 14.3877 10.9867ZM8.9862 8.97161H6.37019V7.03231H8.9862V8.97161ZM3.32661 13.676C3.8638 13.676 4.32714 14.1207 4.3357 14.6465C4.34425 15.18 3.86147 15.6749 3.33438 15.6741C2.81429 15.6733 2.33385 15.2071 2.32374 14.6952C2.31286 14.1539 2.78242 13.6768 3.32661 13.676ZM11.659 14.6774C11.6504 15.2411 11.1933 15.6896 10.6452 15.6733C10.1127 15.6571 9.67499 15.1993 9.68121 14.665C9.68743 14.0936 10.129 13.666 10.6973 13.6799C11.2407 13.693 11.6675 14.1346 11.659 14.6774Z" fill="#102938" stroke="white" style="fill:#102938;fill:color(display-p3 0.0620 0.1626 0.2183);fill-opacity:1;stroke:white;stroke-opacity:1;" stroke-width="0.3"/>
</g>
<rect width="16" height="16" transform="matrix(-1 0 0 1 17 1)" stroke="white" style="stroke:white;stroke-opacity:1;" stroke-width="0.0777416"/>
<defs>
<clipPath id="clip0_21139_21540">
<rect width="16" height="16" transform="matrix(-1 0 0 1 17 1)" fill="white" style="fill:white;fill-opacity:1;"/>
</clipPath>
</defs>
</svg>
