<svg width="16" height="16" viewBox="0 0 16 16" fill="none" xmlns="http://www.w3.org/2000/svg">
<g clip-path="url(#clip0_23101_13158)">
<path fill-rule="evenodd" clip-rule="evenodd" d="M3.0004 1.64364e-07C3.1495 0.000120923 3.29077 0.0667764 3.38566 0.181781C3.48911 0.30716 3.59256 0.43016 3.69401 0.550793C3.98997 0.90271 4.26899 1.23448 4.48185 1.54637C4.77772 1.9799 5 2.4476 5 3.00345C5 3.27959 4.77614 3.50345 4.5 3.50345C4.22385 3.50345 4 3.27959 4 3.00345C4 2.73277 3.89742 2.464 3.65587 2.11007C3.48226 1.85569 3.26423 1.59409 2.99953 1.27914C2.73443 1.59404 2.51637 1.85581 2.34324 2.10982C2.10229 2.46334 2 2.73228 2 3.00345C2 3.55274 2.44663 4 3 4C3.27614 4 3.5 4.22386 3.5 4.5C3.5 4.77614 3.27614 5 3 5C1.89651 5 0.999999 4.1072 0.999999 3.00345C0.999999 2.44809 1.22115 1.98056 1.51692 1.54662C1.73217 1.23082 2.01485 0.895349 2.3152 0.538898C2.41377 0.421925 2.51424 0.302694 2.61485 0.181157C2.70993 0.0663059 2.8513 -0.000120595 3.0004 1.64364e-07ZM8.0004 1.64364e-07C8.1495 0.000120923 8.29077 0.0667764 8.38566 0.181781C8.48911 0.307163 8.59256 0.430166 8.69401 0.550802C8.98997 0.902715 9.26899 1.23448 9.48184 1.54637C9.77772 1.9799 9.99999 2.4476 9.99999 3.00345C9.99999 3.27959 9.77614 3.50345 9.49999 3.50345C9.22385 3.50345 8.99999 3.27959 8.99999 3.00345C8.99999 2.73277 8.89742 2.464 8.65587 2.11007C8.48226 1.85569 8.26423 1.59409 7.99952 1.27914C7.73443 1.59404 7.51637 1.85581 7.34324 2.10982C7.10229 2.46334 6.99999 2.73228 6.99999 3.00345C6.99999 3.55274 7.44663 4 7.99999 4C8.27614 4 8.49999 4.22386 8.49999 4.5C8.49999 4.77614 8.27614 5 7.99999 5C6.89651 5 6 4.1072 6 3.00345C6 2.44809 6.22115 1.98056 6.51692 1.54662C6.73216 1.23082 7.01484 0.895347 7.3152 0.538895C7.41377 0.421923 7.51423 0.302693 7.61485 0.181157C7.70992 0.0663059 7.8513 -0.000120595 8.0004 1.64364e-07ZM13.0004 1.64364e-07C13.1495 0.000120923 13.2908 0.0667764 13.3857 0.181781C13.4891 0.307162 13.5926 0.430163 13.694 0.550798C13.99 0.902712 14.269 1.23448 14.4818 1.54637C14.7777 1.9799 15 2.4476 15 3.00345C15 3.27959 14.7761 3.50345 14.5 3.50345C14.2238 3.50345 14 3.27959 14 3.00345C14 2.73277 13.8974 2.464 13.6559 2.11007C13.4823 1.85569 13.2642 1.59409 12.9995 1.27914C12.7344 1.59404 12.5164 1.85581 12.3432 2.10982C12.1023 2.46334 12 2.73228 12 3.00345C12 3.55274 12.4466 4 13 4C13.2761 4 13.5 4.22386 13.5 4.5C13.5 4.77614 13.2761 5 13 5C11.8965 5 11 4.1072 11 3.00345C11 2.44809 11.2211 1.98056 11.5169 1.54662C11.7322 1.23082 12.0148 0.895347 12.3152 0.538895C12.4138 0.421923 12.5142 0.302693 12.6148 0.181157C12.7099 0.0663059 12.8513 -0.000120595 13.0004 1.64364e-07ZM0 8.5C0 7.11929 1.11929 6 2.5 6H13.5C14.8807 6 16 7.11929 16 8.5V10.5C16 11.8807 14.8807 13 13.5 13H11V15H14C14.2761 15 14.5 15.2239 14.5 15.5C14.5 15.7761 14.2761 16 14 16H2.5C1.11929 16 0 14.8807 0 13.5V8.5ZM0.999999 10V12H5V10H0.999999ZM5 9H0.999999V8.5C0.999999 7.67157 1.67157 7 2.5 7H5V9ZM6 10V12H9.99999V10H6ZM9.99999 9H6V7H9.99999V9ZM11 10V12H13.5C14.3284 12 15 11.3284 15 10.5V10H11ZM15 9H11V7H13.5C14.3284 7 15 7.67157 15 8.5V9ZM9.99999 13H6V15H9.99999V13ZM5 15V13H0.999999V13.5C0.999999 14.3284 1.67157 15 2.5 15H5Z" fill="#102938" style="fill:#102938;fill:color(display-p3 0.0620 0.1626 0.2183);fill-opacity:1;"/>
</g>
<defs>
<clipPath id="clip0_23101_13158">
<rect width="16" height="16" fill="white" style="fill:white;fill-opacity:1;"/>
</clipPath>
</defs>
</svg>
