<svg width="16" height="16" viewBox="0 0 16 16" fill="none" xmlns="http://www.w3.org/2000/svg">
<path fill-rule="evenodd" clip-rule="evenodd" d="M1.71429 16H14.2857C14.6011 16 14.8571 15.744 14.8571 15.4286C14.8571 15.1131 14.6011 14.8571 14.2857 14.8571H1.71429C1.39886 14.8571 1.14286 15.1131 1.14286 15.4286C1.14286 15.744 1.39886 16 1.71429 16Z" fill="#102938" style="fill:#102938;fill:color(display-p3 0.0620 0.1626 0.2183);fill-opacity:1;"/>
<path fill-rule="evenodd" clip-rule="evenodd" d="M1.73314 5.44343C1.47943 4.92 1.33314 4.31657 1.33314 3.67371C1.33314 1.624 2.80971 0 4.57143 0C6.05371 0 7.32914 1.13886 7.70114 2.72686C7.77314 3.03371 7.58228 3.34171 7.27486 3.41371C6.968 3.48571 6.66 3.29429 6.588 2.98743C6.34343 1.94171 5.54743 1.14286 4.57143 1.14286C3.38914 1.14286 2.476 2.29829 2.476 3.67371C2.476 4.30229 2.66686 4.88 2.98857 5.328C3.08857 5.46629 3.12057 5.64172 3.07771 5.80629C3.03429 5.97143 2.91943 6.108 2.76514 6.18C1.81257 6.62114 1.14286 7.40457 1.14286 8.32629C1.14286 9.768 2.71314 10.8571 4.57143 10.8571C5.11371 10.8571 5.628 10.7629 6.088 10.5937C6.384 10.4846 6.71257 10.636 6.82171 10.932C6.93086 11.228 6.77943 11.5566 6.48343 11.6657C5.904 11.8794 5.25543 12 4.57143 12C2.01371 12 0 10.3103 0 8.32629C0 7.17143 0.664571 6.12286 1.73314 5.44343Z" fill="#102938" style="fill:#102938;fill:color(display-p3 0.0620 0.1626 0.2183);fill-opacity:1;"/>
<path fill-rule="evenodd" clip-rule="evenodd" d="M8.59029 5.44343C8.33657 4.92 8.19029 4.31657 8.19029 3.67371C8.19029 1.624 9.66686 0 11.4286 0C13.1903 0 14.6669 1.624 14.6669 3.67371C14.6669 4.31657 14.5206 4.92 14.2669 5.44343C15.3354 6.12286 16 7.17143 16 8.32629C16 10.3103 13.9863 12 11.4286 12C8.87086 12 6.85714 10.3103 6.85714 8.32629C6.85714 7.17143 7.52171 6.12286 8.59029 5.44343ZM9.62229 6.18C9.77657 6.108 9.89143 5.97143 9.93486 5.80629C9.97771 5.64172 9.94571 5.46629 9.84571 5.328C9.524 4.88 9.33314 4.30229 9.33314 3.67371C9.33314 2.29829 10.2463 1.14286 11.4286 1.14286C12.6109 1.14286 13.524 2.29829 13.524 3.67371C13.524 4.30229 13.3331 4.88 13.0114 5.328C12.9114 5.46629 12.8794 5.64172 12.9223 5.80629C12.9657 5.97143 13.0806 6.108 13.2349 6.18C14.1874 6.62114 14.8571 7.40457 14.8571 8.32629C14.8571 9.768 13.2869 10.8571 11.4286 10.8571C9.57029 10.8571 8 9.768 8 8.32629C8 7.40457 8.66971 6.62114 9.62229 6.18Z" fill="#102938" style="fill:#102938;fill:color(display-p3 0.0620 0.1626 0.2183);fill-opacity:1;"/>
<path fill-rule="evenodd" clip-rule="evenodd" d="M4 9.14286V15.4286C4 15.744 4.256 16 4.57143 16C4.88686 16 5.14286 15.744 5.14286 15.4286V9.14286C5.14286 8.82743 4.88686 8.57143 4.57143 8.57143C4.256 8.57143 4 8.82743 4 9.14286Z" fill="#102938" style="fill:#102938;fill:color(display-p3 0.0620 0.1626 0.2183);fill-opacity:1;"/>
<path fill-rule="evenodd" clip-rule="evenodd" d="M10.8571 9.14286V15.4286C10.8571 15.744 11.1131 16 11.4286 16C11.744 16 12 15.744 12 15.4286V9.14286C12 8.82743 11.744 8.57143 11.4286 8.57143C11.1131 8.57143 10.8571 8.82743 10.8571 9.14286Z" fill="#102938" style="fill:#102938;fill:color(display-p3 0.0620 0.1626 0.2183);fill-opacity:1;"/>
<path fill-rule="evenodd" clip-rule="evenodd" d="M4.97542 9.54685L6.11828 8.40399C6.34114 8.18114 6.34114 7.81885 6.11828 7.59599C5.89542 7.37314 5.53314 7.37314 5.31028 7.59599L4.16742 8.73885C3.94456 8.96171 3.94456 9.32399 4.16742 9.54685C4.39028 9.76971 4.75256 9.76971 4.97542 9.54685Z" fill="#102938" style="fill:#102938;fill:color(display-p3 0.0620 0.1626 0.2183);fill-opacity:1;"/>
<path fill-rule="evenodd" clip-rule="evenodd" d="M11.8326 9.54685L12.9754 8.40399C13.1983 8.18114 13.1983 7.81885 12.9754 7.59599C12.7526 7.37314 12.3903 7.37314 12.1674 7.59599L11.0246 8.73885C10.8017 8.96171 10.8017 9.32399 11.0246 9.54685C11.2474 9.76971 11.6097 9.76971 11.8326 9.54685Z" fill="#102938" style="fill:#102938;fill:color(display-p3 0.0620 0.1626 0.2183);fill-opacity:1;"/>
<path fill-rule="evenodd" clip-rule="evenodd" d="M3.02456 8.40399L4.16742 9.54685C4.39028 9.76971 4.75256 9.76971 4.97542 9.54685C5.19828 9.32399 5.19828 8.96171 4.97542 8.73885L3.83256 7.59599C3.60971 7.37314 3.24742 7.37314 3.02456 7.59599C2.80171 7.81885 2.80171 8.18114 3.02456 8.40399Z" fill="#102938" style="fill:#102938;fill:color(display-p3 0.0620 0.1626 0.2183);fill-opacity:1;"/>
<path fill-rule="evenodd" clip-rule="evenodd" d="M9.88171 8.40399L11.0246 9.54685C11.2474 9.76971 11.6097 9.76971 11.8326 9.54685C12.0554 9.32399 12.0554 8.96171 11.8326 8.73885L10.6897 7.59599C10.4669 7.37314 10.1046 7.37314 9.88171 7.59599C9.65885 7.81885 9.65885 8.18114 9.88171 8.40399Z" fill="#102938" style="fill:#102938;fill:color(display-p3 0.0620 0.1626 0.2183);fill-opacity:1;"/>
</svg>
