<svg width="33" height="32" viewBox="0 0 33 32" fill="none" xmlns="http://www.w3.org/2000/svg">
<g clip-path="url(#clip0_22291_40727)">
<path d="M2.70474 19.5827C3.47408 18.5831 4.22088 17.6029 4.97734 16.6292C6.65283 14.4699 9.21837 14.4634 10.9003 16.6292C12.2684 18.3922 13.6075 20.1795 14.9594 21.9539C15.1204 22.1658 15.2878 22.3712 15.6596 22.8435C15.8849 22.4893 16.0217 22.1383 16.2696 21.9038C18.0062 20.2475 20.34 20.4448 21.8046 22.3453C22.3937 23.1088 22.9844 23.8706 23.707 24.8039C23.736 24.3623 23.7666 24.1148 23.7666 23.8674C23.7698 21.6304 23.765 19.3918 23.7747 17.1549C23.7747 16.8362 23.7392 16.4335 23.9082 16.2184C24.14 15.924 24.5472 15.6086 24.8836 15.6053C25.1765 15.6021 25.5419 15.9709 25.7447 16.2653C25.8895 16.4755 25.8396 16.8379 25.8396 17.1306C25.8445 21.0659 25.8461 25.0012 25.8412 28.9365C25.838 30.9988 24.8289 31.9951 22.7607 31.9935C16.4032 31.9935 10.0456 32.0097 3.68975 31.966C2.95421 31.9612 2.14785 31.7396 1.50244 31.3837C0.700914 30.9438 0.470756 30.0639 0.470756 29.1484C0.470756 22.4909 0.454661 15.8318 0.475584 9.17428C0.482022 7.34978 1.55234 6.34695 3.3598 6.34533C7.51713 6.34209 11.6745 6.34856 15.8334 6.33886C16.4128 6.33886 16.9182 6.42944 17.1419 7.03761C17.4204 7.79135 16.8506 8.43672 15.8962 8.43833C12.8381 8.44642 9.78008 8.44157 6.72204 8.44157C5.59539 8.44157 4.46874 8.45613 3.3421 8.4351C2.80452 8.4254 2.52769 8.64052 2.5293 9.18237C2.53574 12.6049 2.54379 16.0275 2.55505 19.4501C2.55505 19.4662 2.59207 19.484 2.70474 19.5795V19.5827ZM13.1488 29.9086C16.2599 29.9086 19.3695 29.9216 22.4806 29.8924C22.8926 29.8892 23.6057 29.7291 23.6507 29.5237C23.7586 29.0271 23.7248 28.3429 23.4463 27.9466C22.3824 26.4294 21.2156 24.9834 20.0567 23.5358C19.4 22.7141 18.5245 22.6704 17.7455 23.3837C17.3093 23.7816 16.9069 24.2184 16.4852 24.6324C15.5694 25.5317 15.048 25.4929 14.2641 24.4691C12.6305 22.334 11.0033 20.1941 9.36161 18.0655C8.38143 16.7958 7.47689 16.7909 6.50637 18.0477C5.2912 19.6215 4.07764 21.2002 2.9027 22.8047C2.68542 23.1007 2.55183 23.5293 2.54379 23.8997C2.50516 25.5156 2.52608 27.133 2.52769 28.7505C2.5293 29.8294 2.60334 29.907 3.65595 29.9086C6.82022 29.9118 9.98449 29.9086 13.1488 29.9102V29.9086Z" fill="#102938" style="fill:#102938;fill:color(display-p3 0.0620 0.1626 0.2183);fill-opacity:1;"/>
<path d="M25.8606 0C26.6444 0.00323494 26.7892 0.590376 26.9502 1.17752C27.4926 3.16862 28.7013 4.59361 30.5796 5.42984C30.8951 5.57056 31.2363 5.65144 31.5694 5.75172C32.1038 5.91347 32.5834 6.23211 32.4418 6.8144C32.3484 7.20259 31.9622 7.70562 31.6048 7.81076C29.086 8.54832 27.5296 10.1674 26.8713 12.702C26.7329 13.2341 26.4432 13.6353 25.8187 13.6256C25.1991 13.6159 24.9335 13.2228 24.7935 12.6777C24.1529 10.1739 22.6206 8.537 20.1163 7.8609C19.5674 7.71209 19.2005 7.40639 19.2021 6.79984C19.2021 6.1852 19.5996 5.89082 20.134 5.74687C22.6094 5.07723 24.1271 3.46624 24.7774 0.996361C24.9254 0.435099 25.2023 0.00646987 25.8589 0H25.8606ZM25.8429 4.61787C25.1604 5.25677 24.235 6.12374 23.5509 6.76425C24.2913 7.51152 25.1974 8.42701 25.7881 9.02386C26.506 8.35584 27.4379 7.49211 28.1428 6.83542C27.3976 6.11727 26.485 5.23736 25.8412 4.61626L25.8429 4.61787Z" fill="#102938" style="fill:#102938;fill:color(display-p3 0.0620 0.1626 0.2183);fill-opacity:1;"/>
<path d="M2.70474 19.5827C3.47408 18.5831 4.22088 17.6029 4.97734 16.6292C6.65283 14.4699 9.21837 14.4634 10.9003 16.6292C12.2684 18.3922 13.6075 20.1795 14.9594 21.9539C15.1204 22.1658 15.2878 22.3712 15.6596 22.8435C15.8849 22.4893 16.0217 22.1383 16.2696 21.9038C18.0062 20.2475 20.34 20.4448 21.8046 22.3453C22.3937 23.1088 22.9844 23.8706 23.707 24.8039C23.736 24.3623 23.7666 24.1148 23.7666 23.8674C23.7698 21.6304 23.765 19.3918 23.7747 17.1549C23.7747 16.8362 23.7392 16.4335 23.9082 16.2184C24.14 15.924 24.5472 15.6086 24.8836 15.6053C25.1765 15.6021 25.5419 15.9709 25.7447 16.2653C25.8895 16.4755 25.8396 16.8379 25.8396 17.1306C25.8445 21.0659 25.8461 25.0012 25.8412 28.9365C25.838 30.9988 24.8289 31.9951 22.7607 31.9935C16.4032 31.9935 10.0456 32.0097 3.68975 31.966C2.95421 31.9612 2.14785 31.7396 1.50244 31.3837C0.700914 30.9438 0.470756 30.0639 0.470756 29.1484C0.470756 22.4909 0.454661 15.8318 0.475584 9.17428C0.482022 7.34978 1.55234 6.34695 3.3598 6.34533C7.51713 6.34209 11.6745 6.34856 15.8334 6.33886C16.4128 6.33886 16.9182 6.42944 17.1419 7.03761C17.4204 7.79135 16.8506 8.43672 15.8962 8.43833C12.8381 8.44642 9.78008 8.44157 6.72204 8.44157C5.59539 8.44157 4.46874 8.45613 3.3421 8.4351C2.80452 8.4254 2.52769 8.64052 2.5293 9.18237C2.53574 12.6049 2.54379 16.0275 2.55505 19.4501C2.55505 19.4662 2.59207 19.484 2.70474 19.5795V19.5827ZM13.1488 29.9086C16.2599 29.9086 19.3695 29.9216 22.4806 29.8924C22.8926 29.8892 23.6057 29.7291 23.6507 29.5237C23.7586 29.0271 23.7248 28.3429 23.4463 27.9466C22.3824 26.4294 21.2156 24.9834 20.0567 23.5358C19.4 22.7141 18.5245 22.6704 17.7455 23.3837C17.3093 23.7816 16.9069 24.2184 16.4852 24.6324C15.5694 25.5317 15.048 25.4929 14.2641 24.4691C12.6305 22.334 11.0033 20.1941 9.36161 18.0655C8.38143 16.7958 7.47689 16.7909 6.50637 18.0477C5.2912 19.6215 4.07764 21.2002 2.9027 22.8047C2.68542 23.1007 2.55183 23.5293 2.54379 23.8997C2.50516 25.5156 2.52608 27.133 2.52769 28.7505C2.5293 29.8294 2.60334 29.907 3.65595 29.9086C6.82022 29.9118 9.98449 29.9086 13.1488 29.9102V29.9086Z" stroke="white" style="stroke:white;stroke-opacity:1;" stroke-width="0.1"/>
<path d="M25.8606 0C26.6444 0.00323494 26.7892 0.590376 26.9502 1.17752C27.4926 3.16862 28.7013 4.59361 30.5796 5.42984C30.8951 5.57056 31.2363 5.65144 31.5694 5.75172C32.1038 5.91347 32.5834 6.23211 32.4418 6.8144C32.3484 7.20259 31.9622 7.70562 31.6048 7.81076C29.086 8.54832 27.5296 10.1674 26.8713 12.702C26.7329 13.2341 26.4432 13.6353 25.8187 13.6256C25.1991 13.6159 24.9335 13.2228 24.7935 12.6777C24.1529 10.1739 22.6206 8.537 20.1163 7.8609C19.5674 7.71209 19.2005 7.40639 19.2021 6.79984C19.2021 6.1852 19.5996 5.89082 20.134 5.74687C22.6094 5.07723 24.1271 3.46624 24.7774 0.996361C24.9254 0.435099 25.2023 0.00646987 25.8589 0H25.8606ZM25.8429 4.61787C25.1604 5.25677 24.235 6.12374 23.5509 6.76425C24.2913 7.51152 25.1974 8.42701 25.7881 9.02386C26.506 8.35584 27.4379 7.49211 28.1428 6.83542C27.3976 6.11727 26.485 5.23736 25.8412 4.61626L25.8429 4.61787Z" stroke="white" style="stroke:white;stroke-opacity:1;" stroke-width="0.1"/>
</g>
<defs>
<clipPath id="clip0_22291_40727">
<rect width="32" height="32" fill="white" style="fill:white;fill-opacity:1;" transform="translate(0.464844)"/>
</clipPath>
</defs>
</svg>
