<svg width="24" height="24" viewBox="0 0 24 24" fill="none" xmlns="http://www.w3.org/2000/svg">
<g clip-path="url(#clip0_21333_1437)">
<path d="M8.92194 18.66C8.92194 19.1545 8.92432 19.584 8.92194 20.0134C8.91481 21.0379 8.6569 21.2911 7.61222 21.2958C7.17842 21.2982 6.74462 21.2958 6.2205 21.2958C6.2205 21.8566 6.23 22.3806 6.21812 22.9047C6.20029 23.6725 5.89485 23.9848 5.13303 23.9919C4.06338 24.0026 2.99374 24.0061 1.92529 23.9895C0.762943 23.9718 0.0355862 23.2525 0.0130049 22.1003C-0.00482249 21.1941 0.0260783 20.2867 0.00111996 19.3805C-0.0190844 18.6435 0.234064 18.0555 0.761755 17.535C2.61699 15.7025 4.44608 13.8451 6.30012 12.0126C6.56754 11.7488 6.6543 11.5276 6.55208 11.1455C5.15085 5.90229 8.60936 0.78335 14.0087 0.0759023C18.7947 -0.5511 23.2017 2.77438 23.9005 7.5396C24.7562 13.3743 19.9749 18.3359 14.0907 17.7124C13.7187 17.6734 13.336 17.6166 12.9901 17.4841C12.5278 17.3078 12.1986 17.4119 11.9169 17.787C11.3821 18.4979 10.6702 18.776 9.78716 18.6648C9.53401 18.6328 9.27373 18.66 8.92194 18.66ZM7.13563 19.5295C7.13563 18.8954 7.119 18.3465 7.14039 17.7988C7.16297 17.2179 7.45296 16.9352 8.02582 16.8997C8.24331 16.8855 8.46556 16.8677 8.6783 16.8997C9.80142 17.0653 10.7201 16.7731 11.3988 15.8137C11.6994 15.389 12.1344 15.3641 12.6229 15.5203C13.166 15.6942 13.7234 15.874 14.2868 15.9284C19.1073 16.3945 22.895 12.3462 22.0976 7.60703C21.5568 4.39867 18.7413 1.91314 15.4753 1.76171C10.4872 1.53102 6.77433 6.48671 8.4299 11.1798C8.65215 11.8103 8.54994 12.293 8.0579 12.7745C6.07075 14.7253 4.10974 16.7045 2.14397 18.6778C2.00848 18.8138 1.81119 18.9794 1.80644 19.1368C1.77554 20.1518 1.79099 21.168 1.79099 22.1783H4.46509C4.46509 21.6306 4.44964 21.1207 4.46866 20.612C4.49837 19.8442 4.79668 19.5568 5.57514 19.5331C6.06718 19.5177 6.56159 19.5307 7.13682 19.5307L7.13563 19.5295Z" fill="#102938" style="fill:#102938;fill:color(display-p3 0.0620 0.1626 0.2183);fill-opacity:1;"/>
<path d="M18.6687 6.6606C18.6663 7.35622 18.0352 7.99505 17.353 7.99268C16.615 7.99032 16.0255 7.37633 16.035 6.62038C16.0445 5.87389 16.6043 5.33206 17.359 5.33798C18.0745 5.34389 18.6723 5.94605 18.6687 6.6606Z" fill="#102938" style="fill:#102938;fill:color(display-p3 0.0620 0.1626 0.2183);fill-opacity:1;"/>
</g>
<defs>
<clipPath id="clip0_21333_1437">
<rect width="23.8912" height="24" fill="white" style="fill:white;fill-opacity:1;"/>
</clipPath>
</defs>
</svg>
