<svg width="33" height="33" viewBox="0 0 33 33" fill="none" xmlns="http://www.w3.org/2000/svg">
<path fill-rule="evenodd" clip-rule="evenodd" d="M24.8558 23.6276C25.3764 23.107 26.2207 23.107 26.7414 23.6276C27.2221 24.1083 27.2591 24.8646 26.8523 25.3876L26.7414 25.5132L24.7414 27.5132C23.1162 29.1386 20.4811 29.1384 18.8558 27.5132C18.3136 26.9711 17.4586 26.9324 16.8718 27.3971L16.7414 27.5132L16.0747 28.1799C15.554 28.7006 14.7098 28.7006 14.1891 28.1799C13.7085 27.6993 13.6715 26.943 14.0782 26.4199L14.1891 26.2943L14.8558 25.6276C16.4811 24.0023 19.1162 24.0023 20.7414 25.6276C21.2835 26.1698 22.1385 26.2085 22.7254 25.7438L22.8558 25.6276L24.8558 23.6276ZM22.4416 5.88158C23.7434 4.57983 25.8539 4.57983 27.1556 5.88158C28.4008 7.12673 28.4549 9.11189 27.3181 10.4214L27.1556 10.5956L11.7218 26.0295C11.529 26.2223 11.2995 26.373 11.0476 26.4733L10.8548 26.539L7.07124 27.6152C6.1134 27.8878 5.22498 27.058 5.38959 26.1095L5.4223 25.9664L6.49822 22.1827C6.57277 21.9204 6.69993 21.677 6.87117 21.4667L7.00774 21.3155L22.4416 5.88158ZM25.27 7.76721C25.0386 7.53577 24.6794 7.51006 24.4196 7.69006L24.3272 7.76721L9.01583 23.0786L8.64118 24.3962L9.95859 24.0215L25.27 8.71001C25.5304 8.44966 25.5304 8.02755 25.27 7.76721Z" fill="#102938" style="fill:#102938;fill:color(display-p3 0.0620 0.1626 0.2183);fill-opacity:1;"/>
<path fill-rule="evenodd" clip-rule="evenodd" d="M32.4648 0.570312V32.5703H0.464844V0.570312H32.4648ZM17.2562 31.5807L17.2407 31.583L17.146 31.6303L17.1207 31.6352L17.1004 31.6303L17.0058 31.583C16.9926 31.5788 16.9808 31.5823 16.9743 31.5902L16.9688 31.6047L16.946 32.1744L16.9527 32.2016L16.9674 32.2179L17.1055 32.3166L17.1252 32.3218L17.141 32.3166L17.2791 32.2179L17.2959 32.1966L17.3004 32.1744L17.2776 31.6047C17.275 31.5912 17.2662 31.5827 17.2562 31.5807ZM17.6094 31.4307L17.5908 31.4334L17.3446 31.5566L17.3314 31.5702L17.3278 31.5851L17.3516 32.1578L17.358 32.1748L17.3694 32.1843L17.6372 32.3079C17.6534 32.3128 17.6678 32.3076 17.6752 32.2972L17.6806 32.2786L17.6351 31.459C17.6319 31.4431 17.6214 31.433 17.6094 31.4307ZM16.6555 31.4334C16.6424 31.4268 16.6278 31.4307 16.619 31.4404L16.6114 31.459L16.5659 32.2786C16.565 32.2939 16.5752 32.3062 16.5883 32.3098L16.6092 32.3079L16.8771 32.1843L16.8896 32.1735L16.8948 32.1578L16.9187 31.5851L16.9144 31.5683L16.9019 31.5566L16.6555 31.4334Z" stroke="white" style="stroke:white;stroke-opacity:1;" stroke-width="0.5"/>
<path fill-rule="evenodd" clip-rule="evenodd" d="M24.8558 23.6276C25.3764 23.107 26.2207 23.107 26.7414 23.6276C27.2221 24.1083 27.2591 24.8646 26.8523 25.3876L26.7414 25.5132L24.7414 27.5132C23.1162 29.1386 20.4811 29.1384 18.8558 27.5132C18.3136 26.9711 17.4586 26.9324 16.8718 27.3971L16.7414 27.5132L16.0747 28.1799C15.554 28.7006 14.7098 28.7006 14.1891 28.1799C13.7085 27.6993 13.6715 26.943 14.0782 26.4199L14.1891 26.2943L14.8558 25.6276C16.4811 24.0023 19.1162 24.0023 20.7414 25.6276C21.2835 26.1698 22.1385 26.2085 22.7254 25.7438L22.8558 25.6276L24.8558 23.6276ZM22.4416 5.88158C23.7434 4.57983 25.8539 4.57983 27.1556 5.88158C28.4008 7.12673 28.4549 9.11189 27.3181 10.4214L27.1556 10.5956L11.7218 26.0295C11.529 26.2223 11.2995 26.373 11.0476 26.4733L10.8548 26.539L7.07124 27.6152C6.1134 27.8878 5.22498 27.058 5.38959 26.1095L5.4223 25.9664L6.49822 22.1827C6.57277 21.9204 6.69993 21.677 6.87117 21.4667L7.00774 21.3155L22.4416 5.88158ZM25.27 7.76721C25.0386 7.53577 24.6794 7.51006 24.4196 7.69006L24.3272 7.76721L9.01583 23.0786L8.64118 24.3962L9.95859 24.0215L25.27 8.71001C25.5304 8.44966 25.5304 8.02755 25.27 7.76721Z" stroke="white" style="stroke:white;stroke-opacity:1;" stroke-width="0.5"/>
</svg>
