<svg width="33" height="32" viewBox="0 0 33 32" fill="none" xmlns="http://www.w3.org/2000/svg">
<g clip-path="url(#clip0_22291_40730)">
<path d="M31.0268 26.6392H26.5468V23.2792H29.9068C30.6354 23.2791 31.1699 22.5944 30.9932 21.8876L26.5132 3.96763C26.3036 3.13132 25.2673 2.83552 24.6478 3.43519C24.4977 3.58053 24.3912 3.76495 24.3404 3.96763L19.8604 21.8876C19.6838 22.5944 20.2183 23.2791 20.9468 23.2792H24.3068V26.6392H15.3468V24.3992H16.4668C17.329 24.3992 17.8679 23.4659 17.4368 22.7192C17.2367 22.3727 16.867 22.1592 16.4668 22.1592H15.3468V19.9192H16.4668C17.329 19.9192 17.8679 18.9859 17.4368 18.2392C17.2367 17.8927 16.867 17.6792 16.4668 17.6792H4.14683C3.28465 17.6792 2.74579 18.6126 3.17688 19.3592C3.37695 19.7058 3.74669 19.9192 4.14683 19.9192H5.26683V22.1592H4.14683C3.28465 22.1592 2.74579 23.0926 3.17688 23.8392C3.37695 24.1858 3.74669 24.3992 4.14683 24.3992H5.26683V26.6392H1.90683C1.04465 26.6392 0.505791 27.5726 0.936878 28.3192C1.13695 28.6658 1.50669 28.8792 1.90683 28.8792H31.0268C31.889 28.8792 32.4279 27.9459 31.9968 27.1992C31.7967 26.8527 31.427 26.6392 31.0268 26.6392ZM25.4268 8.85923L28.4718 21.0392H22.3818L25.4268 8.85923ZM7.50683 19.9192H13.1068V22.1592H7.50683V19.9192ZM7.50683 24.3992H13.1068V26.6392H7.50683V24.3992ZM14.7868 13.1992C17.8044 13.1992 19.6905 9.93257 18.1817 7.31923C16.6728 4.70589 12.9008 4.70589 11.392 7.31923C11.048 7.91514 10.8668 8.59113 10.8668 9.27923C10.8668 11.4442 12.6219 13.1992 14.7868 13.1992ZM14.7868 7.59923C16.0801 7.59929 16.8884 8.99932 16.2417 10.1193C15.595 11.2393 13.9785 11.2392 13.3319 10.1192C13.1844 9.86379 13.1068 9.5741 13.1068 9.27923C13.1068 8.35135 13.859 7.59919 14.7868 7.59923Z" fill="#102938" stroke="white" style="fill:#102938;fill:color(display-p3 0.0620 0.1626 0.2183);fill-opacity:1;stroke:white;stroke-opacity:1;" stroke-width="0.5"/>
</g>
<defs>
<clipPath id="clip0_22291_40730">
<rect width="32" height="32" fill="white" style="fill:white;fill-opacity:1;" transform="translate(0.464844)"/>
</clipPath>
</defs>
</svg>
