<svg width="37" height="37" viewBox="0 0 37 37" fill="none" xmlns="http://www.w3.org/2000/svg">
<path d="M0.333008 13.1636C0.333008 8.68323 0.333008 6.44302 1.20496 4.73172C1.97194 3.22643 3.19579 2.00258 4.70108 1.2356C6.41238 0.363647 8.65259 0.363647 13.133 0.363647H23.533C28.0134 0.363647 30.2536 0.363647 31.9649 1.2356C33.4702 2.00258 34.6941 3.22643 35.4611 4.73172C36.333 6.44302 36.333 8.68323 36.333 13.1636V23.5636C36.333 28.0441 36.333 30.2843 35.4611 31.9956C34.6941 33.5009 33.4702 34.7247 31.9649 35.4917C30.2536 36.3636 28.0134 36.3636 23.533 36.3636H13.133C8.65259 36.3636 6.41238 36.3636 4.70108 35.4917C3.19579 34.7247 1.97194 33.5009 1.20496 31.9956C0.333008 30.2843 0.333008 28.0441 0.333008 23.5636V13.1636Z" fill="#FFF6F2" style="fill:#FFF6F2;fill:color(display-p3 1.0000 0.9647 0.9490);fill-opacity:1;"/>
<path d="M13.8161 14.8959C15.7128 14.7137 17.5808 14.5351 19.4477 14.3565C19.5503 12.7017 19.6482 11.0612 19.7556 9.42187C19.7891 8.90757 19.8237 8.39208 19.8977 7.88254C20.0206 7.0337 20.5136 6.48369 21.3635 6.40273C22.0629 6.33606 22.7911 6.35392 23.4834 6.47178C24.2688 6.60512 24.7247 7.17061 24.7677 7.96945C24.8477 9.43378 24.8919 10.8993 24.9205 12.366C24.9444 13.6125 24.9253 14.8601 24.9253 16.1852C24.5087 16.2114 24.0408 16.2173 23.5789 16.2733C22.2014 16.4376 20.812 16.5495 19.4525 16.8126C17.1535 17.2554 16.2225 18.9841 16.9685 21.2008C17.2275 21.9723 17.6895 22.5556 18.334 22.9437C17.9831 23.5604 17.6035 24.1485 17.3123 24.7759C17.1678 25.0866 17.1475 25.47 17.1392 25.8224C17.1249 26.3557 17.4579 26.7188 17.933 26.7653C18.4773 26.8188 18.8831 26.5724 18.9332 26.0021C19.0586 24.5842 20.0278 24.0664 21.2178 23.8056C21.8338 23.6711 22.4759 23.6366 23.1098 23.6044C23.9095 23.564 24.3141 23.2818 24.3237 22.6842C24.3344 22.0699 23.9071 21.7377 23.0978 21.7008C22.0271 21.652 20.9517 21.6401 19.8893 21.5139C18.9356 21.4008 18.3674 20.3746 18.6503 19.4567C18.8067 18.9484 19.234 18.7329 19.684 18.6722C21.1964 18.4686 22.7171 18.3233 24.233 18.1471C25.1294 18.0424 25.9936 18.1817 26.7623 18.6305C28.203 19.4722 28.8523 20.9853 28.3474 22.6628C27.9631 23.9414 27.4152 25.189 26.785 26.3688C26.2992 27.2772 25.6689 28.1582 24.9301 28.8725C23.8808 29.888 22.4807 30.2475 21.0424 30.2868C18.8389 30.3475 16.6307 30.3963 14.4284 30.338C11.7034 30.2654 9.45934 28.5808 8.87087 25.4295C8.23228 22.0151 8.10456 18.5793 8.16782 15.1256C8.20005 13.4018 8.23467 11.6767 8.33732 9.95641C8.46146 7.88016 10.5527 6.75155 12.2966 7.78254C13.0963 8.25517 13.3422 9.03496 13.4246 9.89213C13.5058 10.741 13.5833 11.5898 13.6502 12.4386C13.7146 13.266 13.7636 14.0958 13.8161 14.8947V14.8959Z" fill="#FF6701" style="fill:#FF6701;fill:color(display-p3 1.0000 0.4039 0.0039);fill-opacity:1;"/>
</svg>
