<svg width="37" height="37" viewBox="0 0 37 37" fill="none" xmlns="http://www.w3.org/2000/svg">
<path d="M0.666992 13.1636C0.666992 8.68323 0.666992 6.44302 1.53894 4.73172C2.30593 3.22643 3.52977 2.00258 5.03507 1.2356C6.74636 0.363647 8.98657 0.363647 13.467 0.363647H23.867C28.3474 0.363647 30.5876 0.363647 32.2989 1.2356C33.8042 2.00258 35.0281 3.22643 35.795 4.73172C36.667 6.44302 36.667 8.68323 36.667 13.1636V23.5636C36.667 28.0441 36.667 30.2843 35.795 31.9956C35.0281 33.5009 33.8042 34.7247 32.2989 35.4917C30.5876 36.3636 28.3474 36.3636 23.867 36.3636H13.467C8.98657 36.3636 6.74636 36.3636 5.03507 35.4917C3.52977 34.7247 2.30593 33.5009 1.53894 31.9956C0.666992 30.2843 0.666992 28.0441 0.666992 23.5636V13.1636Z" fill="#FFF8D8" style="fill:#FFF8D8;fill:color(display-p3 1.0000 0.9725 0.8471);fill-opacity:1;"/>
<path d="M14.5502 15.2823C14.2917 14.1986 14.0036 13.0442 13.7451 11.8836C13.5702 11.1 13.4016 10.3126 13.2969 9.51782C13.1184 8.17124 13.6466 7.30948 14.9392 6.95486C15.897 6.69199 16.925 6.39068 17.8027 7.17061C18.108 7.44215 18.3444 7.83521 18.5069 8.21836C18.7137 8.70689 18.827 9.23759 18.9563 9.75588C19.0855 10.2705 19.1853 10.7925 19.413 11.3145C19.4696 10.5532 19.5681 9.79184 19.5743 9.03052C19.5927 6.53204 20.8657 6.3634 22.5338 6.3634C24.3509 6.3634 25.0945 7.15325 25.0736 8.99828C25.0551 10.671 24.9837 12.3424 24.9615 14.0138C24.9554 14.4701 24.8347 14.6251 24.3386 14.6723C22.8342 14.8148 21.3286 14.9922 19.8427 15.2687C18.1068 15.5923 17.1478 17.0926 17.4408 18.8459C17.6304 19.9775 18.1967 21.0571 19.1397 22.0846C18.3432 22.903 17.8901 23.8887 17.8372 25.0493C17.8052 25.7524 18.0736 26.1752 18.614 26.2434C19.1729 26.3128 19.6161 25.9793 19.6469 25.2911C19.7343 23.3419 21.1796 22.7678 22.9807 22.5459C23.2848 22.5087 23.595 22.526 23.8979 22.4814C24.4309 22.4033 24.6882 22.0573 24.6575 21.5316C24.6267 21.0022 24.3115 20.707 23.7858 20.6798C22.865 20.6314 21.9429 20.6066 21.022 20.5595C19.7343 20.495 18.7876 19.0406 19.3096 17.849C19.4475 17.5353 19.834 17.172 20.1492 17.1249C21.7435 16.8843 23.35 16.6078 24.9541 16.6004C26.6961 16.5929 28.0688 18.5396 27.7967 20.3834C27.468 22.6128 26.9411 24.7852 26.0387 26.8646C25.0859 29.0618 23.4177 30.2261 21.0947 30.3166C19.1348 30.3935 17.1564 30.3898 15.2076 30.1976C13.0187 29.9818 11.4639 28.7307 10.7043 26.6055C9.973 24.5546 9.68123 22.4107 9.5138 20.2495C9.39685 18.738 10.2365 17.751 11.4023 17.0195C12.3859 16.402 13.4361 15.8911 14.5502 15.2823Z" fill="#FFB306" style="fill:#FFB306;fill:color(display-p3 1.0000 0.7020 0.0235);fill-opacity:1;"/>
</svg>
