<svg width="36" height="37" viewBox="0 0 36 37" fill="none" xmlns="http://www.w3.org/2000/svg">
<rect y="0.363647" width="36" height="36" rx="8" fill="#E6FFF2" style="fill:#E6FFF2;fill:color(display-p3 0.9020 1.0000 0.9490);fill-opacity:1;"/>
<path d="M22.7626 18.0061C21.8057 18.1264 20.8911 18.1586 20.0175 18.367C17.6327 18.9362 15.8233 20.2718 14.8664 22.5834C14.7372 22.8959 14.7571 23.3857 14.9211 23.6685C15.0516 23.8929 15.576 24.0926 15.8096 24.0021C16.1414 23.8743 16.472 23.5159 16.6186 23.1762C17.0946 22.0749 17.8862 21.2887 18.9164 20.753C20.0286 20.1751 21.2142 19.8415 22.4991 19.9903C22.7204 20.0163 22.985 19.9308 23.1851 19.8167C23.9196 19.3975 24.6205 18.9151 25.3648 18.5145C25.755 18.305 26.2012 18.1499 26.6399 18.0842C27.6017 17.9416 28.3349 18.3546 28.7873 19.2003C29.7653 21.032 29.7044 21.843 28.0429 23.6077C26.4746 25.2732 24.7783 26.8209 23.0956 28.3747C21.7945 29.5752 20.2585 30.2696 18.4429 30.2758C16.4596 30.282 14.47 30.4333 12.4941 30.3217C9.66942 30.163 7.79542 28.2941 7.22625 25.4344C6.503 21.8009 6.52537 18.1313 6.61733 14.4556C6.64218 13.4449 6.69189 12.4342 6.74284 11.4235C6.759 11.116 6.79131 10.8035 6.86463 10.5046C7.10198 9.53854 7.61398 9.11689 8.61063 9.05737C8.89894 9.04001 9.19098 9.03877 9.47804 9.07101C10.5269 9.1913 11.0625 9.77292 11.0774 10.8357C11.0948 12.0746 11.0811 13.3147 11.0836 14.5548C11.0836 14.7408 11.0364 14.9591 11.1172 15.103C11.2241 15.2939 11.4266 15.5382 11.6056 15.5519C11.7733 15.5655 11.9746 15.3225 12.1337 15.1637C12.1921 15.1054 12.1847 14.9678 12.1834 14.8661C12.1673 13.3172 12.1362 11.7695 12.1325 10.2206C12.1312 9.54102 12.1238 8.85275 12.2219 8.18432C12.4059 6.92808 13.4671 6.2733 15.0342 6.37251C16.5155 6.46675 17.2127 7.19347 17.2301 8.7275C17.2499 10.4624 17.2251 12.1986 17.2425 13.9335C17.2475 14.3552 17.1083 14.9727 17.798 14.9616C18.4529 14.9517 18.2888 14.3601 18.2926 13.9571C18.3062 12.5111 18.2926 11.0639 18.3 9.6179C18.3087 8.17564 18.8878 7.51218 20.1803 7.43901C21.5621 7.36088 22.5327 8.06899 22.5936 9.43064C22.7216 12.2556 22.734 15.0844 22.7924 17.9131C22.7924 17.9503 22.7676 17.9887 22.7626 18.0061Z" fill="#0DB25A" style="fill:#0DB25A;fill:color(display-p3 0.0510 0.6980 0.3529);fill-opacity:1;"/>
</svg>
