<svg width="43" height="37" viewBox="0 0 43 37" fill="none" xmlns="http://www.w3.org/2000/svg">
<path d="M29.029 22.1871L17.0383 8.37451L13.4771 14.3247L27.661 24.4667L29.029 22.1871Z" fill="#FFB306" style="fill:#FFB306;fill:color(display-p3 1.0000 0.7020 0.0235);fill-opacity:1;"/>
<path d="M31.6388 17.7291L21.5434 0.583374L17.772 7.18597L29.9269 20.6049L31.6388 17.7291Z" fill="#FFB306" style="fill:#FFB306;fill:color(display-p3 1.0000 0.7020 0.0235);fill-opacity:1;"/>
<path d="M26.8013 25.7602L12.7434 15.457L9.25473 21.4372L25.418 28.1898L26.8013 25.7602Z" fill="#FFB306" style="fill:#FFB306;fill:color(display-p3 1.0000 0.7020 0.0235);fill-opacity:1;"/>
<path d="M24.5162 29.4421L8.5249 22.607L5.04769 28.5385L23.1177 31.7704L24.5162 29.4421Z" fill="#FFB306" style="fill:#FFB306;fill:color(display-p3 1.0000 0.7020 0.0235);fill-opacity:1;"/>
<path d="M0.416504 36.3334L20.6646 36.3184L22.1472 33.2664L4.29875 29.7908L0.416504 36.3334Z" fill="#FFB306" style="fill:#FFB306;fill:color(display-p3 1.0000 0.7020 0.0235);fill-opacity:1;"/>
<path d="M32.5673 19.0901L22.3573 36.3334L27.917 36.3259L32.5788 28.411L37.2214 36.3146L42.6665 36.3109L32.5673 19.0901Z" fill="#FFB306" style="fill:#FFB306;fill:color(display-p3 1.0000 0.7020 0.0235);fill-opacity:1;"/>
</svg>
