<svg width="36" height="36" viewBox="0 0 36 36" fill="none" xmlns="http://www.w3.org/2000/svg">
<path d="M8.4045 29.9625C7.1765 29.9625 6.13125 29.5322 5.26875 28.6718C4.40625 27.8115 3.975 26.7668 3.975 25.5375H2.625C2.30625 25.5375 2.03912 25.4297 1.82362 25.2139C1.60787 24.9984 1.5 24.7313 1.5 24.4125V8.25C1.5 7.65 1.725 7.125 2.175 6.675C2.625 6.225 3.15 6 3.75 6H23.2125C23.8313 6 24.361 6.22025 24.8018 6.66075C25.2422 7.1015 25.4625 7.63125 25.4625 8.25V12.2625H28.275C28.6313 12.2625 28.9687 12.3422 29.2875 12.5014C29.6062 12.6609 29.8687 12.8812 30.075 13.1625L34.275 18.75C34.35 18.8438 34.4062 18.9469 34.4437 19.0594C34.4812 19.1719 34.5 19.2938 34.5 19.425V24.4125C34.5 24.7313 34.3922 24.9984 34.1768 25.2139C33.961 25.4297 33.6938 25.5375 33.375 25.5375H31.8375C31.8375 26.7625 31.4077 27.8063 30.5482 28.6688C29.6887 29.5313 28.645 29.9625 27.417 29.9625C26.189 29.9625 25.1437 29.5322 24.2812 28.6718C23.4188 27.8115 22.9875 26.7668 22.9875 25.5375H12.825C12.825 26.7625 12.3952 27.8063 11.5357 28.6688C10.6762 29.5313 9.63248 29.9625 8.4045 29.9625ZM8.4 27.7125C9 27.7125 9.51248 27.5 9.9375 27.075C10.3625 26.65 10.575 26.1375 10.575 25.5375C10.575 24.9375 10.3625 24.425 9.9375 24C9.51248 23.575 9 23.3625 8.4 23.3625C7.8 23.3625 7.2875 23.575 6.8625 24C6.4375 24.425 6.225 24.9375 6.225 25.5375C6.225 26.1375 6.4375 26.65 6.8625 27.075C7.2875 27.5 7.8 27.7125 8.4 27.7125ZM27.4125 27.7125C28.0125 27.7125 28.525 27.5 28.95 27.075C29.375 26.65 29.5875 26.1375 29.5875 25.5375C29.5875 24.9375 29.375 24.425 28.95 24C28.525 23.575 28.0125 23.3625 27.4125 23.3625C26.8125 23.3625 26.3 23.575 25.875 24C25.45 24.425 25.2375 24.9375 25.2375 25.5375C25.2375 26.1375 25.45 26.65 25.875 27.075C26.3 27.5 26.8125 27.7125 27.4125 27.7125ZM25.4625 20.0625H32.4375L28.275 14.5125H25.4625V20.0625Z" fill="#0DB25A" style="fill:#0DB25A;fill:color(display-p3 0.0510 0.6980 0.3529);fill-opacity:1;"/>
</svg>
