<svg width="32" height="33" viewBox="0 0 32 33" fill="none" xmlns="http://www.w3.org/2000/svg">
<g clip-path="url(#clip0_18270_4277)">
<path d="M18.8659 32.3621C21.0359 32.3621 23.2075 32.3652 25.3775 32.3606C26.5222 32.3575 26.8854 31.9942 26.8808 30.8365C26.8747 29.212 26.8625 27.5783 27.4846 26.0481C27.8203 25.2227 28.2325 24.4081 28.729 23.6708C31.1136 20.1297 31.6898 16.1944 31.3618 12.0319C31.1519 9.35946 30.4132 6.89412 28.7398 4.76264C27.0111 2.56315 24.6894 1.34826 22.0228 0.799545C18.5349 0.0823541 15.0822 0.202916 11.7153 1.50282C8.40207 2.78264 6.02517 5.13824 4.2153 8.13529C2.65369 10.7197 1.61466 13.5359 0.756468 16.4201C0.0714455 18.7262 1.12427 20.4512 3.47817 20.918C4.03293 21.0277 4.18312 21.258 4.15553 21.7866C4.12488 22.4018 4.1494 23.0232 4.19231 23.6384C4.35016 25.8548 6.13398 27.6107 8.33617 27.7328C8.82043 27.7591 9.30777 27.7328 9.7905 27.773C10.4311 27.8256 10.8341 28.1146 10.7958 28.855C10.7621 29.5227 10.7836 30.1935 10.7943 30.8628C10.8111 31.9618 11.1989 32.3559 12.2777 32.359C14.4738 32.3652 16.6699 32.3606 18.8659 32.3606V32.3621ZM25.1874 14.6364C25.1874 14.6364 25.1798 14.6364 25.1752 14.6364C25.1752 15.1511 25.2012 15.6673 25.1706 16.1805C25.0878 17.5129 24.9223 18.8375 23.6657 19.6304C22.3738 20.4466 21.062 21.2364 19.7241 21.9721C18.5257 22.6321 17.2783 22.6306 16.0737 21.9474C14.7665 21.2055 13.4532 20.4682 12.1843 19.6644C11.3782 19.1528 10.8449 18.3738 10.7866 17.3846C10.7039 15.9749 10.6288 14.5591 10.6579 13.1479C10.6839 11.8434 10.8786 10.5187 12.1245 9.76597C13.6692 8.83239 15.2538 7.95754 16.8522 7.11979C17.5847 6.73646 18.3893 6.78747 19.1372 7.17079C20.2712 7.75042 21.3899 8.36251 22.527 8.9375C24.4197 9.89427 25.287 11.4384 25.1905 13.5575C25.1736 13.9176 25.1874 14.2778 25.1874 14.6379V14.6364Z" fill="#0067A0" style="fill:#0067A0;fill:color(display-p3 0.0000 0.4039 0.6275);fill-opacity:1;"/>
<path d="M20.1467 14.607C20.1176 13.1819 19.2395 12.3657 17.7851 12.409C16.3814 12.4523 15.6289 13.3148 15.6642 14.8373C15.6963 16.1897 16.599 17.0027 18.0181 16.9579C19.382 16.9146 20.1758 16.0383 20.1467 14.607Z" fill="#0067A0" style="fill:#0067A0;fill:color(display-p3 0.0000 0.4039 0.6275);fill-opacity:1;"/>
</g>
<defs>
<clipPath id="clip0_18270_4277">
<rect width="32" height="32" fill="white" style="fill:white;fill-opacity:1;" transform="matrix(-1 0 0 1 32 0.363647)"/>
</clipPath>
</defs>
</svg>
