<svg width="48" height="48" viewBox="0 0 48 48" fill="none" xmlns="http://www.w3.org/2000/svg">
<rect width="48" height="48" rx="8" fill="#0DB25A" style="fill:#0DB25A;fill:color(display-p3 0.0510 0.6980 0.3529);fill-opacity:1;"/>
<path d="M24.1691 16.7684C20.8598 16.7684 18.1676 19.4607 18.1676 22.7699C18.1676 26.0792 20.8598 28.7714 24.1691 28.7714C27.4784 28.7714 30.1706 26.0792 30.1706 22.7699C30.1706 19.4607 27.4784 16.7684 24.1691 16.7684ZM27.471 21.7141L23.7392 25.1674C23.7318 25.1743 23.7237 25.1802 23.7161 25.1868C23.7051 25.1963 23.6941 25.2059 23.6827 25.2149C23.6705 25.2244 23.658 25.2333 23.6455 25.2422C23.6336 25.2506 23.6219 25.259 23.6098 25.2668C23.5967 25.2751 23.5833 25.2827 23.5699 25.2903C23.5578 25.2972 23.5458 25.3042 23.5335 25.3105C23.5193 25.3178 23.5047 25.3242 23.4901 25.3307C23.4782 25.336 23.4664 25.3416 23.4543 25.3463C23.4387 25.3526 23.4228 25.3577 23.4069 25.363C23.3955 25.3667 23.3842 25.3709 23.3727 25.3743C23.3553 25.3793 23.3378 25.3831 23.3202 25.3871C23.3098 25.3894 23.2996 25.3923 23.2891 25.3943C23.2692 25.3981 23.2491 25.4005 23.229 25.4029C23.2207 25.4039 23.2125 25.4056 23.2042 25.4063C23.1757 25.409 23.1472 25.4104 23.1187 25.4104C23.0886 25.4104 23.0584 25.4088 23.0285 25.4059C23.0198 25.4051 23.0113 25.4033 23.0027 25.4022C22.9815 25.3995 22.9602 25.3968 22.9392 25.3926C22.9286 25.3904 22.9182 25.3873 22.9076 25.3848C22.8888 25.3804 22.87 25.3761 22.8516 25.3705C22.84 25.3669 22.8287 25.3624 22.8172 25.3585C22.8001 25.3525 22.783 25.3467 22.7662 25.3397C22.754 25.3346 22.7422 25.3286 22.7303 25.323C22.7147 25.3157 22.6991 25.3085 22.6839 25.3003C22.6715 25.2936 22.6595 25.286 22.6473 25.2787C22.6331 25.2701 22.6189 25.2616 22.6051 25.2522C22.5929 25.2439 22.5811 25.2347 22.5691 25.2258C22.5561 25.2159 22.543 25.206 22.5304 25.1954C22.5188 25.1857 22.5076 25.1752 22.4965 25.1648C22.4885 25.1573 22.48 25.1506 22.4722 25.1428L20.8417 23.5123C20.4848 23.1554 20.4848 22.5768 20.8417 22.2198C21.1986 21.8629 21.7772 21.8629 22.1341 22.2198L23.1431 23.2287L26.2297 20.3726C26.6002 20.0298 27.1784 20.0522 27.5212 20.4226C27.8638 20.7931 27.8415 21.3713 27.471 21.7141Z" fill="white" style="fill:white;fill-opacity:1;"/>
<path d="M35.7529 11.1454C26.0539 8.31061 22.4562 8.25922 12.5814 11.1454C11.7491 11.3715 11.1689 12.1291 11.1689 12.9928V29.0632C11.1689 31.1732 12.3336 33.0756 14.2104 34.0355L21.591 38.3736L21.6423 38.4015C22.4328 38.8005 23.2999 39 24.1671 39C25.0343 39 25.9015 38.8005 26.692 38.4015L26.7181 38.3884L34.1239 34.0355C36.0007 33.0757 37.1653 31.1733 37.1653 29.0632V12.9928C37.1653 12.1292 36.5853 11.3716 35.7529 11.1454ZM24.1671 30.5994C19.85 30.5994 16.3378 27.0872 16.3378 22.7702C16.3378 18.4531 19.85 14.9408 24.1671 14.9408C28.4842 14.9408 31.9964 18.453 31.9964 22.7701C31.9964 27.0872 28.4842 30.5994 24.1671 30.5994Z" fill="white" style="fill:white;fill-opacity:1;"/>
</svg>
