<svg width="48" height="48" viewBox="0 0 48 48" fill="none" xmlns="http://www.w3.org/2000/svg">
<rect width="48" height="48" rx="8" fill="#FFB306" style="fill:#FFB306;fill:color(display-p3 1.0000 0.7020 0.0235);fill-opacity:1;"/>
<path d="M24 10.6667L24.856 10.6733L25.6773 10.696L26.076 10.7133L26.848 10.7587L27.5853 10.82C33.8346 11.4267 36.452 13.9307 37.14 20.028L37.18 20.4147L37.2413 21.152L37.296 22.1213L37.304 22.3213L37.3266 23.144L37.3333 24L37.3266 24.856L37.304 25.6773L37.2866 26.076L37.2413 26.848L37.18 27.5853C36.5733 33.8347 34.0693 36.452 27.972 37.14L27.5853 37.18L26.848 37.2413L25.8786 37.296L25.6786 37.304L24.856 37.3267L24 37.3333L23.144 37.3267L22.3226 37.304L21.924 37.2867L21.152 37.2413L20.4146 37.18C14.1653 36.5733 11.548 34.0693 10.86 27.972L10.82 27.5853L10.7586 26.848L10.704 25.8787L10.696 25.6787L10.6733 24.856L10.668 24.432V23.568L10.6733 23.144L10.696 22.3227L10.7133 21.924L10.7586 21.152L10.82 20.4147C11.4266 14.1653 13.9306 11.548 20.028 10.86L20.4146 10.82L21.152 10.7587L22.1213 10.704L22.3213 10.696L23.144 10.6733C23.424 10.6693 23.7093 10.6667 24 10.6667ZM24 22.6667H22.6666L22.5106 22.676C22.1866 22.7145 21.8879 22.8706 21.6712 23.1146C21.4545 23.3586 21.3348 23.6736 21.3348 24C21.3348 24.3263 21.4545 24.6414 21.6712 24.8854C21.8879 25.1294 22.1866 25.2854 22.5106 25.324L22.6666 25.3333V29.3333L22.676 29.4893C22.7111 29.787 22.8454 30.0641 23.0573 30.276C23.2692 30.4879 23.5463 30.6222 23.844 30.6573L24 30.6667H25.3333L25.4893 30.6573C25.7869 30.6222 26.064 30.4879 26.276 30.276C26.4879 30.0641 26.6222 29.787 26.6573 29.4893L26.6666 29.3333L26.6573 29.1773C26.6254 28.9053 26.5106 28.6497 26.3283 28.4452C26.146 28.2408 25.9052 28.0974 25.6386 28.0347L25.4893 28.008L25.3333 28V24L25.324 23.844C25.2889 23.5464 25.1545 23.2693 24.9426 23.0573C24.7307 22.8454 24.4536 22.7111 24.156 22.676L24 22.6667ZM24.0133 18.6667L23.844 18.676C23.5199 18.7145 23.2212 18.8706 23.0045 19.1146C22.7878 19.3586 22.6681 19.6736 22.6681 20C22.6681 20.3263 22.7878 20.6414 23.0045 20.8854C23.2212 21.1294 23.5199 21.2855 23.844 21.324L24 21.3333L24.1693 21.324C24.4934 21.2855 24.792 21.1294 25.0088 20.8854C25.2255 20.6414 25.3451 20.3263 25.3451 20C25.3451 19.6736 25.2255 19.3586 25.0088 19.1146C24.792 18.8706 24.4934 18.7145 24.1693 18.676L24.0133 18.6667Z" fill="white" style="fill:white;fill-opacity:1;"/>
</svg>
