<svg width="48" height="48" viewBox="0 0 48 48" fill="none" xmlns="http://www.w3.org/2000/svg">
<rect width="48" height="48" rx="8" fill="#FF6701" style="fill:#FF6701;fill:color(display-p3 1.0000 0.4039 0.0039);fill-opacity:1;"/>
<path fill-rule="evenodd" clip-rule="evenodd" d="M38.333 24C38.333 16.0839 31.9158 9.66666 23.9997 9.66666C16.0837 9.66666 9.66634 16.0839 9.66634 24C9.66634 31.916 16.0837 38.3333 23.9997 38.3333C26.4747 38.3333 28.8059 37.7051 30.8395 36.5991L36.4833 37.6497C36.8074 37.7101 37.1404 37.6068 37.3734 37.3737C37.6065 37.1407 37.7098 36.8077 37.6494 36.4836L36.5987 30.8397C37.7048 28.8061 38.333 26.4751 38.333 24ZM23.9997 17.6667C23.4474 17.6667 22.9997 18.1144 22.9997 18.6667V24C22.9997 24.5523 23.4474 25 23.9997 25C24.5519 25 24.9997 24.5523 24.9997 24V18.6667C24.9997 18.1144 24.5519 17.6667 23.9997 17.6667ZM23.2434 30.0013C22.8737 29.5911 22.9066 28.9588 23.317 28.5891C23.7273 28.2195 24.3597 28.2524 24.7293 28.6627L24.7426 28.6775C25.1123 29.0879 25.0794 29.7201 24.669 30.0897C24.2587 30.4595 23.6263 30.4265 23.2567 30.0161L23.2434 30.0013Z" fill="white" style="fill:white;fill-opacity:1;"/>
</svg>
