<svg width="48" height="48" viewBox="0 0 48 48" fill="none" xmlns="http://www.w3.org/2000/svg">
<rect width="48" height="48" rx="8" fill="#FF6701" style="fill:#FF6701;fill:color(display-p3 1.0000 0.4039 0.0039);fill-opacity:1;"/>
<path d="M21.9003 9.88533C22.5148 9.54649 23.2008 9.35811 23.9021 9.33563C24.6034 9.31315 25.3001 9.45721 25.935 9.756L26.1883 9.88533L35.2217 15.212L35.3497 15.296L35.4723 15.3987L35.615 15.4987C36.0784 15.8461 36.4668 16.2837 36.7568 16.785C37.0469 17.2863 37.2327 17.8411 37.303 18.416L37.327 18.6853L37.3337 18.9573V28.6693C37.3337 30.144 36.5737 31.508 35.395 32.26L35.1683 32.3933L26.0977 38.1293C24.8737 38.8013 23.4057 38.8427 22.0923 38.22L21.831 38.0867L12.9043 32.4373C12.269 32.09 11.7316 31.5877 11.3421 30.9773C10.9526 30.3668 10.7236 29.6679 10.6763 28.9453L10.667 28.6693V18.956C10.667 17.4813 11.427 16.1187 12.635 15.3493L21.9017 9.88533H21.9003ZM24.0137 28L23.8443 28.0093C23.5203 28.0479 23.2216 28.2039 23.0049 28.448C22.7882 28.692 22.6685 29.007 22.6685 29.3333C22.6685 29.6597 22.7882 29.9747 23.0049 30.2187C23.2216 30.4627 23.5203 30.6188 23.8443 30.6573L24.0003 30.6667L24.1697 30.6573C24.4937 30.6188 24.7924 30.4627 25.0091 30.2187C25.2258 29.9747 25.3455 29.6597 25.3455 29.3333C25.3455 29.007 25.2258 28.692 25.0091 28.448C24.7924 28.2039 24.4937 28.0479 24.1697 28.0093L24.0137 28ZM24.0003 17.3333C23.6737 17.3334 23.3585 17.4533 23.1145 17.6703C22.8705 17.8873 22.7145 18.1863 22.6763 18.5107L22.667 18.6667V24L22.6763 24.156C22.7149 24.4801 22.8709 24.7787 23.1149 24.9954C23.359 25.2122 23.674 25.3318 24.0003 25.3318C24.3267 25.3318 24.6417 25.2122 24.8857 24.9954C25.1297 24.7787 25.2858 24.4801 25.3243 24.156L25.3337 24V18.6667L25.3243 18.5107C25.2861 18.1863 25.1302 17.8873 24.8862 17.6703C24.6421 17.4533 24.3269 17.3334 24.0003 17.3333Z" fill="white" style="fill:white;fill-opacity:1;"/>
</svg>
