<svg width="48" height="48" viewBox="0 0 48 48" fill="none" xmlns="http://www.w3.org/2000/svg">
<rect width="48" height="48" rx="8" fill="#FF6701" style="fill:#FF6701;fill:color(display-p3 1.0000 0.4039 0.0039);fill-opacity:1;"/>
<path d="M30.1006 14.1853C27.2325 10.7559 24.4014 8.52683 24.2825 8.43378C23.6362 7.92826 22.6888 8.39021 22.6888 9.21027V13.5463C22.6888 15.7853 19.7258 16.5732 18.6153 14.6272C18.27 14.0236 17.4304 13.96 16.9958 14.491C14.0118 18.1326 11.3496 22.7242 11.3496 27.4516C11.3496 34.2477 16.8787 39.7768 23.6748 39.7768C30.471 39.7768 36.0001 34.2477 36.0001 27.4516C36.0001 22.6019 33.1998 17.8917 30.1006 14.1853ZM18.2517 24.0005C18.2517 22.9128 19.1367 22.0285 20.2238 22.0285C21.3109 22.0285 22.1958 22.9128 22.1958 24.0005C22.1958 25.0882 21.3109 25.9726 20.2238 25.9726C19.1367 25.9726 18.2517 25.0882 18.2517 24.0005ZM21.0021 32.4939C20.6696 32.9225 20.0499 33.0023 19.6186 32.667C19.1885 32.3324 19.1114 31.7131 19.4454 31.2835L26.3476 22.4094C26.6822 21.9792 27.3015 21.9022 27.7311 22.2362C28.1612 22.5708 28.2383 23.1902 27.9042 23.6197L21.0021 32.4939ZM27.1259 32.8747C26.0388 32.8747 25.1539 31.9904 25.1539 30.9027C25.1539 29.815 26.0388 28.9306 27.1259 28.9306C28.213 28.9306 29.0979 29.815 29.0979 30.9027C29.0979 31.9904 28.213 32.8747 27.1259 32.8747Z" fill="white" style="fill:white;fill-opacity:1;"/>
</svg>
