<svg width="48" height="48" viewBox="0 0 48 48" fill="none" xmlns="http://www.w3.org/2000/svg">
<rect width="48" height="48" rx="8" fill="#FFB306" style="fill:#FFB306;fill:color(display-p3 1.0000 0.7020 0.0235);fill-opacity:1;"/>
<path d="M36.6128 17.282C36.2749 28.0212 27.4635 36.623 16.6426 36.623C12.5054 36.623 9.37695 33.3929 9.37695 29.3156C9.37698 28.7711 9.54018 28.2391 9.84549 27.7882C10.1508 27.3373 10.5842 26.9882 11.0898 26.786L14.8225 25.2929C15.4276 25.0508 16.0905 24.9916 16.7289 25.1225C17.3673 25.2535 17.9533 25.569 18.4142 26.0298L20.2766 27.8928C20.3589 27.9751 20.4516 27.9848 20.5079 27.9679C22.2671 27.4306 23.8674 26.4694 25.1681 25.1687C26.4688 23.868 27.43 22.2677 27.9673 20.5085C27.9848 20.4516 27.9751 20.3589 27.8928 20.2766L26.0298 18.4142C25.569 17.9533 25.2535 17.3673 25.1225 16.7289C24.9916 16.0905 25.0508 15.4276 25.2929 14.8225L26.786 11.0898C26.9882 10.5842 27.3373 10.1508 27.7882 9.84549C28.2391 9.54018 28.7711 9.37698 29.3156 9.37695C33.7749 9.37695 36.6818 12.9256 36.6128 17.282Z" fill="white" style="fill:white;fill-opacity:1;"/>
</svg>
