<svg width="48" height="48" viewBox="0 0 48 48" fill="none" xmlns="http://www.w3.org/2000/svg">
<rect width="48" height="48" rx="8" fill="#FFB306" style="fill:#FFB306;fill:color(display-p3 1.0000 0.7020 0.0235);fill-opacity:1;"/>
<g clip-path="url(#clip0_17978_7785)">
<path d="M7.20117 21.6996V30.24C7.20117 32.6993 9.19485 34.693 11.6542 34.693H35.7481C38.2075 34.693 40.2012 32.6993 40.2012 30.24V21.6996C40.2012 21.2719 39.8544 20.9251 39.4267 20.9251H7.97562C7.54793 20.9251 7.20117 21.2719 7.20117 21.6996ZM15.4404 27.1207H13.3752C12.6267 27.1207 12.02 26.5139 12.02 25.7654C12.02 25.0169 12.6267 24.4101 13.3752 24.4101H15.4404C16.1889 24.4101 16.7957 25.0169 16.7957 25.7654C16.7957 26.5139 16.1889 27.1207 15.4404 27.1207Z" fill="white" style="fill:white;fill-opacity:1;"/>
<path d="M40.2012 17.4398V17.1602C40.2012 14.7008 38.2075 12.7071 35.7481 12.7071H11.6542C9.19485 12.7071 7.20117 14.7008 7.20117 17.1602V17.4398C7.20117 17.8675 7.54793 18.2143 7.97562 18.2143H39.4267C39.8544 18.2143 40.2012 17.8675 40.2012 17.4398Z" fill="white" style="fill:white;fill-opacity:1;"/>
</g>
<defs>
<clipPath id="clip0_17978_7785">
<rect width="33" height="33" fill="white" style="fill:white;fill-opacity:1;" transform="translate(7.20117 7.2001)"/>
</clipPath>
</defs>
</svg>
