<svg width="48" height="48" viewBox="0 0 48 48" fill="none" xmlns="http://www.w3.org/2000/svg">
<rect width="48" height="48" rx="8" fill="#0DB25A" style="fill:#0DB25A;fill:color(display-p3 0.0510 0.6980 0.3529);fill-opacity:1;"/>
<g clip-path="url(#clip0_18066_1321)">
<path d="M39.1897 19.3257C39.1973 26.9187 31.4009 32.0164 24.4483 28.9644L16.8454 37.759C16.8279 37.7795 16.8074 37.8014 16.7884 37.8204C14.2443 40.3645 9.90015 39.2005 8.96893 35.7251C8.53676 34.1122 8.99788 32.3913 10.1786 31.2106C10.1991 31.1916 10.2195 31.1711 10.2414 31.1536L19.036 23.5522C15.7906 16.1283 21.7988 7.97505 29.8508 8.8764C30.3177 8.92865 30.7806 9.01212 31.2363 9.12621C32.0971 9.34197 32.4126 10.4008 31.8102 11.0525L26.3381 16.9891L27.1646 20.8373L31.0114 21.6624L36.9479 16.1829C37.5996 15.5806 38.6585 15.8961 38.8742 16.7569C39.0839 17.5971 39.1898 18.4598 39.1897 19.3257Z" fill="white" style="fill:white;fill-opacity:1;"/>
</g>
<defs>
<clipPath id="clip0_18066_1321">
<rect width="32" height="32" fill="white" style="fill:white;fill-opacity:1;" transform="translate(8 8)"/>
</clipPath>
</defs>
</svg>
