<svg width="38" height="39" viewBox="0 0 38 39" fill="none" xmlns="http://www.w3.org/2000/svg">
<rect y="0.0909424" width="38" height="38" rx="7" fill="white" style="fill:white;fill-opacity:1;"/>
<g clip-path="url(#clip0_18265_3692)">
<path d="M21.0794 16.5304L17.9488 19.6618L16.9207 18.6334C16.5546 18.2672 15.9611 18.2672 15.5949 18.6334C15.2288 18.9996 15.2288 19.5934 15.5949 19.9595L17.2859 21.6509C17.652 22.0171 18.2459 22.0169 18.6117 21.6509L22.4052 17.8565C22.7714 17.4903 22.7714 16.8965 22.4052 16.5304C22.0392 16.1642 21.4456 16.1642 21.0794 16.5304Z" fill="#102938" style="fill:#102938;fill:color(display-p3 0.0620 0.1626 0.2183);fill-opacity:1;"/>
<path d="M27.5649 11.2092L21.5602 7.76942C19.981 6.86478 18.019 6.86478 16.4398 7.76942L10.4351 11.2092C8.8367 12.1248 7.84375 13.8382 7.84375 15.6806V22.5013C7.84375 24.3437 8.8367 26.0571 10.4351 26.9727L16.4398 30.4125C18.0189 31.317 19.981 31.3171 21.5602 30.4125L27.5649 26.9727C29.1633 26.0571 30.1563 24.3437 30.1563 22.5013V15.6806C30.1562 13.8382 29.1633 12.1248 27.5649 11.2092ZM28.2812 22.5013C28.2812 23.6732 27.6497 24.7629 26.633 25.3453L20.6283 28.785C19.6239 29.3604 18.376 29.3604 17.3716 28.785L11.3669 25.3453C10.3503 24.7629 9.71875 23.6732 9.71875 22.5013V15.6806C9.71875 14.5087 10.3503 13.419 11.367 12.8366L17.3717 9.39688C18.376 8.82153 19.624 8.82144 20.6284 9.39688L26.6331 12.8366C27.6497 13.419 28.2812 14.5088 28.2812 15.6806V22.5013Z" fill="#102938" style="fill:#102938;fill:color(display-p3 0.0620 0.1626 0.2183);fill-opacity:1;"/>
</g>
<defs>
<clipPath id="clip0_18265_3692">
<rect width="24" height="24" fill="white" style="fill:white;fill-opacity:1;" transform="translate(7 7.09094)"/>
</clipPath>
</defs>
</svg>
