<svg width="38" height="39" viewBox="0 0 38 39" fill="none" xmlns="http://www.w3.org/2000/svg">
<rect y="0.0909424" width="38" height="38" rx="7" fill="white" style="fill:white;fill-opacity:1;"/>
<g clip-path="url(#clip0_18265_3706)">
<path d="M18.0645 17.9659C18.0645 16.9304 17.225 16.0909 16.1895 16.0909C15.154 16.0909 14.3145 16.9304 14.3145 17.9659V19.8409M14.3145 18.9034C14.3145 17.8679 13.475 17.0284 12.4395 17.0284C11.4039 17.0284 10.5645 17.8679 10.5645 18.9034V24.5284C10.5645 27.635 13.0829 30.1534 16.1895 30.1534H19.8443C23.0151 30.1534 25.5821 27.5767 25.5701 24.4059C25.5665 23.442 25.3201 22.5075 24.8688 21.6816L27.3471 14.215L27.324 14.2878C27.3959 14.089 27.4349 13.8746 27.4349 13.651C27.4349 12.6155 26.5955 11.776 25.56 11.776C24.7215 11.776 24.0117 12.3263 23.7718 13.0853L21.8145 18.9034V9.90344C21.8145 8.86793 20.975 8.02844 19.9395 8.02844C18.9039 8.02844 18.0645 8.86793 18.0645 9.90344V18.9034" stroke="#102938" style="stroke:#102938;stroke:color(display-p3 0.0620 0.1626 0.2183);stroke-opacity:1;" stroke-width="1.7" stroke-miterlimit="10" stroke-linecap="round" stroke-linejoin="round"/>
</g>
<defs>
<clipPath id="clip0_18265_3706">
<rect width="24" height="24" fill="white" style="fill:white;fill-opacity:1;" transform="translate(7 7.09094)"/>
</clipPath>
</defs>
</svg>
