<svg width="38" height="39" viewBox="0 0 38 39" fill="none" xmlns="http://www.w3.org/2000/svg">
<rect y="0.0909424" width="38" height="38" rx="7" fill="white" style="fill:white;fill-opacity:1;"/>
<g clip-path="url(#clip0_18265_3681)">
<path d="M16.3149 20.8387H7.9375C7.41972 20.8387 7 21.2584 7 21.7762V30.1537C7 30.6714 7.41972 31.0912 7.9375 31.0912H16.3149C16.8327 31.0912 17.2524 30.6714 17.2524 30.1537V21.7762C17.2524 21.2584 16.8327 20.8387 16.3149 20.8387ZM15.3774 29.2162H8.875V22.7137H15.3774V29.2162Z" fill="#102938" style="fill:#102938;fill:color(display-p3 0.0620 0.1626 0.2183);fill-opacity:1;"/>
<path d="M21.2742 21.1133C20.9082 20.7472 20.3146 20.7472 19.9484 21.1133C19.5823 21.4794 19.5823 22.073 19.9484 22.4391L28.0036 30.4944C28.3697 30.8604 28.9632 30.8605 29.3294 30.4944C29.6956 30.1283 29.6956 29.5346 29.3294 29.1685L21.2742 21.1133Z" fill="#102938" style="fill:#102938;fill:color(display-p3 0.0620 0.1626 0.2183);fill-opacity:1;"/>
<path d="M30.9014 17.0606L26.1756 7.60919C26.0168 7.29157 25.6922 7.09094 25.3371 7.09094C24.982 7.09094 24.6574 7.29157 24.4986 7.60919L19.7728 17.0606C19.6275 17.3513 19.643 17.6964 19.8138 17.9728C19.9847 18.2492 20.2864 18.4174 20.6113 18.4174H30.0628C30.3878 18.4174 30.6895 18.2492 30.8603 17.9728C31.0311 17.6964 31.0466 17.3513 30.9014 17.0606ZM22.1283 16.5424L25.3371 10.1248L28.5459 16.5424H22.1283Z" fill="#102938" style="fill:#102938;fill:color(display-p3 0.0620 0.1626 0.2183);fill-opacity:1;"/>
<path d="M12.6632 7.09094C9.54053 7.09094 7 9.63143 7 12.7541C7 15.8769 9.54053 18.4173 12.6632 18.4173C15.7859 18.4173 18.3264 15.8769 18.3264 12.7541C18.3264 9.63143 15.7859 7.09094 12.6632 7.09094ZM12.6632 16.5424C10.5744 16.5424 8.875 14.843 8.875 12.7541C8.875 10.6653 10.5744 8.96594 12.6632 8.96594C14.752 8.96594 16.4514 10.6653 16.4514 12.7541C16.4514 14.8429 14.752 16.5424 12.6632 16.5424Z" fill="#102938" style="fill:#102938;fill:color(display-p3 0.0620 0.1626 0.2183);fill-opacity:1;"/>
</g>
<defs>
<clipPath id="clip0_18265_3681">
<rect width="24" height="24" fill="white" style="fill:white;fill-opacity:1;" transform="translate(7 7.09094)"/>
</clipPath>
</defs>
</svg>
