<svg width="26" height="27" viewBox="0 0 26 27" fill="none" xmlns="http://www.w3.org/2000/svg">
<path d="M0 7.41665C0 3.82679 2.91016 0.916626 6.50003 0.916626H20.7215V13.9167H6.50003C2.91016 13.9167 0 11.0065 0 7.41665Z" fill="#FFB306" style="fill:#FFB306;fill:color(display-p3 1.0000 0.7020 0.0235);fill-opacity:1;"/>
<path d="M26 20.4167C26 24.0066 23.0898 26.9167 19.5 26.9167L5.55023 26.9167L5.55023 13.9167L19.5 13.9167C23.0898 13.9167 26 16.8269 26 20.4167Z" fill="#0DB25A" style="fill:#0DB25A;fill:color(display-p3 0.0510 0.6980 0.3529);fill-opacity:1;"/>
<path d="M13 20.4167C13 24.0066 10.0898 26.9167 6.49997 26.9167L4.1008e-05 26.9167L4.16036e-05 20.1035C4.19023e-05 16.6866 2.76999 13.9167 6.18689 13.9167L6.49998 13.9167C10.0898 13.9167 13 16.8269 13 20.4167Z" fill="#0067A0" style="fill:#0067A0;fill:color(display-p3 0.0000 0.4039 0.6275);fill-opacity:1;"/>
<path d="M13 7.41665C13 3.82679 15.9102 0.916626 19.5 0.916626L26 0.916626V7.72984C26 11.1467 23.23 13.9167 19.8131 13.9167H19.5C15.9102 13.9167 13 11.0065 13 7.41665Z" fill="#FF6701" style="fill:#FF6701;fill:color(display-p3 1.0000 0.4039 0.0039);fill-opacity:1;"/>
</svg>
