<svg width="20" height="20" viewBox="0 0 20 20" fill="none" xmlns="http://www.w3.org/2000/svg">
<g clip-path="url(#clip0_18336_19825)">
<path d="M16.7159 3.28407C14.9943 1.56818 12.6222 0.502844 10 0.5C4.75285 0.5 0.5 4.75283 0.5 9.99998C0.5 15.2471 4.75285 19.5 10 19.5C15.2472 19.5 19.5 15.2471 19.5 9.99998C19.4972 7.37783 18.4318 5.00564 16.7159 3.28407ZM14.3977 8.9517C14.3807 9.05678 14.3295 9.15055 14.2528 9.22442L12.4631 10.9318L12.8494 13.375C12.892 13.6364 12.7159 13.8835 12.4545 13.9261C12.3494 13.9432 12.2386 13.9233 12.1449 13.8721L9.96591 12.696L7.76136 13.821C7.52556 13.9403 7.2358 13.8466 7.11364 13.6108C7.06534 13.517 7.04829 13.4091 7.06818 13.304L7.51705 10.8693L5.76421 9.11646C5.57955 8.92611 5.58239 8.62211 5.77273 8.43464C5.84659 8.36362 5.94317 8.31534 6.04546 8.30112L8.49999 7.97441L9.61931 5.76986C9.73864 5.53124 10.0284 5.43462 10.267 5.55395C10.3636 5.60226 10.4403 5.68181 10.4858 5.7812L11.554 8.01419L13.9972 8.39771C14.2614 8.44033 14.4403 8.69033 14.3977 8.9517ZM16.7159 3.28407C14.9943 1.56818 12.6222 0.502844 10 0.5C4.75285 0.5 0.5 4.75283 0.5 9.99998C0.5 15.2471 4.75285 19.5 10 19.5C15.2472 19.5 19.5 15.2471 19.5 9.99998C19.4972 7.37783 18.4318 5.00564 16.7159 3.28407ZM14.3977 8.9517C14.3807 9.05678 14.3295 9.15055 14.2528 9.22442L12.4631 10.9318L12.8494 13.375C12.892 13.6364 12.7159 13.8835 12.4545 13.9261C12.3494 13.9432 12.2386 13.9233 12.1449 13.8721L9.96591 12.696L7.76136 13.821C7.52556 13.9403 7.2358 13.8466 7.11364 13.6108C7.06534 13.517 7.04829 13.4091 7.06818 13.304L7.51705 10.8693L5.76421 9.11646C5.57955 8.92611 5.58239 8.62211 5.77273 8.43464C5.84659 8.36362 5.94317 8.31534 6.04546 8.30112L8.49999 7.97441L9.61931 5.76986C9.73864 5.53124 10.0284 5.43462 10.267 5.55395C10.3636 5.60226 10.4403 5.68181 10.4858 5.7812L11.554 8.01419L13.9972 8.39771C14.2614 8.44033 14.4403 8.69033 14.3977 8.9517ZM16.7159 3.28407C14.9943 1.56818 12.6222 0.502844 10 0.5C4.75285 0.5 0.5 4.75283 0.5 9.99998C0.5 15.2471 4.75285 19.5 10 19.5C15.2472 19.5 19.5 15.2471 19.5 9.99998C19.4972 7.37783 18.4318 5.00564 16.7159 3.28407ZM14.3977 8.9517C14.3807 9.05678 14.3295 9.15055 14.2528 9.22442L12.4631 10.9318L12.8494 13.375C12.892 13.6364 12.7159 13.8835 12.4545 13.9261C12.3494 13.9432 12.2386 13.9233 12.1449 13.8721L9.96591 12.696L7.76136 13.821C7.52556 13.9403 7.2358 13.8466 7.11364 13.6108C7.06534 13.517 7.04829 13.4091 7.06818 13.304L7.51705 10.8693L5.76421 9.11646C5.57955 8.92611 5.58239 8.62211 5.77273 8.43464C5.84659 8.36362 5.94317 8.31534 6.04546 8.30112L8.49999 7.97441L9.61931 5.76986C9.73864 5.53124 10.0284 5.43462 10.267 5.55395C10.3636 5.60226 10.4403 5.68181 10.4858 5.7812L11.554 8.01419L13.9972 8.39771C14.2614 8.44033 14.4403 8.69033 14.3977 8.9517Z" fill="#FF6701" style="fill:#FF6701;fill:color(display-p3 1.0000 0.4039 0.0039);fill-opacity:1;"/>
</g>
<defs>
<clipPath id="clip0_18336_19825">
<rect width="20" height="20" fill="white" style="fill:white;fill-opacity:1;"/>
</clipPath>
</defs>
</svg>
