<svg width="32" height="33" viewBox="0 0 32 33" fill="none" xmlns="http://www.w3.org/2000/svg">
<g clip-path="url(#clip0_18270_4268)">
<path d="M10.8722 20.2863C9.56188 20.2863 8.29148 20.3079 7.02261 20.2801C5.65696 20.2507 4.65231 19.5977 3.98562 18.3923C3.42645 17.3818 3.41263 16.3451 3.95182 15.364C6.75071 10.2762 10.1717 5.69903 14.8924 2.23443C15.6942 1.64642 16.5606 1.12959 17.4485 0.682396C19.275 -0.2383 20.9663 0.926883 20.8388 2.97717C20.6991 5.21005 20.5547 7.44139 20.4087 9.7176C22.0017 9.89555 23.544 10.0596 25.0863 10.2406C26.5027 10.4062 27.7009 10.8828 28.26 12.3791C28.6502 13.4236 28.3845 14.3427 27.8898 15.2557C25.8452 19.0267 23.3213 22.4542 20.3319 25.4994C18.1966 27.675 15.8909 29.682 13.6143 31.7106C12.8447 32.3961 11.8892 32.6081 10.9152 32.0325C9.95821 31.4661 9.66941 30.5656 9.79077 29.5195C10.1257 26.6058 10.4851 23.6952 10.8338 20.783C10.8492 20.6607 10.8538 20.5369 10.8738 20.2894L10.8722 20.2863Z" fill="#FFB306" style="fill:#FFB306;fill:color(display-p3 1.0000 0.7020 0.0235);fill-opacity:1;"/>
</g>
<defs>
<clipPath id="clip0_18270_4268">
<rect width="32" height="32" fill="white" style="fill:white;fill-opacity:1;" transform="translate(0 0.363647)"/>
</clipPath>
</defs>
</svg>
