<svg width="129" height="128" viewBox="0 0 129 128" fill="none" xmlns="http://www.w3.org/2000/svg">
<g clip-path="url(#clip0_20544_14383)">
<path d="M99.4671 77.9906C99.9473 77.9906 100.301 77.9906 100.657 77.9906C105.411 77.9906 110.162 77.9906 114.916 77.9906C115.156 77.9906 115.42 77.9383 115.631 78.0195C115.801 78.0845 116.012 78.312 116.012 78.4673C116.012 78.6334 115.817 78.8897 115.653 78.9475C115.411 79.0324 115.118 78.98 114.848 78.98C81.3964 78.98 47.9453 78.9818 14.496 78.9583C14.0392 78.9583 13.1473 79.3916 13.1744 78.442C13.1979 77.6079 14.0302 78.0123 14.4725 78.0087C19.6162 77.9762 24.7599 77.987 29.9036 77.9888C30.2593 77.9888 30.6131 77.9888 31.106 77.9888C31.106 77.5411 31.106 77.1926 31.106 76.8424C31.106 72.9625 31.0916 69.0808 31.1259 65.2009C31.1295 64.7297 31.2974 64.1881 31.5664 63.8035C32.962 61.8085 34.3775 59.8243 35.8724 57.9015C36.4266 57.1884 37.1362 56.5294 37.9053 56.0618C51.5165 47.7821 65.1475 39.5367 78.7731 31.284C80.9324 29.9769 83.0881 28.6625 85.2474 27.3536C85.446 27.2326 85.6645 27.1423 85.957 26.9961C86.6033 28.3989 87.2352 29.7512 87.8527 31.1107C91.6188 39.3976 95.3886 47.6828 99.133 55.9788C99.3461 56.4518 99.4544 57.0133 99.4562 57.5332C99.4779 63.9407 99.4707 70.3482 99.4707 76.7557C99.4707 77.1132 99.4707 77.4725 99.4707 77.987L99.4671 77.9906ZM73.0355 46.4822C72.9976 46.8523 72.9651 47.0274 72.9651 47.2025C72.9614 57.1884 72.9669 67.1725 72.947 77.1583C72.947 77.8679 73.2268 78.0069 73.8569 78.0015C76.594 77.9762 79.331 77.9654 82.0681 78.0069C82.8155 78.0177 82.9654 77.7361 82.9636 77.0626C82.9455 68.6114 82.9455 60.1601 82.9618 51.7089C82.9618 51.1438 82.7812 50.8531 82.2631 50.6274C80.2247 49.7428 78.2044 48.8148 76.1787 47.903C75.1749 47.4517 74.1711 46.9967 73.0373 46.484L73.0355 46.4822ZM98.1365 77.9906C98.1726 77.6675 98.2141 77.4634 98.2141 77.2594C98.2177 71.009 98.2087 64.7586 98.2303 58.5082C98.2321 57.9467 97.9848 57.7192 97.5334 57.517C95.394 56.5673 93.2654 55.5942 91.1296 54.6373C90.9021 54.5362 90.6547 54.4839 90.3225 54.3809C90.3225 54.872 90.3225 55.2295 90.3225 55.5888C90.3225 60.3064 90.3225 65.024 90.3225 69.7416C90.3225 72.1753 90.3478 74.6109 90.3063 77.0428C90.2936 77.7993 90.5428 78.0231 91.2848 78.0051C93.1462 77.9599 95.0112 77.9906 96.8745 77.9906C97.2879 77.9906 97.7013 77.9906 98.1383 77.9906H98.1365ZM71.5767 47.0527C70.3273 47.6033 69.2224 48.1305 68.0868 48.5747C67.4278 48.8328 67.2184 49.2012 67.2202 49.9161C67.2472 58.9108 67.2382 67.9055 67.2382 76.9002C67.2382 77.05 67.1804 77.2468 67.2527 77.3425C67.4332 77.5826 67.6589 77.9383 67.8918 77.9581C68.7584 78.0322 69.6394 77.9238 70.5042 78.0069C71.4593 78.099 71.6453 77.7126 71.6417 76.8297C71.6128 67.2645 71.6236 57.6975 71.6218 48.1323C71.6218 47.8164 71.5965 47.4986 71.5767 47.0527ZM84.2418 51.5446C84.2418 52.1151 84.2418 52.4708 84.2418 52.8247C84.2418 60.7884 84.2436 68.7522 84.2454 76.716C84.2454 76.9272 84.2581 77.1367 84.2454 77.3461C84.2183 77.8083 84.4332 77.9942 84.8882 77.9906C86.0599 77.9798 87.2316 77.9726 88.4033 77.996C88.954 78.0069 89.14 77.7776 89.1291 77.2414C89.1057 75.8891 89.1219 74.5368 89.1219 73.1846C89.1219 67.0244 89.1291 60.8625 89.1093 54.7023C89.1093 54.3268 89.0027 53.7382 88.7608 53.6136C87.3526 52.8933 85.8884 52.2812 84.2418 51.5428V51.5446ZM65.8769 77.9473V49.5839C64.8749 50.0226 63.9884 50.4613 63.0658 50.799C62.3852 51.0463 62.2119 51.4453 62.2137 52.144C62.239 60.4129 62.2299 68.6836 62.2317 76.9525C62.2317 77.2703 62.2642 77.588 62.2823 77.9455H65.8751L65.8769 77.9473ZM89.0389 52.3282C89.0822 51.9689 89.1219 51.7956 89.1219 51.6222C89.1255 46.8703 89.1291 42.1166 89.1111 37.3647C89.1111 36.991 88.9901 36.5938 88.8348 36.2471C87.8816 34.1059 86.9048 31.9755 85.9317 29.8451C85.827 29.6176 85.6934 29.4027 85.5742 29.1807C85.4767 29.1626 85.3792 29.1428 85.2817 29.1247C84.9369 29.8884 84.3032 30.6467 84.2924 31.414C84.2093 37.4279 84.2418 43.4454 84.2617 49.4611C84.2617 49.7446 84.3917 50.1851 84.5939 50.2844C86.0129 50.9849 87.4681 51.6168 89.0407 52.33L89.0389 52.3282ZM60.9625 51.7721C59.9948 52.1928 59.1426 52.617 58.2526 52.9348C57.5412 53.1894 57.3426 53.6028 57.3462 54.343C57.3733 61.8861 57.3625 69.4274 57.3625 76.9706C57.3625 77.2648 57.3625 77.5591 57.3625 77.9238H60.9625V51.7739V51.7721ZM82.8823 32.9685C82.8282 32.936 82.7722 32.9053 82.718 32.8728C79.7011 37.0036 76.6825 41.1345 73.597 45.361C76.7294 46.7746 79.7481 48.1359 82.8823 49.5514V32.9649V32.9685ZM56.2919 53.8483C55.353 54.2546 54.6291 54.6102 53.8744 54.8792C53.2371 55.1067 53.0421 55.4805 53.0457 56.1557C53.071 63.0958 53.0601 70.0359 53.0601 76.9742C53.0601 77.2685 53.0601 77.5627 53.0601 77.9924C53.8383 77.9924 54.5243 77.9383 55.1996 78.0051C56.0662 78.0917 56.3189 77.7866 56.3135 76.9092C56.2792 69.5791 56.2937 62.249 56.2919 54.919C56.2919 54.6265 56.2919 54.334 56.2919 53.8465V53.8483ZM52.1267 55.6754C51.3215 56.0329 50.7654 56.3398 50.1732 56.5276C49.4059 56.7695 49.2272 57.2371 49.2308 58.0063C49.2633 64.0834 49.2489 70.1605 49.2489 76.2376C49.2489 77.9942 49.2489 77.9491 51.0344 78.0105C51.9065 78.0412 52.1502 77.7722 52.1466 76.9002C52.1123 70.2218 52.1285 63.5417 52.1285 56.8634C52.1285 56.5439 52.1285 56.2261 52.1285 55.6754H52.1267ZM90.5283 39.9573C90.3984 40.1704 90.3442 40.2191 90.3442 40.2679C90.3352 44.3229 90.3189 48.3797 90.3532 52.4347C90.355 52.6911 90.6908 53.0576 90.9598 53.1839C93.0235 54.1517 95.1087 55.076 97.1904 56.004C97.3601 56.0799 97.5587 56.0925 97.8909 56.1665C95.412 50.7105 92.9964 45.3917 90.5283 39.9573ZM48.3335 57.3708C47.7233 57.6398 47.3333 57.8835 46.909 57.9828C45.9575 58.2067 45.777 58.7898 45.786 59.698C45.833 63.966 45.8077 68.2359 45.8077 72.5039C45.8077 74.0674 45.8239 75.6309 45.7987 77.1926C45.7896 77.7577 45.9575 78.052 46.5642 77.9924C46.8025 77.969 47.048 77.9617 47.2845 77.9942C48.1078 78.108 48.357 77.7848 48.3534 76.9471C48.3191 70.7851 48.3353 64.6214 48.3353 58.4594C48.3353 58.1669 48.3353 57.8727 48.3353 57.3689L48.3335 57.3708ZM44.9032 58.9036C44.1304 59.2394 43.4787 59.4705 42.8901 59.8081C42.6698 59.9345 42.4712 60.3136 42.4712 60.579C42.4478 66.1434 42.4532 71.7077 42.4586 77.2721C42.4586 77.4707 42.52 77.8372 42.5814 77.8444C43.2584 77.9148 43.9481 77.9888 44.6161 77.9094C44.7623 77.8913 44.9321 77.2775 44.9339 76.9381C44.9537 71.2546 44.9483 65.5692 44.9447 59.8857C44.9447 59.6185 44.9212 59.3513 44.9014 58.9036H44.9032ZM41.6173 60.3407C41.119 60.5592 40.7795 60.7559 40.413 60.8607C39.5771 61.099 39.3858 61.6316 39.393 62.4657C39.4327 67.3043 39.4417 72.1446 39.3894 76.9832C39.3785 77.9672 39.8154 78.0141 40.5773 78.0141C41.3302 78.0141 41.6985 77.9058 41.6895 76.9958C41.6444 71.7655 41.6678 66.5369 41.6642 61.3066C41.6642 61.0412 41.6389 60.7776 41.6173 60.3425V60.3407ZM68.6862 46.7115C68.7692 46.8053 68.8523 46.8992 68.9335 46.9931C70.033 46.3052 71.4431 45.8557 72.1833 44.8916C75.9494 39.9754 79.5441 34.9256 83.1947 29.9209C83.3355 29.7295 83.4366 29.5093 83.6442 29.15C80.9993 30.3993 80.0333 31.1685 78.5005 33.2555C76.186 36.406 73.8822 39.5655 71.5785 42.7251C70.6108 44.052 69.6503 45.3845 68.6862 46.7133V46.7115ZM38.6672 61.7905C36.8004 62.2075 36.6902 62.3393 36.6902 64.0635C36.6902 68.355 36.7101 72.6483 36.6722 76.9399C36.665 77.7649 36.8943 78.0231 37.7284 78.0213C38.5336 78.0213 38.7412 77.7649 38.7358 76.985C38.7033 72.2132 38.7214 67.4397 38.7177 62.6679C38.7177 62.379 38.6852 62.092 38.6672 61.7905ZM34.094 77.8733C36.0222 78.2127 36.0764 78.173 36.0764 76.4506C36.0764 72.2999 36.0764 68.1474 36.0746 63.9967C36.0746 63.6555 36.0421 63.3124 36.024 62.9495C34.1319 63.419 34.0958 63.4641 34.094 65.1955C34.094 69.1061 34.094 73.0167 34.094 76.9272C34.094 77.2486 34.094 77.57 34.094 77.8715V77.8733ZM63.7032 49.0351C63.7862 49.1271 63.8693 49.2192 63.9523 49.3113C64.7918 48.7299 65.8516 48.3147 66.4366 47.5401C69.8236 43.0591 73.0987 38.4949 76.408 33.956C76.5308 33.7881 76.6138 33.5895 76.8179 33.2176C75.2381 34.1221 73.8985 34.8804 72.9633 36.2887C71.4521 38.5635 69.7676 40.7246 68.1572 42.9327C66.6731 44.9674 65.1872 47.0021 63.7032 49.0351ZM33.4134 64.0166C32.211 64.4836 31.6097 65.2954 31.6097 66.4521C31.6097 69.9962 31.626 73.5402 31.5971 77.0843C31.5917 77.7902 31.8029 78.0159 32.5179 78.0177C33.2509 78.0177 33.5036 77.8209 33.4982 77.0572C33.4657 72.9733 33.4838 68.8876 33.482 64.8037C33.482 64.5726 33.4441 64.3415 33.4152 64.0184L33.4134 64.0166ZM58.879 51.2684C60.0526 51.0066 61.0383 50.5949 61.7533 49.5749C63.7898 46.6717 65.9221 43.8354 68.0127 40.9702C68.9588 39.6721 69.8958 38.3667 70.8364 37.0632C70.7552 36.9729 70.6722 36.8845 70.5909 36.7942C69.6647 37.5453 68.6266 38.1952 67.8376 39.0708C66.8356 40.1794 66.0304 41.4685 65.1457 42.6817C63.0568 45.5433 60.9697 48.405 58.8809 51.2666L58.879 51.2684ZM54.5298 53.2995C54.6038 53.3898 54.676 53.48 54.75 53.5685C55.4144 53.1009 56.2485 52.7597 56.7161 52.1422C59.2943 48.739 61.7858 45.2689 64.3044 41.8205C64.6474 41.3511 64.9778 40.8709 65.3136 40.396C65.2342 40.313 65.1547 40.2299 65.0771 40.1451C64.2701 40.8149 63.3403 41.3854 62.6813 42.178C61.4536 43.6549 60.3812 45.2617 59.2474 46.818C57.673 48.9773 56.1023 51.1366 54.5298 53.2959V53.2995ZM50.6065 55.1122C50.7113 55.2133 50.8142 55.3144 50.9189 55.4173C51.549 54.8702 52.2982 54.4134 52.7893 53.7617C55.1725 50.6004 57.4871 47.3867 59.8233 44.1875C60.0201 43.9166 60.1952 43.6314 60.3812 43.3533C60.3071 43.2847 60.2313 43.2179 60.1573 43.1493C59.4568 43.7271 58.6209 44.2019 58.0792 44.9042C56.1926 47.3506 54.407 49.8728 52.5853 52.3697C51.9209 53.2796 51.2673 54.1986 50.6083 55.1122H50.6065ZM55.8586 46.1157L55.5859 45.8593C54.9306 46.4894 54.1849 47.0509 53.6361 47.764C52.1141 49.7392 50.6715 51.7775 49.2019 53.7924C48.4671 54.7998 47.7413 55.8127 47.0119 56.8237C47.0823 56.9031 47.1545 56.9826 47.225 57.0638C47.763 56.6432 48.422 56.3128 48.8192 55.7856C51.0416 52.8319 53.1991 49.8294 55.3783 46.8414C55.5498 46.6067 55.6997 46.3594 55.8604 46.1175L55.8586 46.1157ZM51.8144 48.6108C51.7385 48.5331 51.6645 48.4573 51.5887 48.3797C50.9821 48.8689 50.2635 49.2716 49.7887 49.8674C48.5736 51.393 47.4669 53.0034 46.3168 54.5814C45.3888 55.8542 44.4608 57.127 43.531 58.3998C43.6014 58.4865 43.6737 58.5714 43.7441 58.658C44.2929 58.2554 44.9736 57.9539 45.3708 57.4339C47.2629 54.9497 49.0791 52.4076 50.9189 49.8854C51.224 49.4666 51.5165 49.0369 51.8144 48.6126V48.6108ZM47.9074 50.9669C47.8244 50.882 47.7413 50.7972 47.6565 50.7141C47.0751 51.2485 46.3999 51.7125 45.9305 52.3318C44.19 54.6319 42.5146 56.9808 40.8193 59.3152C40.6911 59.4903 40.599 59.6907 40.4907 59.8785C40.5557 59.9471 40.6207 60.0139 40.6857 60.0825C41.1334 59.7323 41.6516 59.4434 42.0109 59.0191C42.6698 58.241 43.2349 57.3852 43.838 56.5583C45.1956 54.6951 46.5515 52.8301 47.9074 50.9651V50.9669ZM44.4608 53.0431C43.2801 53.4259 38.1906 59.8604 37.797 61.3644C38.2899 61.052 38.7882 60.7307 39.1565 60.2956C39.7559 59.586 40.2704 58.8061 40.8193 58.0532C42.0343 56.3832 43.2476 54.7131 44.4626 53.0431H44.4608ZM35.0058 62.4765C36.8076 61.9114 37.3817 60.1981 38.418 58.9343C39.4634 57.6596 40.3679 56.2712 41.3338 54.9316C41.2381 54.8594 41.1442 54.789 41.0486 54.7168C38.4379 56.8165 37.0567 59.9164 35.0058 62.4765ZM38.3332 56.7641C36.9231 57.2281 33.3953 61.4763 32.2091 63.9877C32.8266 63.6158 33.4007 63.446 33.695 63.0615C35.2802 60.9925 36.795 58.8693 38.3332 56.7641Z" fill="black" style="fill:black;fill-opacity:1;"/>
<path d="M80.4919 101.917C75.9133 101.921 72.3584 98.3481 72.3457 93.728C72.3331 89.0844 75.9963 85.3146 80.4738 85.3598C85.0596 85.4049 88.6723 89.0573 88.6903 93.6648C88.7084 98.2813 85.0975 101.916 80.4901 101.919L80.4919 101.917ZM80.5207 88.0752C77.4732 88.0697 74.9853 90.5757 74.9726 93.6594C74.9618 96.6419 77.4966 99.2364 80.4467 99.2598C83.4564 99.2833 85.993 96.743 86.0147 93.6864C86.0364 90.5883 83.5828 88.0806 80.5189 88.0752H80.5207Z" fill="black" style="fill:black;fill-opacity:1;"/>
<path d="M66.3358 101.674C65.2363 101.674 64.3733 101.712 63.5193 101.649C63.29 101.633 63.021 101.353 62.8748 101.127C62.2375 100.145 61.6037 99.1559 61.0386 98.1322C60.7227 97.5617 60.3544 97.2945 59.6882 97.3595C59.0942 97.4172 58.4912 97.3721 57.769 97.3721V101.626H55.1258C55.1258 101.173 55.1258 100.763 55.1258 100.353C55.1258 98.8201 55.1619 97.2854 55.1096 95.7544C55.0843 94.9907 55.2721 94.6802 56.1026 94.7217C57.5126 94.7903 58.9281 94.7759 60.3399 94.7326C62.7069 94.6603 64.1657 92.7502 63.5536 90.5837C63.1979 89.3235 62.1129 88.4226 60.6956 88.3521C59.2567 88.2817 57.8105 88.316 56.368 88.3052C56.0105 88.3034 55.653 88.3052 55.1349 88.3052C55.1349 87.5325 55.1132 86.8247 55.1529 86.1188C55.1601 85.9798 55.3985 85.7379 55.5285 85.7397C57.6571 85.774 59.8164 85.6368 61.9071 85.9509C64.2848 86.3084 65.8068 87.9062 66.2654 90.3038C66.7258 92.7105 66.0162 94.7578 64.0555 96.3069C63.8479 96.4712 63.6331 96.6265 63.3586 96.8341C64.3155 98.3904 65.2543 99.9178 66.3358 101.676V101.674Z" fill="black" style="fill:black;fill-opacity:1;"/>
<path d="M48.4232 88.7935C47.7335 89.3026 47.0872 89.7811 46.3596 90.3173C45.0218 88.7375 43.4402 87.777 41.3152 88.1616C39.9521 88.4071 38.8544 89.0896 38.004 90.171C36.139 92.547 36.4604 95.9159 38.7298 97.8893C41.1112 99.9601 43.7525 99.5846 46.6683 96.7049C47.3273 97.2285 47.9953 97.7593 48.6507 98.281C46.9969 101.195 43.5901 102.542 40.1904 101.692C36.7727 100.838 34.1783 97.5264 34.1223 93.9498C34.0592 89.9941 36.39 86.7606 40.0803 85.6809C43.229 84.7601 46.746 86.0384 48.4232 88.7953V88.7935Z" fill="black" style="fill:black;fill-opacity:1;"/>
<path d="M0.710675 85.5455C3.31772 88.2573 5.92297 90.9709 8.5896 93.744C11.2111 90.9673 13.7622 88.2663 16.436 85.4336C16.492 85.7965 16.5534 86.0059 16.5534 86.2172C16.5588 91.0864 16.5462 95.9575 16.5696 100.827C16.5732 101.504 16.3656 101.748 15.6922 101.688C15.1343 101.639 14.5692 101.677 13.9156 101.677V92.3267C13.8488 92.2906 13.7802 92.2563 13.7134 92.2202C12.0308 93.9841 10.3481 95.7462 8.77917 97.391C7.21747 95.9069 5.68285 94.4806 4.18614 93.0164C3.11191 91.9657 2.06295 90.8878 1.05912 89.7721C0.77206 89.4525 0.564435 88.9632 0.530131 88.5353C0.452498 87.5821 0.506661 86.618 0.506661 85.6575C0.575267 85.6196 0.645679 85.5816 0.714286 85.5437L0.710675 85.5455Z" fill="black" style="fill:black;fill-opacity:1;"/>
<path d="M108.853 101.668C107.735 101.668 106.811 101.722 105.901 101.635C105.63 101.61 105.347 101.224 105.157 100.942C104.02 99.2486 102.908 97.537 101.705 95.7081C101.133 96.5549 100.62 97.3113 100.109 98.0696C99.6904 98.6925 99.1433 99.2666 98.8797 99.9509C98.0655 102.056 96.4027 101.787 94.5684 101.596C95.184 100.651 95.7401 99.7812 96.3124 98.9236C99.0783 94.7747 101.864 90.6403 104.603 86.4733C105.022 85.8378 105.468 85.5688 106.212 85.6428C106.825 85.7024 107.452 85.6554 108.248 85.6554C108.039 86.04 107.934 86.2711 107.797 86.4787C106.432 88.5297 105.078 90.5861 103.682 92.6154C103.355 93.092 103.373 93.4242 103.691 93.89C105.215 96.1234 106.706 98.3784 108.205 100.628C108.396 100.915 108.57 101.213 108.855 101.671L108.853 101.668Z" fill="black" style="fill:black;fill-opacity:1;"/>
<path d="M128.485 101.456C127.522 101.456 126.807 101.514 126.112 101.424C125.872 101.393 125.607 101.028 125.477 100.756C125.049 99.8619 124.662 98.9483 124.291 98.0294C124.085 97.522 123.772 97.2747 123.205 97.2855C122.064 97.3072 120.918 97.2314 119.782 97.3126C119.43 97.3379 118.975 97.6665 118.791 97.986C118.342 98.7624 117.955 99.5911 117.672 100.441C117.392 101.281 116.89 101.577 116.054 101.49C115.648 101.449 115.234 101.483 114.698 101.483C114.808 101.072 114.846 100.812 114.947 100.577C115.695 98.8382 116.43 97.0941 117.237 95.3826C117.356 95.128 117.822 94.9096 118.138 94.8951C119.457 94.8392 120.783 94.8771 122.104 94.8608C122.991 94.85 123.094 94.7056 122.734 93.9148C122.138 92.6022 121.613 91.2427 120.867 90.0168C119.914 88.4461 120.654 87.2617 121.544 85.7578C123.879 91.0387 126.128 96.1228 128.485 101.452V101.456Z" fill="black" style="fill:black;fill-opacity:1;"/>
<path d="M26.4481 101.539C26.3488 101.601 26.3254 101.626 26.2983 101.63C24.6782 101.828 23.8682 101.124 23.8682 99.5156C23.8682 96.5691 23.8682 93.6208 23.8682 90.6744C23.8682 90.3512 23.8682 90.028 23.8682 89.6543H26.4481V101.539Z" fill="black" style="fill:black;fill-opacity:1;"/>
<path d="M95.5977 85.9566C97.7714 85.4313 98.8186 85.9855 99.4649 87.9589C97.5222 88.6504 96.5419 88.1557 95.5977 85.9566Z" fill="black" style="fill:black;fill-opacity:1;"/>
<path d="M1.75485 101.555C0.575902 101.551 0.642703 101.548 0.556043 100.246C0.485631 99.2095 1.01823 99.1427 1.8036 99.168C3.01866 99.2059 3.01866 99.1789 3.02046 100.43C3.02046 101.555 3.01685 101.558 1.75666 101.555H1.75485Z" fill="black" style="fill:black;fill-opacity:1;"/>
<path d="M24.0082 86.463C23.8656 85.7463 24.1689 85.3816 25.068 85.4231C26.3481 85.4809 26.3986 85.4809 26.3986 86.6111C26.3986 87.7991 26.3643 87.8352 25.2251 87.8334C24.4102 87.8334 24.004 87.3772 24.0064 86.4648L24.0082 86.463Z" fill="black" style="fill:black;fill-opacity:1;"/>
</g>
<defs>
<clipPath id="clip0_20544_14383">
<rect width="128" height="74.9418" fill="white" style="fill:white;fill-opacity:1;" transform="translate(0.484375 27)"/>
</clipPath>
</defs>
</svg>
