	<svg width="52" height="52" viewBox="0 0 52 52" xmlns="http://www.w3.org/2000/svg">

					<circle cx="26" cy="26" r="24" fill="white" stroke="#3ea2f0" stroke-width="4" />
					<path
						d="M13 18.4167C13 14.8268 15.9102 11.9166 19.5 11.9166H33.7215V24.9167H19.5C15.9102 24.9167 13 22.0065 13 18.4167Z"
						fill="#FFB306" />
					<path
						d="M39 31.4167C39 35.0066 36.0898 37.9167 32.5 37.9167L18.5502 37.9167L18.5502 24.9167L32.5 24.9167C36.0898 24.9167 39 27.8269 39 31.4167Z"
						fill="#0DB25A" />
					<path
						d="M26 31.4167C26 35.0066 23.0898 37.9167 19.5 37.9167L13 37.9167L13 31.1035C13 27.6866 15.77 24.9167 19.1869 24.9167L19.5 24.9167C23.0898 24.9167 26 27.8269 26 31.4167Z"
						fill="#0067A0" />
					<path
						d="M26 18.4167C26 14.8268 28.9102 11.9166 32.5 11.9166L39 11.9166V18.7298C39 22.1467 36.23 24.9167 32.8131 24.9167H32.5C28.9102 24.9167 26 22.0065 26 18.4167Z"
						fill="#FF6701" />
				</svg>
