<svg width="128" height="129" viewBox="0 0 128 129" fill="none" xmlns="http://www.w3.org/2000/svg">
<path d="M71.6618 78.3697C76.5475 78.3752 81.4321 78.373 86.3178 78.3674C86.5921 78.3674 86.8743 78.3476 87.1397 78.2847C88.6757 77.9176 89.5154 76.536 89.3921 75.2284C89.2344 73.5458 87.976 72.4344 86.3234 72.4311C82.6227 72.4256 78.922 72.4311 75.2203 72.4311C75.0004 72.4311 74.7805 72.4311 74.4695 72.4311C74.4695 72.1136 74.4695 71.8776 74.4695 71.6428C74.4695 61.1715 74.4695 50.7003 74.4661 40.229C74.4661 38.5266 73.19 37.2543 71.5096 37.2598C69.8259 37.2653 68.5275 38.5586 68.5275 40.2268C68.5298 51.8922 68.532 63.5575 68.5331 75.2229C68.5331 77.1436 69.7381 78.3674 71.6607 78.3697H71.6618Z" fill="#102938" style="fill:#102938;fill:color(display-p3 0.0620 0.1626 0.2183);fill-opacity:1;"/>
<path d="M77.797 97.8104C77.797 96.5612 77.8058 95.312 77.7936 94.0638C77.7847 93.2038 77.2505 92.6713 76.3798 92.6184C75.5268 92.5665 74.8738 93.1002 74.776 93.9404C74.7505 94.1587 74.7549 94.3803 74.7538 94.5997C74.7383 96.8027 74.7849 99.0089 74.6894 101.209C74.6116 102.985 72.8324 104.143 71.1064 103.666C69.8503 103.32 69.0862 102.264 69.0718 100.793C69.0551 98.9935 69.0718 97.193 69.064 95.3936C69.0618 94.8621 69.0673 94.3263 69.0073 93.7992C68.944 93.2413 68.6031 92.8697 68.05 92.7121C66.8416 92.3659 65.9675 93.0208 65.9597 94.3075C65.9464 96.5303 65.9131 98.7531 65.9797 100.974C66.003 101.741 66.1752 102.555 66.4917 103.253C67.6668 105.847 70.5545 107.095 73.4455 106.408C75.7001 105.873 77.9447 103.71 77.8058 100.895C77.7548 99.8689 77.7981 98.8391 77.7959 97.8104H77.797Z" fill="#102938" style="fill:#102938;fill:color(display-p3 0.0620 0.1626 0.2183);fill-opacity:1;"/>
<path d="M38.6646 75.9881C39.0622 77.6309 40.4249 78.5703 42.0765 78.352C43.5336 78.1591 44.5799 76.8613 44.5787 75.2537C44.5776 70.7519 44.5787 66.25 44.5787 61.7493C44.5787 61.5354 44.5787 61.3215 44.5787 61.0447C44.8908 61.0447 45.1274 61.0447 45.3629 61.0447C49.9154 61.0447 54.469 61.0524 59.0215 61.0403C61.0751 61.0348 62.4812 59.1461 61.8981 57.2166C61.5216 55.9717 60.4043 55.1283 59.0849 55.1261C54.4946 55.1194 49.9054 55.1227 45.3151 55.1194C45.083 55.1194 44.852 55.1007 44.6143 55.0897V43.1818H45.2973C49.7943 43.1818 54.2924 43.1818 58.7894 43.1795C59.066 43.1795 59.3492 43.1851 59.6168 43.1299C61.194 42.8047 62.1547 41.4761 62.0047 39.853C61.8726 38.4098 60.5887 37.2675 59.0393 37.2653C53.2651 37.2565 47.4897 37.2587 41.7155 37.2631C39.8541 37.2642 38.6024 38.5255 38.6024 40.3878C38.6024 52.0366 38.6024 63.6854 38.6046 75.3342C38.6046 75.5526 38.6124 75.7775 38.6635 75.9881H38.6646Z" fill="#102938" style="fill:#102938;fill:color(display-p3 0.0620 0.1626 0.2183);fill-opacity:1;"/>
<path d="M60.552 94.0771C60.301 93.3968 59.8634 92.8576 59.1404 92.625C57.8965 92.2258 56.7969 92.7915 56.2894 94.1146C55.4575 96.2867 54.6445 98.4654 53.8337 100.644C53.3362 101.982 52.8142 103.312 52.3832 104.671C52.1156 105.513 52.5454 106.165 53.3662 106.404C54.1914 106.645 54.9477 106.292 55.2531 105.501C55.4175 105.074 55.5641 104.64 55.6852 104.199C55.7807 103.85 55.9362 103.697 56.336 103.706C57.741 103.735 59.147 103.73 60.552 103.708C60.9207 103.703 61.0718 103.837 61.1684 104.17C61.3195 104.696 61.4838 105.224 61.7082 105.723C61.9714 106.309 62.7289 106.595 63.413 106.433C64.0716 106.276 64.4648 105.794 64.4715 105.001C64.4504 104.9 64.4315 104.657 64.3504 104.438C63.0898 100.981 61.8259 97.526 60.552 94.0749V94.0771ZM56.7825 100.87C57.3056 99.3849 57.8176 97.935 58.3285 96.484C58.374 96.4906 58.4207 96.4962 58.4662 96.5028C58.9838 97.9394 59.5013 99.3772 60.0389 100.87H56.7825Z" fill="#102938" style="fill:#102938;fill:color(display-p3 0.0620 0.1626 0.2183);fill-opacity:1;"/>
<path d="M87.0353 98.4411C86.7454 98.3253 86.45 98.2206 86.1534 98.1225C85.3682 97.8623 84.5741 97.6274 83.7989 97.3418C83.4168 97.2007 83.0237 96.9725 83.0459 96.4928C83.0703 95.9691 83.4412 95.6858 83.9233 95.5523C84.1332 95.4939 84.3686 95.4156 84.5708 95.4564C85.2705 95.5975 85.9613 95.7872 86.6555 95.957C87.454 96.1521 88.1248 95.8556 88.408 95.1852C88.729 94.4277 88.5313 93.7904 87.8194 93.3317C86.0279 92.1773 82.8371 92.1465 80.989 93.8213C79.3052 95.3473 78.8543 98.913 82.0074 100.073C82.4217 100.225 82.8382 100.371 83.258 100.504C83.9577 100.727 84.6741 100.905 85.3582 101.167C85.8391 101.351 86.2056 101.686 86.1668 102.287C86.1257 102.921 85.7647 103.343 85.1961 103.489C84.7118 103.612 84.1665 103.649 83.6756 103.566C82.8437 103.426 82.043 103.109 81.2122 102.964C80.3859 102.819 79.8261 103.273 79.6595 104.08C79.4996 104.859 79.8628 105.463 80.8079 105.923C81.8941 106.451 83.0681 106.565 84.2554 106.589C85.5481 106.626 86.7521 106.343 87.8072 105.576C89.1488 104.6 89.6808 103.249 89.542 101.639C89.4054 100.051 88.4969 99.0222 87.0364 98.44L87.0353 98.4411Z" fill="#102938" style="fill:#102938;fill:color(display-p3 0.0620 0.1626 0.2183);fill-opacity:1;"/>
<path d="M20.5044 94.6339C20.5044 101.763 20.5067 108.893 20.5044 116.021C20.5044 118.76 22.839 120.729 25.2658 120.727C51.0671 120.701 76.8685 120.711 102.669 120.708C103.035 120.708 103.415 120.706 103.767 120.62C106.102 120.05 107.493 118.263 107.493 115.867C107.494 89.6292 107.493 63.3899 107.5 37.1517C107.5 35.1285 106.635 33.6543 104.876 32.641C99.9554 29.8052 95.0486 26.9462 90.1351 24.0982C82.3028 19.5578 74.4695 15.0206 66.6383 10.4791C64.9024 9.47242 63.1776 9.47793 61.4427 10.4824C48.677 17.8697 35.9113 25.2592 23.1389 32.6366C21.3608 33.6631 20.4978 35.1516 20.5 37.1958C20.5111 50.278 20.5056 63.3613 20.5044 76.4434C20.5044 82.5066 20.5044 88.5708 20.5044 94.6339ZM28.4378 37.8805C40.1328 31.684 51.8257 25.4797 63.5074 19.2601C63.9472 19.0263 64.2449 19.1388 64.6136 19.3339C72.2149 23.3749 79.8194 27.4104 87.424 31.4458C91.4956 33.6058 95.565 35.768 99.6422 37.918C99.9487 38.0801 100.04 38.273 100.04 38.6082C100.032 63.3414 100.032 88.0746 100.032 112.808V113.315H27.9324C27.9324 113.085 27.9324 112.872 27.9324 112.659C27.9324 88.0184 27.9358 63.3767 27.9247 38.7361C27.9247 38.3072 28.0635 38.0801 28.4367 37.8816L28.4378 37.8805Z" fill="#102938" style="fill:#102938;fill:color(display-p3 0.0620 0.1626 0.2183);fill-opacity:1;"/>
<path d="M40.1562 87.0591C48.095 87.0602 56.0339 87.0591 63.9728 87.0591C69.2284 87.0591 74.4839 87.0591 79.7395 87.0591C82.4783 87.0591 85.2172 87.0613 87.956 87.0569C88.769 87.0558 89.3154 86.6677 89.5054 85.9819C89.793 84.9444 89.0211 84.145 87.7261 84.145C72.1071 84.145 56.4882 84.145 40.8692 84.145C40.5549 84.145 40.2384 84.1262 39.9263 84.1571C39.0255 84.2442 38.4713 84.8407 38.4991 85.6666C38.5268 86.52 39.161 87.058 40.1562 87.058V87.0591Z" fill="#102938" style="fill:#102938;fill:color(display-p3 0.0620 0.1626 0.2183);fill-opacity:1;"/>
<path d="M39.6619 106.439C40.7126 106.661 41.5578 106.009 41.57 104.942C41.5845 103.623 41.5733 102.305 41.5733 100.948H47.382C47.382 101.182 47.382 101.381 47.382 101.578C47.382 102.681 47.3765 103.783 47.3876 104.886C47.3976 105.888 47.9995 106.481 48.9702 106.47C49.9076 106.459 50.4574 105.874 50.4574 104.869C50.4596 101.305 50.4596 97.7399 50.4574 94.1752C50.4574 93.9933 50.4507 93.8047 50.4007 93.6327C50.1953 92.9304 49.5278 92.5279 48.7592 92.6261C47.9118 92.7341 47.4076 93.2446 47.392 94.0848C47.3687 95.2601 47.3698 96.4366 47.3898 97.612C47.3964 98.0034 47.2609 98.118 46.8778 98.1136C45.2862 98.0971 43.6936 98.0949 42.102 98.1136C41.6933 98.118 41.5556 97.9957 41.5645 97.58C41.59 96.4046 41.5889 95.2282 41.5645 94.0528C41.5478 93.1939 40.9303 92.6316 40.0573 92.6184C39.161 92.604 38.5069 93.1752 38.5035 94.0561C38.488 97.7123 38.4902 101.37 38.5002 105.026C38.5024 105.772 38.96 106.294 39.6575 106.44L39.6619 106.439Z" fill="#102938" style="fill:#102938;fill:color(display-p3 0.0620 0.1626 0.2183);fill-opacity:1;"/>
</svg>
