<svg width="129" height="75" viewBox="0 0 129 75" fill="none" xmlns="http://www.w3.org/2000/svg">
<g clip-path="url(#clip0_21782_4516)">
<path d="M99.4671 50.9906C99.9473 50.9906 100.301 50.9906 100.657 50.9906C105.411 50.9906 110.162 50.9906 114.916 50.9906C115.156 50.9906 115.42 50.9383 115.631 51.0195C115.801 51.0845 116.012 51.312 116.012 51.4673C116.012 51.6334 115.817 51.8897 115.653 51.9475C115.411 52.0324 115.118 51.98 114.848 51.98C81.3964 51.98 47.9453 51.9818 14.496 51.9583C14.0392 51.9583 13.1473 52.3916 13.1744 51.442C13.1979 50.6079 14.0302 51.0123 14.4725 51.0087C19.6162 50.9762 24.7599 50.987 29.9036 50.9888C30.2593 50.9888 30.6131 50.9888 31.106 50.9888C31.106 50.5411 31.106 50.1926 31.106 49.8424C31.106 45.9625 31.0916 42.0808 31.1259 38.2009C31.1295 37.7297 31.2974 37.1881 31.5664 36.8035C32.962 34.8085 34.3775 32.8243 35.8724 30.9015C36.4266 30.1884 37.1362 29.5294 37.9053 29.0618C51.5165 20.7821 65.1475 12.5367 78.7731 4.284C80.9324 2.97687 83.0881 1.66251 85.2474 0.35357C85.446 0.232606 85.6645 0.142334 85.957 -0.00390625C86.6033 1.39892 87.2352 2.75119 87.8527 4.11068C91.6188 12.3976 95.3886 20.6828 99.133 28.9788C99.3461 29.4518 99.4544 30.0133 99.4562 30.5332C99.4779 36.9407 99.4707 43.3482 99.4707 49.7557C99.4707 50.1132 99.4707 50.4725 99.4707 50.987L99.4671 50.9906ZM73.0355 19.4822C72.9976 19.8523 72.9651 20.0274 72.9651 20.2025C72.9614 30.1884 72.9669 40.1725 72.947 50.1583C72.947 50.8679 73.2268 51.0069 73.8569 51.0015C76.594 50.9762 79.331 50.9654 82.0681 51.0069C82.8155 51.0177 82.9654 50.7361 82.9636 50.0626C82.9455 41.6114 82.9455 33.1601 82.9618 24.7089C82.9618 24.1438 82.7812 23.8531 82.2631 23.6274C80.2247 22.7428 78.2044 21.8148 76.1787 20.903C75.1749 20.4517 74.1711 19.9967 73.0373 19.484L73.0355 19.4822ZM98.1365 50.9906C98.1726 50.6675 98.2141 50.4634 98.2141 50.2594C98.2177 44.009 98.2087 37.7586 98.2303 31.5082C98.2321 30.9467 97.9848 30.7192 97.5334 30.517C95.394 29.5673 93.2654 28.5942 91.1296 27.6373C90.9021 27.5362 90.6547 27.4839 90.3225 27.3809C90.3225 27.872 90.3225 28.2295 90.3225 28.5888C90.3225 33.3064 90.3225 38.024 90.3225 42.7416C90.3225 45.1753 90.3478 47.6109 90.3063 50.0428C90.2936 50.7993 90.5428 51.0231 91.2848 51.0051C93.1462 50.9599 95.0112 50.9906 96.8745 50.9906C97.2879 50.9906 97.7013 50.9906 98.1383 50.9906H98.1365ZM71.5767 20.0527C70.3273 20.6033 69.2224 21.1305 68.0868 21.5747C67.4278 21.8328 67.2184 22.2012 67.2202 22.9161C67.2472 31.9108 67.2382 40.9055 67.2382 49.9002C67.2382 50.05 67.1804 50.2468 67.2527 50.3425C67.4332 50.5826 67.6589 50.9383 67.8918 50.9581C68.7584 51.0322 69.6394 50.9238 70.5042 51.0069C71.4593 51.099 71.6453 50.7126 71.6417 49.8297C71.6128 40.2645 71.6236 30.6975 71.6218 21.1323C71.6218 20.8164 71.5965 20.4986 71.5767 20.0527ZM84.2418 24.5446C84.2418 25.1151 84.2418 25.4708 84.2418 25.8247C84.2418 33.7884 84.2436 41.7522 84.2454 49.716C84.2454 49.9272 84.2581 50.1367 84.2454 50.3461C84.2183 50.8083 84.4332 50.9942 84.8882 50.9906C86.0599 50.9798 87.2316 50.9726 88.4033 50.996C88.954 51.0069 89.14 50.7776 89.1291 50.2414C89.1057 48.8891 89.1219 47.5368 89.1219 46.1846C89.1219 40.0244 89.1291 33.8625 89.1093 27.7023C89.1093 27.3268 89.0027 26.7382 88.7608 26.6136C87.3526 25.8933 85.8884 25.2812 84.2418 24.5428V24.5446ZM65.8769 50.9473V22.5839C64.8749 23.0226 63.9884 23.4613 63.0658 23.799C62.3852 24.0463 62.2119 24.4453 62.2137 25.144C62.239 33.4129 62.2299 41.6836 62.2317 49.9525C62.2317 50.2703 62.2642 50.588 62.2823 50.9455H65.8751L65.8769 50.9473ZM89.0389 25.3282C89.0822 24.9689 89.1219 24.7956 89.1219 24.6222C89.1255 19.8703 89.1291 15.1166 89.1111 10.3647C89.1111 9.99099 88.9901 9.59379 88.8348 9.24715C87.8816 7.1059 86.9048 4.97549 85.9317 2.84507C85.827 2.61759 85.6934 2.40274 85.5742 2.18067C85.4767 2.16262 85.3792 2.14276 85.2817 2.1247C84.9369 2.8884 84.3032 3.64669 84.2924 4.414C84.2093 10.4279 84.2418 16.4454 84.2617 22.4611C84.2617 22.7446 84.3917 23.1851 84.5939 23.2844C86.0129 23.9849 87.4681 24.6168 89.0407 25.33L89.0389 25.3282ZM60.9625 24.7721C59.9948 25.1928 59.1426 25.617 58.2526 25.9348C57.5412 26.1894 57.3426 26.6028 57.3462 27.343C57.3733 34.8861 57.3625 42.4274 57.3625 49.9706C57.3625 50.2648 57.3625 50.5591 57.3625 50.9238H60.9625V24.7739V24.7721ZM82.8823 5.96848C82.8282 5.93598 82.7722 5.90529 82.718 5.87279C79.7011 10.0036 76.6825 14.1345 73.597 18.361C76.7294 19.7746 79.7481 21.1359 82.8823 22.5514V5.96487V5.96848ZM56.2919 26.8483C55.353 27.2546 54.6291 27.6102 53.8744 27.8792C53.2371 28.1067 53.0421 28.4805 53.0457 29.1557C53.071 36.0958 53.0601 43.0359 53.0601 49.9742C53.0601 50.2685 53.0601 50.5627 53.0601 50.9924C53.8383 50.9924 54.5243 50.9383 55.1996 51.0051C56.0662 51.0917 56.3189 50.7866 56.3135 49.9092C56.2792 42.5791 56.2937 35.249 56.2919 27.919C56.2919 27.6265 56.2919 27.334 56.2919 26.8465V26.8483ZM52.1267 28.6754C51.3215 29.0329 50.7654 29.3398 50.1732 29.5276C49.4059 29.7695 49.2272 30.2371 49.2308 31.0063C49.2633 37.0834 49.2489 43.1605 49.2489 49.2376C49.2489 50.9942 49.2489 50.9491 51.0344 51.0105C51.9065 51.0412 52.1502 50.7722 52.1466 49.9002C52.1123 43.2218 52.1285 36.5417 52.1285 29.8634C52.1285 29.5439 52.1285 29.2261 52.1285 28.6754H52.1267ZM90.5283 12.9573C90.3984 13.1704 90.3442 13.2191 90.3442 13.2679C90.3352 17.3229 90.3189 21.3797 90.3532 25.4347C90.355 25.6911 90.6908 26.0576 90.9598 26.1839C93.0235 27.1517 95.1087 28.076 97.1904 29.004C97.3601 29.0799 97.5587 29.0925 97.8909 29.1665C95.412 23.7105 92.9964 18.3917 90.5283 12.9573ZM48.3335 30.3708C47.7233 30.6398 47.3333 30.8835 46.909 30.9828C45.9575 31.2067 45.777 31.7898 45.786 32.698C45.833 36.966 45.8077 41.2359 45.8077 45.5039C45.8077 47.0674 45.8239 48.6309 45.7987 50.1926C45.7896 50.7577 45.9575 51.052 46.5642 50.9924C46.8025 50.969 47.048 50.9617 47.2845 50.9942C48.1078 51.108 48.357 50.7848 48.3534 49.9471C48.3191 43.7851 48.3353 37.6214 48.3353 31.4594C48.3353 31.1669 48.3353 30.8727 48.3353 30.3689L48.3335 30.3708ZM44.9032 31.9036C44.1304 32.2394 43.4787 32.4705 42.8901 32.8081C42.6698 32.9345 42.4712 33.3136 42.4712 33.579C42.4478 39.1434 42.4532 44.7077 42.4586 50.2721C42.4586 50.4707 42.52 50.8372 42.5814 50.8444C43.2584 50.9148 43.9481 50.9888 44.6161 50.9094C44.7623 50.8913 44.9321 50.2775 44.9339 49.9381C44.9537 44.2546 44.9483 38.5692 44.9447 32.8857C44.9447 32.6185 44.9212 32.3513 44.9014 31.9036H44.9032ZM41.6173 33.3407C41.119 33.5592 40.7795 33.7559 40.413 33.8607C39.5771 34.099 39.3858 34.6316 39.393 35.4657C39.4327 40.3043 39.4417 45.1446 39.3894 49.9832C39.3785 50.9672 39.8154 51.0141 40.5773 51.0141C41.3302 51.0141 41.6985 50.9058 41.6895 49.9958C41.6444 44.7655 41.6678 39.5369 41.6642 34.3066C41.6642 34.0412 41.6389 33.7776 41.6173 33.3425V33.3407ZM68.6862 19.7115C68.7692 19.8053 68.8523 19.8992 68.9335 19.9931C70.033 19.3052 71.4431 18.8557 72.1833 17.8916C75.9494 12.9754 79.5441 7.92557 83.1947 2.9209C83.3355 2.72952 83.4366 2.50926 83.6442 2.14998C80.9993 3.39934 80.0333 4.16846 78.5005 6.25554C76.186 9.40603 73.8822 12.5655 71.5785 15.7251C70.6108 17.052 69.6503 18.3845 68.6862 19.7133V19.7115ZM38.6672 34.7905C36.8004 35.2075 36.6902 35.3393 36.6902 37.0635C36.6902 41.355 36.7101 45.6483 36.6722 49.9399C36.665 50.7649 36.8943 51.0231 37.7284 51.0213C38.5336 51.0213 38.7412 50.7649 38.7358 49.985C38.7033 45.2132 38.7214 40.4397 38.7177 35.6679C38.7177 35.379 38.6852 35.092 38.6672 34.7905ZM34.094 50.8733C36.0222 51.2127 36.0764 51.173 36.0764 49.4506C36.0764 45.2999 36.0764 41.1474 36.0746 36.9967C36.0746 36.6555 36.0421 36.3124 36.024 35.9495C34.1319 36.419 34.0958 36.4641 34.094 38.1955C34.094 42.1061 34.094 46.0167 34.094 49.9272C34.094 50.2486 34.094 50.57 34.094 50.8715V50.8733ZM63.7032 22.0351C63.7862 22.1271 63.8693 22.2192 63.9523 22.3113C64.7918 21.7299 65.8516 21.3147 66.4366 20.5401C69.8236 16.0591 73.0987 11.4949 76.408 6.95605C76.5308 6.78814 76.6138 6.58955 76.8179 6.21763C75.2381 7.12215 73.8985 7.88043 72.9633 9.28867C71.4521 11.5635 69.7676 13.7246 68.1572 15.9327C66.6731 17.9674 65.1872 20.0021 63.7032 22.0351ZM33.4134 37.0166C32.211 37.4836 31.6097 38.2954 31.6097 39.4521C31.6097 42.9962 31.626 46.5402 31.5971 50.0843C31.5917 50.7902 31.8029 51.0159 32.5179 51.0177C33.2509 51.0177 33.5036 50.8209 33.4982 50.0572C33.4657 45.9733 33.4838 41.8876 33.482 37.8037C33.482 37.5726 33.4441 37.3415 33.4152 37.0184L33.4134 37.0166ZM58.879 24.2684C60.0526 24.0066 61.0383 23.5949 61.7533 22.5749C63.7898 19.6717 65.9221 16.8354 68.0127 13.9702C68.9588 12.6721 69.8958 11.3667 70.8364 10.0632C70.7552 9.97293 70.6722 9.88447 70.5909 9.7942C69.6647 10.5453 68.6266 11.1952 67.8376 12.0708C66.8356 13.1794 66.0304 14.4685 65.1457 15.6817C63.0568 18.5433 60.9697 21.405 58.8809 24.2666L58.879 24.2684ZM54.5298 26.2995C54.6038 26.3898 54.676 26.48 54.75 26.5685C55.4144 26.1009 56.2485 25.7597 56.7161 25.1422C59.2943 21.739 61.7858 18.2689 64.3044 14.8205C64.6474 14.3511 64.9778 13.8709 65.3136 13.396C65.2342 13.313 65.1547 13.2299 65.0771 13.1451C64.2701 13.8149 63.3403 14.3854 62.6813 15.178C61.4536 16.6549 60.3812 18.2617 59.2474 19.818C57.673 21.9773 56.1023 24.1366 54.5298 26.2959V26.2995ZM50.6065 28.1122C50.7113 28.2133 50.8142 28.3144 50.9189 28.4173C51.549 27.8702 52.2982 27.4134 52.7893 26.7617C55.1725 23.6004 57.4871 20.3867 59.8233 17.1875C60.0201 16.9166 60.1952 16.6314 60.3812 16.3533C60.3071 16.2847 60.2313 16.2179 60.1573 16.1493C59.4568 16.7271 58.6209 17.2019 58.0792 17.9042C56.1926 20.3506 54.407 22.8728 52.5853 25.3697C51.9209 26.2796 51.2673 27.1986 50.6083 28.1122H50.6065ZM55.8586 19.1157L55.5859 18.8593C54.9306 19.4894 54.1849 20.0509 53.6361 20.764C52.1141 22.7392 50.6715 24.7775 49.2019 26.7924C48.4671 27.7998 47.7413 28.8127 47.0119 29.8237C47.0823 29.9031 47.1545 29.9826 47.225 30.0638C47.763 29.6432 48.422 29.3128 48.8192 28.7856C51.0416 25.8319 53.1991 22.8294 55.3783 19.8414C55.5498 19.6067 55.6997 19.3594 55.8604 19.1175L55.8586 19.1157ZM51.8144 21.6108C51.7385 21.5331 51.6645 21.4573 51.5887 21.3797C50.9821 21.8689 50.2635 22.2716 49.7887 22.8674C48.5736 24.393 47.4669 26.0034 46.3168 27.5814C45.3888 28.8542 44.4608 30.127 43.531 31.3998C43.6014 31.4865 43.6737 31.5714 43.7441 31.658C44.2929 31.2554 44.9736 30.9539 45.3708 30.4339C47.2629 27.9497 49.0791 25.4076 50.9189 22.8854C51.224 22.4666 51.5165 22.0369 51.8144 21.6126V21.6108ZM47.9074 23.9669C47.8244 23.882 47.7413 23.7972 47.6565 23.7141C47.0751 24.2485 46.3999 24.7125 45.9305 25.3318C44.19 27.6319 42.5146 29.9808 40.8193 32.3152C40.6911 32.4903 40.599 32.6907 40.4907 32.8785C40.5557 32.9471 40.6207 33.0139 40.6857 33.0825C41.1334 32.7323 41.6516 32.4434 42.0109 32.0191C42.6698 31.241 43.2349 30.3852 43.838 29.5583C45.1956 27.6951 46.5515 25.8301 47.9074 23.9651V23.9669ZM44.4608 26.0431C43.2801 26.4259 38.1906 32.8604 37.797 34.3644C38.2899 34.052 38.7882 33.7307 39.1565 33.2956C39.7559 32.586 40.2704 31.8061 40.8193 31.0532C42.0343 29.3832 43.2476 27.7131 44.4626 26.0431H44.4608ZM35.0058 35.4765C36.8076 34.9114 37.3817 33.1981 38.418 31.9343C39.4634 30.6596 40.3679 29.2712 41.3338 27.9316C41.2381 27.8594 41.1442 27.789 41.0486 27.7168C38.4379 29.8165 37.0567 32.9164 35.0058 35.4765ZM38.3332 29.7641C36.9231 30.2281 33.3953 34.4763 32.2091 36.9877C32.8266 36.6158 33.4007 36.446 33.695 36.0615C35.2802 33.9925 36.795 31.8693 38.3332 29.7641Z" fill="black" style="fill:black;fill-opacity:1;"/>
<path d="M80.4919 74.9174C75.9133 74.921 72.3584 71.3481 72.3457 66.728C72.3331 62.0844 75.9963 58.3146 80.4738 58.3598C85.0596 58.4049 88.6723 62.0573 88.6903 66.6648C88.7084 71.2813 85.0975 74.9156 80.4901 74.9192L80.4919 74.9174ZM80.5207 61.0752C77.4732 61.0697 74.9853 63.5757 74.9726 66.6594C74.9618 69.6419 77.4966 72.2364 80.4467 72.2598C83.4564 72.2833 85.993 69.743 86.0147 66.6864C86.0364 63.5883 83.5828 61.0806 80.5189 61.0752H80.5207Z" fill="black" style="fill:black;fill-opacity:1;"/>
<path d="M66.3358 74.6745C65.2363 74.6745 64.3733 74.7124 63.5193 74.6492C63.29 74.6329 63.021 74.3531 62.8748 74.1274C62.2375 73.1453 61.6037 72.1559 61.0386 71.1322C60.7227 70.5617 60.3544 70.2945 59.6882 70.3595C59.0942 70.4172 58.4912 70.3721 57.769 70.3721V74.6257H55.1258C55.1258 74.1725 55.1258 73.7627 55.1258 73.3529C55.1258 71.8201 55.1619 70.2854 55.1096 68.7544C55.0843 67.9907 55.2721 67.6802 56.1026 67.7217C57.5126 67.7903 58.9281 67.7759 60.3399 67.7326C62.7069 67.6603 64.1657 65.7502 63.5536 63.5837C63.1979 62.3235 62.1129 61.4226 60.6956 61.3521C59.2567 61.2817 57.8105 61.316 56.368 61.3052C56.0105 61.3034 55.653 61.3052 55.1349 61.3052C55.1349 60.5325 55.1132 59.8247 55.1529 59.1188C55.1601 58.9798 55.3985 58.7379 55.5285 58.7397C57.6571 58.774 59.8164 58.6368 61.9071 58.9509C64.2848 59.3084 65.8068 60.9062 66.2654 63.3038C66.7258 65.7105 66.0162 67.7578 64.0555 69.3069C63.8479 69.4712 63.6331 69.6265 63.3586 69.8341C64.3155 71.3904 65.2543 72.9178 66.3358 74.6763V74.6745Z" fill="black" style="fill:black;fill-opacity:1;"/>
<path d="M48.4232 61.7935C47.7335 62.3026 47.0872 62.7811 46.3596 63.3173C45.0218 61.7375 43.4402 60.777 41.3152 61.1616C39.9521 61.4071 38.8544 62.0896 38.004 63.171C36.139 65.547 36.4604 68.9159 38.7298 70.8893C41.1112 72.9601 43.7525 72.5846 46.6683 69.7049C47.3273 70.2285 47.9953 70.7593 48.6507 71.281C46.9969 74.195 43.5901 75.5419 40.1904 74.6915C36.7727 73.8375 34.1783 70.5264 34.1223 66.9498C34.0592 62.9941 36.39 59.7606 40.0803 58.6809C43.229 57.7601 46.746 59.0384 48.4232 61.7953V61.7935Z" fill="black" style="fill:black;fill-opacity:1;"/>
<path d="M0.710675 58.5455C3.31772 61.2573 5.92297 63.9709 8.5896 66.744C11.2111 63.9673 13.7622 61.2663 16.436 58.4336C16.492 58.7965 16.5534 59.0059 16.5534 59.2172C16.5588 64.0864 16.5462 68.9575 16.5696 73.8267C16.5732 74.5038 16.3656 74.7475 15.6922 74.6879C15.1343 74.6392 14.5692 74.6771 13.9156 74.6771V65.3267C13.8488 65.2906 13.7802 65.2563 13.7134 65.2202C12.0308 66.9841 10.3481 68.7462 8.77917 70.391C7.21747 68.9069 5.68285 67.4806 4.18614 66.0164C3.11191 64.9657 2.06295 63.8878 1.05912 62.7721C0.77206 62.4525 0.564435 61.9632 0.530131 61.5353C0.452498 60.5821 0.506661 59.618 0.506661 58.6575C0.575267 58.6196 0.645679 58.5816 0.714286 58.5437L0.710675 58.5455Z" fill="black" style="fill:black;fill-opacity:1;"/>
<path d="M108.853 74.6679C107.735 74.6679 106.811 74.722 105.901 74.6354C105.63 74.6101 105.347 74.2237 105.157 73.9421C104.02 72.2486 102.908 70.537 101.705 68.7081C101.133 69.5549 100.62 70.3113 100.109 71.0696C99.6904 71.6925 99.1433 72.2666 98.8797 72.9509C98.0655 75.056 96.4027 74.787 94.5684 74.5956C95.184 73.6514 95.7401 72.7812 96.3124 71.9236C99.0783 67.7747 101.864 63.6403 104.603 59.4733C105.022 58.8378 105.468 58.5688 106.212 58.6428C106.825 58.7024 107.452 58.6554 108.248 58.6554C108.039 59.04 107.934 59.2711 107.797 59.4787C106.432 61.5297 105.078 63.5861 103.682 65.6154C103.355 66.092 103.373 66.4242 103.691 66.89C105.215 69.1234 106.706 71.3784 108.205 73.6279C108.396 73.915 108.57 74.2129 108.855 74.6715L108.853 74.6679Z" fill="black" style="fill:black;fill-opacity:1;"/>
<path d="M128.485 74.4561C127.522 74.4561 126.807 74.5139 126.112 74.4236C125.872 74.3929 125.607 74.0282 125.477 73.7556C125.049 72.8619 124.662 71.9483 124.291 71.0294C124.085 70.522 123.772 70.2747 123.205 70.2855C122.064 70.3072 120.918 70.2314 119.782 70.3126C119.43 70.3379 118.975 70.6665 118.791 70.986C118.342 71.7624 117.955 72.5911 117.672 73.4414C117.392 74.281 116.89 74.577 116.054 74.4904C115.648 74.4489 115.234 74.4832 114.698 74.4832C114.808 74.0715 114.846 73.8115 114.947 73.5768C115.695 71.8382 116.43 70.0941 117.237 68.3826C117.356 68.128 117.822 67.9096 118.138 67.8951C119.457 67.8392 120.783 67.8771 122.104 67.8608C122.991 67.85 123.094 67.7056 122.734 66.9148C122.138 65.6022 121.613 64.2427 120.867 63.0168C119.914 61.4461 120.654 60.2617 121.544 58.7578C123.879 64.0387 126.128 69.1228 128.485 74.4525V74.4561Z" fill="black" style="fill:black;fill-opacity:1;"/>
<path d="M26.4481 74.5395C26.3488 74.6009 26.3254 74.6261 26.2983 74.6298C24.6782 74.8284 23.8682 74.1236 23.8682 72.5156C23.8682 69.5691 23.8682 66.6208 23.8682 63.6744C23.8682 63.3512 23.8682 63.028 23.8682 62.6543H26.4481V74.5395Z" fill="black" style="fill:black;fill-opacity:1;"/>
<path d="M95.5977 58.9566C97.7714 58.4313 98.8186 58.9855 99.4649 60.9589C97.5222 61.6504 96.5419 61.1557 95.5977 58.9566Z" fill="black" style="fill:black;fill-opacity:1;"/>
<path d="M1.75485 74.5548C0.575902 74.5512 0.642703 74.5476 0.556043 73.2459C0.485631 72.2095 1.01823 72.1427 1.8036 72.168C3.01866 72.2059 3.01866 72.1789 3.02046 73.43C3.02046 74.5548 3.01685 74.5584 1.75666 74.5548H1.75485Z" fill="black" style="fill:black;fill-opacity:1;"/>
<path d="M24.0082 59.463C23.8656 58.7463 24.1689 58.3816 25.068 58.4231C26.3481 58.4809 26.3986 58.4809 26.3986 59.6111C26.3986 60.7991 26.3643 60.8352 25.2251 60.8334C24.4102 60.8334 24.004 60.3772 24.0064 59.4648L24.0082 59.463Z" fill="black" style="fill:black;fill-opacity:1;"/>
</g>
<defs>
<clipPath id="clip0_21782_4516">
<rect width="128" height="74.9418" fill="white" style="fill:white;fill-opacity:1;" transform="translate(0.484375)"/>
</clipPath>
</defs>
</svg>
