<svg width="128" height="128" viewBox="0 0 128 128" fill="none" xmlns="http://www.w3.org/2000/svg">
<path d="M62.6189 9C64.1421 10.4788 65.6301 11.9119 67.1036 13.358C70.6151 16.8029 74.1188 20.2556 77.629 23.7005C82.1803 28.1669 86.733 32.632 91.2883 37.0959C95.0649 40.7968 98.8325 44.5081 102.638 48.1803C103.33 48.8479 103.631 49.5167 103.629 50.5004C103.601 73.3369 103.609 96.1733 103.609 119.01C103.609 119.669 103.277 119.998 102.614 119.997C76.5996 119.997 50.5847 119.999 24.5699 120C23.8584 120 23.5017 119.65 23.5 118.951C23.5026 95.2876 23.5065 71.6242 23.5 47.9608C23.5 47.4945 23.615 47.1496 23.9598 46.8126C30.5739 40.3474 37.1776 33.8692 43.7812 27.3922C46.9034 24.3301 50.0165 21.2589 53.1413 18.1994C56.172 15.23 59.2119 12.2685 62.2492 9.30569C62.3407 9.21686 62.4465 9.14239 62.6189 9ZM58.6776 84.6356H58.6737C58.6737 79.9118 58.7181 75.1867 58.6502 70.4642C58.6254 68.7137 58.5078 66.9292 58.1368 65.2244C57.2576 61.1799 54.9558 58.1962 50.991 56.7226C47.9394 55.5874 44.7884 55.4724 41.6061 56.1151C37.4323 56.9577 34.4891 59.3066 32.8627 63.2661C32.0462 65.2531 31.764 67.3472 31.7588 69.4622C31.7314 79.3461 31.7261 89.2287 31.7719 99.1126C31.7797 100.71 31.9352 102.339 32.2787 103.898C33.1344 107.792 35.3278 110.707 39.0927 112.231C42.5127 113.616 46.0517 113.664 49.6037 112.815C52.8369 112.043 55.3177 110.223 56.9127 107.273C58.2309 104.837 58.6659 102.192 58.6737 99.4614C58.6881 94.5195 58.6776 89.5775 58.6776 84.6356ZM75.689 90.6683C75.8236 90.9466 75.8994 91.0772 75.9542 91.217C77.0568 94.0557 78.1607 96.8944 79.2554 99.7358C80.8348 103.838 82.4116 107.94 83.9727 112.048C84.1516 112.518 84.3842 112.742 84.9158 112.737C87.5286 112.714 90.1413 112.73 92.7527 112.725C93.402 112.725 93.4751 112.601 93.2308 111.978C92.2106 109.364 91.1929 106.75 90.1661 104.138C87.2764 96.7899 84.3776 89.4456 81.5023 82.0921C81.3978 81.8243 81.3939 81.4285 81.5154 81.175C83.4514 77.1331 85.4123 73.103 87.3731 69.0729C89.3052 65.1016 91.2438 61.1329 93.1759 57.1602C93.4829 56.5279 93.4176 56.3934 92.7854 56.3921C90.1726 56.3842 87.5599 56.3764 84.9485 56.413C84.7016 56.4169 84.3489 56.6664 84.2326 56.8976C83.6539 58.042 83.1418 59.2204 82.601 60.3843C79.821 66.3609 77.0411 72.3375 74.256 78.3115C73.9659 78.9333 73.6485 79.5408 73.3428 80.1547C73.2096 79.8817 73.2096 79.6309 73.2096 79.3814C73.2109 72.0018 73.2122 64.6208 73.2135 57.2412C73.2135 56.4182 73.1887 56.3908 72.3787 56.3908C69.9842 56.3882 67.5896 56.3882 65.1951 56.3882C64.1265 56.3882 64.1225 56.3908 64.1225 57.4724C64.1225 67.6176 64.1264 77.7628 64.1264 87.908C64.1264 95.8324 64.1251 103.757 64.1264 111.681C64.1264 112.707 64.1474 112.726 65.1297 112.727C67.5465 112.729 69.9633 112.728 72.3787 112.725C73.19 112.725 73.2096 112.7 73.2109 111.872C73.2135 106.625 73.2135 101.378 73.22 96.1315C73.22 95.8324 73.2056 95.4927 73.3311 95.2393C74.0744 93.7448 74.8569 92.2699 75.6851 90.6709L75.689 90.6683Z" fill="#102938" style="fill:#102938;fill:color(display-p3 0.0620 0.1626 0.2183);fill-opacity:1;"/>
<path d="M40.7884 84.5545C40.7884 79.6805 40.7688 74.8065 40.8041 69.9324C40.8119 68.92 40.9347 67.8893 41.1542 66.9017C41.5174 65.2687 42.8551 64.2354 44.5364 64.1479C45.7866 64.0826 47.025 64.0826 48.0701 64.9448C49.234 65.9036 49.4548 67.2596 49.6024 68.6326C49.6691 69.2571 49.6495 69.8932 49.6495 70.5242C49.6508 80.1416 49.6534 89.759 49.6416 99.3765C49.6416 100.069 49.5855 100.769 49.4744 101.452C49.0015 104.331 47.1282 105.408 44.411 105.045C42.1483 104.743 40.876 103.066 40.8067 100.415C40.7597 98.6096 40.7897 96.8029 40.7884 94.9975C40.7871 91.5161 40.7884 88.036 40.7884 84.5545Z" fill="#102938" style="fill:#102938;fill:color(display-p3 0.0620 0.1626 0.2183);fill-opacity:1;"/>
</svg>
