<svg width="128" height="128" viewBox="0 0 128 128" fill="none" xmlns="http://www.w3.org/2000/svg">
<g clip-path="url(#clip0_21782_4492)">
<path d="M42.4195 110.983C42.3666 115.795 46.3333 120.313 51.5271 120.156C56.3598 120.282 60.5409 116.19 60.5695 111.142C60.5999 105.766 56.2296 101.838 51.724 101.834C46.4834 101.829 42.4768 105.819 42.4195 110.984V110.983ZM57.2363 111.058C57.2319 113.829 55.4469 116.175 52.8678 116.802C49.3827 117.651 45.9775 115.087 45.8022 111.514C45.7085 109.61 46.2135 107.961 47.5994 106.602C49.5997 104.642 53.1464 104.592 55.2161 106.49C56.562 107.725 57.2319 109.238 57.2363 111.058Z" fill="#102938" style="fill:#102938;fill:color(display-p3 0.0620 0.1626 0.2183);fill-opacity:1;"/>
<path d="M35.734 108.829H29.9076V102.306H26.5883V119.683H29.9528V112.087H35.7635V119.679H39.0785V102.312H35.734V108.829Z" fill="#102938" style="fill:#102938;fill:color(display-p3 0.0620 0.1626 0.2183);fill-opacity:1;"/>
<path d="M43.7091 85.6363C45.8005 83.6578 49.0651 83.6066 51.4021 85.1634C52.0087 85.5678 52.5554 86.0616 53.1481 86.5284C53.897 85.8142 54.6485 85.0983 55.453 84.3312C55.0078 83.9103 54.6251 83.492 54.1868 83.144C51.8516 81.2887 49.2066 80.5181 46.2456 81.004C43.4487 81.464 41.2298 82.8481 39.7554 85.3022C38.6663 87.1142 38.3877 89.0997 38.6064 91.1842C38.8754 93.7494 39.9723 95.8685 42.0646 97.3776C44.9995 99.495 48.2268 99.6226 51.547 98.4754C53.0431 97.9582 54.2311 96.9351 55.3506 95.8156C54.5878 95.0146 53.8545 94.2449 53.1325 93.4864C53.0709 93.5194 53.0561 93.5237 53.0457 93.5333C52.9615 93.6123 52.8782 93.6921 52.7932 93.7711C51.4394 95.0363 49.9433 95.9605 47.9995 95.964C46.0027 95.9675 44.3226 95.3158 43.0634 93.7311C42.2321 92.6846 41.8936 91.4575 41.8659 90.1411C41.8294 88.3777 42.4126 86.8625 43.7091 85.6363Z" fill="#102938" style="fill:#102938;fill:color(display-p3 0.0620 0.1626 0.2183);fill-opacity:1;"/>
<path d="M66.8385 80.847C61.5753 80.9042 57.6441 84.9655 57.7084 90.2522C57.7665 94.9816 61.7159 99.2937 66.7803 99.1549C71.7372 99.292 75.8792 95.0571 75.8514 90.0335C75.8219 84.6939 71.4491 80.7958 66.8385 80.8461V80.847ZM70.1673 94.8298C68.0612 96.4326 65.0517 96.2911 63.0488 94.5616C61.6594 93.3615 61.0676 91.8376 61.0676 90.0387C61.091 87.5845 62.0942 85.658 64.36 84.6392C68.2764 82.8785 72.1147 85.6372 72.4687 89.3071C72.6865 91.5634 71.9932 93.4404 70.1665 94.8298H70.1673Z" fill="#102938" style="fill:#102938;fill:color(display-p3 0.0620 0.1626 0.2183);fill-opacity:1;"/>
<path d="M31.1824 95.9449C30.3615 96.0777 29.6508 95.8573 29.085 95.2828C28.6146 94.8055 28.2198 94.2527 27.7815 93.7225C26.912 94.2492 26.0121 94.7942 25.0653 95.3678C25.5305 96.2911 26.0711 97.1216 26.8382 97.7811C28.2345 98.9822 29.8695 99.305 31.6554 99.069C35.8685 98.511 37.0479 94.1494 35.1613 91.4063C34.3863 90.2808 33.3094 89.4703 32.3036 88.5825C31.4055 87.7893 30.4995 87.004 29.6187 86.1917C29.2273 85.8307 29.0025 85.356 29.2229 84.825C29.4512 84.2756 29.9371 84.0726 30.5134 84.0379C31.1286 84.0005 31.651 84.2244 32.1023 84.6063C32.5258 84.9647 32.9163 85.3621 33.3389 85.7587C34.1069 85.0775 34.9018 84.372 35.7713 83.6014C35.3088 83.1675 34.894 82.7665 34.467 82.3795C33.1532 81.1906 31.638 80.6838 29.8521 80.8982C26.9832 81.2427 24.3086 84.693 26.9424 87.9985C27.8952 89.1943 29.1431 90.1541 30.2591 91.2197C30.9672 91.8966 31.7734 92.4954 32.3661 93.2608C33.2556 94.4089 32.6256 95.7106 31.1833 95.944L31.1824 95.9449Z" fill="#102938" style="fill:#102938;fill:color(display-p3 0.0620 0.1626 0.2183);fill-opacity:1;"/>
<path d="M63.8029 111.765C63.8116 112.948 63.868 114.133 63.9617 115.312C64.1066 117.126 64.9901 118.483 66.5842 119.387C67.7054 120.023 68.9081 120.202 70.1708 120.15C72.0773 120.073 73.5621 119.25 74.6564 117.687C75.4262 116.587 75.5737 115.333 75.5806 114.055C75.6015 110.268 75.5963 106.48 75.5989 102.693C75.5989 102.568 75.5815 102.442 75.5711 102.308H72.283V102.85C72.283 106.218 72.2874 109.587 72.2787 112.955C72.2769 113.575 72.2396 114.196 72.191 114.815C72.132 115.567 71.7892 116.165 71.1306 116.553C70.4667 116.945 69.7386 117.042 68.9984 116.88C67.793 116.618 67.1786 115.794 67.1717 114.395C67.1517 110.55 67.1569 106.705 67.1517 102.859C67.1517 102.689 67.1517 102.518 67.1517 102.318H63.7942V102.874C63.7942 105.838 63.7795 108.801 63.8012 111.765H63.8029Z" fill="#102938" style="fill:#102938;fill:color(display-p3 0.0620 0.1626 0.2183);fill-opacity:1;"/>
<path d="M84.8418 116.775C83.8837 117.191 82.9838 117.029 82.2401 116.322C81.7446 115.85 81.348 115.277 80.8872 114.725C80.0194 115.251 79.11 115.801 78.2049 116.349C78.4921 117.118 79.2792 118.213 79.9335 118.773C81.3333 119.969 82.9621 120.302 84.7498 120.071C89.0002 119.519 90.1796 115.092 88.2305 112.346C87.4573 111.257 86.4073 110.461 85.4249 109.592C84.5163 108.787 83.5973 107.994 82.7122 107.166C82.3416 106.818 82.123 106.358 82.3399 105.833C82.5629 105.294 83.0255 105.09 83.5809 105.041C84.1944 104.987 84.7229 105.197 85.1811 105.576C85.6219 105.939 86.0306 106.342 86.4724 106.745C87.2143 106.089 88.0032 105.392 88.8979 104.599C88.4492 104.181 88.0413 103.795 87.6265 103.416C86.2554 102.162 84.6639 101.628 82.8068 101.92C80.6269 102.262 78.3671 104.499 79.1508 107.323C79.4501 108.4 80.1036 109.269 80.8994 110.015C81.8895 110.943 82.9482 111.797 83.9479 112.715C84.5294 113.249 85.1316 113.789 85.5846 114.427C86.2146 115.315 85.851 116.338 84.8418 116.776V116.775Z" fill="#102938" style="fill:#102938;fill:color(display-p3 0.0620 0.1626 0.2183);fill-opacity:1;"/>
<path d="M125.61 59.0592C124.615 58.4535 123.587 57.8851 122.521 57.4191C119.539 56.1156 116.406 55.2565 113.231 54.6005C109.802 53.8923 106.348 53.3014 102.893 52.7234C100.958 52.3997 99.0033 52.1993 97.056 51.9563C96.1847 51.8478 95.3109 51.7688 94.4257 51.676C93.288 55.0049 92.159 58.3042 91.0309 61.6036C90.9563 61.2487 90.9884 60.9189 90.9884 60.5891C90.991 52.7798 91.0066 44.9714 90.9806 37.1621C90.9736 34.9857 90.216 33.0427 88.6696 31.4902C81.1883 23.9803 73.6723 16.5059 66.205 8.983C64.9015 7.67002 62.8049 7.67523 61.5093 8.98126C54.0749 16.4756 46.5954 23.9256 39.1314 31.3912C38.9987 31.524 38.8607 31.6533 38.7401 31.7965C37.493 33.2822 36.7355 34.9926 36.7276 36.9313C36.6938 44.8265 36.7129 52.7226 36.7164 60.6186C36.7164 60.9389 36.7563 61.2591 36.778 61.5793C36.1202 59.9626 35.557 58.3233 34.9964 56.6832C34.4297 55.0239 33.8657 53.3638 33.2773 51.6369C30.1714 52.0535 27.0968 52.4518 24.0257 52.8805C19.6668 53.4879 15.3547 54.3288 11.1077 55.4917C8.36371 56.2432 5.6666 57.1214 3.17082 58.5203C1.80664 59.2848 0.579579 60.1969 -0.000976562 61.7407V62.6953C0.222915 63.1413 0.363498 63.6646 0.688054 64.0178C1.2391 64.6166 1.85611 65.1867 2.53559 65.6319C4.91249 67.1922 7.59051 68.0687 10.2937 68.8506C16.2112 70.5618 22.2771 71.5312 28.3725 72.3C31.9383 72.7496 35.5205 73.0767 39.1028 73.3718C42.5731 73.6573 46.0495 73.8716 49.5276 74.0426C52.4296 74.1858 55.3367 74.2882 58.2412 74.289C63.7639 74.2908 69.2865 74.23 74.8092 74.1493C77.2078 74.1146 79.6072 74.0105 82.0015 73.8603C85.3321 73.6512 88.6601 73.3978 91.9837 73.108C94.529 72.8867 97.0742 72.6376 99.6056 72.2957C102.749 71.8714 105.884 71.3776 109.011 70.8413C112.222 70.2911 115.394 69.5543 118.511 68.5937C120.76 67.9003 122.974 67.121 125.008 65.9096C126.34 65.1164 127.563 64.2156 128 62.6085V62.0878C127.705 60.6828 126.766 59.7613 125.61 59.0575V59.0592Z" fill="#102938" style="fill:#102938;fill:color(display-p3 0.0620 0.1626 0.2183);fill-opacity:1;"/>
<path d="M92.5643 119.683H102.035V116.454H101.546C99.8251 116.454 98.1043 116.441 96.3843 116.463C95.9661 116.468 95.8038 116.389 95.8185 115.923C95.8558 114.739 95.8463 113.552 95.822 112.367C95.8142 111.978 95.9105 111.846 96.321 111.851C98.0557 111.873 99.7913 111.86 101.526 111.86H102.019V108.674H95.8558V105.533H102.019V102.304H92.5634V119.683L92.5643 119.683Z" fill="#102938" style="fill:#102938;fill:color(display-p3 0.0620 0.1626 0.2183);fill-opacity:1;"/>
<path d="M79.0796 81.8319C79.0796 84.7373 79.0657 87.6436 79.0865 90.5489C79.0952 91.776 79.1516 93.0039 79.2341 94.2275C79.3425 95.8269 80.022 97.1346 81.3515 98.0701C82.7617 99.062 84.3463 99.2981 86.015 99.1019C87.2082 98.9622 88.2444 98.4771 89.1313 97.6432C90.4009 96.4482 90.853 94.9478 90.8582 93.2677C90.8712 89.4078 90.8764 85.5478 90.8834 81.6879C90.8834 81.5629 90.8634 81.4388 90.8513 81.2965H87.5588V81.8458C87.5588 85.2866 87.5614 88.7274 87.5554 92.1674C87.5545 92.6577 87.5267 93.1489 87.4816 93.6374C87.3601 94.9626 86.6928 95.682 85.4024 95.9067C84.0477 96.1428 82.8233 95.4398 82.5603 94.2518C82.4831 93.9021 82.4458 93.5368 82.4449 93.1784C82.4345 89.3904 82.4354 85.6034 82.4336 81.8154C82.4336 81.6479 82.4336 81.4805 82.4336 81.3H79.0796V81.8319Z" fill="#102938" style="fill:#102938;fill:color(display-p3 0.0620 0.1626 0.2183);fill-opacity:1;"/>
<path d="M99.7132 98.6845V84.5438H102.874V81.3017H93.2958V84.5655H96.3548V98.6845H99.7132Z" fill="#102938" style="fill:#102938;fill:color(display-p3 0.0620 0.1626 0.2183);fill-opacity:1;"/>
</g>
<defs>
<clipPath id="clip0_21782_4492">
<rect width="128" height="128" fill="white" style="fill:white;fill-opacity:1;"/>
</clipPath>
</defs>
</svg>
