<svg width="128" height="128" viewBox="0 0 128 128" fill="none" xmlns="http://www.w3.org/2000/svg">
<path d="M78.8404 97.1069V65.6005H89.0311L96.7297 79.3956L104.384 65.6005H114.174V97.1069H106.119V77.0371L98.1537 90.8768H94.9942L86.8951 77.0371V97.1069H78.8404Z" fill="#102938" style="fill:#102938;fill:color(display-p3 0.0620 0.1626 0.2183);fill-opacity:1;"/>
<path d="M58.3147 97.4629C55.1106 97.4629 52.3071 96.7954 49.9041 95.4603C47.501 94.1253 45.632 92.2563 44.297 89.8533C42.9916 87.4206 42.339 84.6022 42.339 81.3981C42.339 78.1051 43.0213 75.2571 44.386 72.854C45.7507 70.4213 47.6494 68.5375 50.0821 67.2025C52.5148 65.8674 55.3331 65.1999 58.5372 65.1999C61.7115 65.1999 64.5003 65.8526 66.9033 67.158C69.3063 68.4633 71.1902 70.3175 72.5549 72.7205C73.9195 75.0939 74.6019 77.9123 74.6019 81.1756C74.6019 84.3797 73.9195 87.2129 72.5549 89.6753C71.2198 92.108 69.3212 94.0215 66.8588 95.4158C64.4261 96.7805 61.578 97.4629 58.3147 97.4629ZM58.4927 89.8533C60.3914 89.8533 61.9192 89.4231 63.0762 88.5627C64.2332 87.6727 65.0639 86.575 65.5683 85.2697C66.1023 83.9643 66.3693 82.6738 66.3693 81.3981C66.3693 80.4488 66.2209 79.4846 65.9243 78.5056C65.6573 77.4969 65.2123 76.5624 64.5893 75.7021C63.9959 74.8417 63.1949 74.1446 62.1862 73.6105C61.1775 73.0765 59.9315 72.8095 58.4482 72.8095C56.5791 72.8095 55.0661 73.2397 53.9091 74.1001C52.7521 74.9307 51.9066 75.9987 51.3726 77.3041C50.8386 78.6094 50.5716 79.9593 50.5716 81.3536C50.5716 82.748 50.8386 84.0979 51.3726 85.4032C51.9363 86.7086 52.7966 87.7766 53.9536 88.6072C55.1403 89.4379 56.6533 89.8533 58.4927 89.8533Z" fill="#102938" style="fill:#102938;fill:color(display-p3 0.0620 0.1626 0.2183);fill-opacity:1;"/>
<path d="M10.612 97.1069V65.6005H22.9387C26.2614 65.6005 29.1243 66.1938 31.5273 67.3805C33.96 68.5672 35.829 70.3324 37.1344 72.6761C38.4694 75.0198 39.1369 77.9568 39.1369 81.4872C39.1369 84.9286 38.499 87.8063 37.2234 90.1203C35.9477 92.4343 34.1083 94.1847 31.7053 95.3714C29.3023 96.5284 26.4097 97.1069 23.0277 97.1069H10.612ZM18.6666 89.6753H23.1167C25.1044 89.6753 26.6619 89.3341 27.7892 88.6518C28.9463 87.9398 29.7621 86.9607 30.2368 85.7147C30.7411 84.4687 30.9933 83.0299 30.9933 81.3982C30.9933 79.8258 30.7559 78.4166 30.2813 77.1706C29.8066 75.8949 28.9759 74.9011 27.7892 74.1891C26.6026 73.4474 24.9412 73.0766 22.8052 73.0766H18.6666V89.6753Z" fill="#102938" style="fill:#102938;fill:color(display-p3 0.0620 0.1626 0.2183);fill-opacity:1;"/>
<path d="M99.3542 61.5064V37.4761H90.009V30H116.798V37.4761H107.409V61.5064H99.3542Z" fill="#102938" style="fill:#102938;fill:color(display-p3 0.0620 0.1626 0.2183);fill-opacity:1;"/>
<path d="M78.7333 61.5064V30H86.7879V61.5064H78.7333Z" fill="#102938" style="fill:#102938;fill:color(display-p3 0.0620 0.1626 0.2183);fill-opacity:1;"/>
<path d="M43.8803 61.5064V30H51.4009L64.7065 48.0227V30H72.7611V61.5064H65.463L51.9349 43.7507V61.5064H43.8803Z" fill="#102938" style="fill:#102938;fill:color(display-p3 0.0620 0.1626 0.2183);fill-opacity:1;"/>
<path d="M24.3832 61.8624C21.2385 61.8624 18.6278 61.3136 16.5511 60.2159C14.5041 59.0885 12.9762 57.4272 11.9675 55.2318C10.9885 53.0068 10.499 50.2626 10.499 46.9992V30H18.5536V47.4887C18.5536 48.6161 18.7168 49.7138 19.0431 50.7818C19.3991 51.8201 20.0073 52.6805 20.8677 53.3628C21.728 54.0155 22.9295 54.3418 24.4722 54.3418C26.0446 54.3418 27.2312 54.0006 28.0323 53.3183C28.8333 52.636 29.3673 51.7756 29.6343 50.7373C29.9309 49.6693 30.0793 48.5864 30.0793 47.4887V30H38.1339V46.9992C38.1339 50.2329 37.6444 52.9623 36.6654 55.1873C35.6864 57.3827 34.1882 59.0441 32.1708 60.1714C30.1534 61.2987 27.5576 61.8624 24.3832 61.8624Z" fill="#102938" style="fill:#102938;fill:color(display-p3 0.0620 0.1626 0.2183);fill-opacity:1;"/>
</svg>
