<svg width="24" height="25" viewBox="0 0 24 25" fill="none" xmlns="http://www.w3.org/2000/svg">
<path d="M14.358 2.28516H9.64369C8.77583 2.28516 8.07227 2.98871 8.07227 3.85658V4.6423C8.07227 5.51017 8.77583 6.21373 9.64369 6.21373H14.358C15.2258 6.21373 15.9294 5.51017 15.9294 4.6423V3.85658C15.9294 2.98871 15.2258 2.28516 14.358 2.28516Z" stroke="#102938" style="stroke:#102938;stroke:color(display-p3 0.0620 0.1626 0.2183);stroke-opacity:1;" stroke-width="1.5" stroke-linecap="round" stroke-linejoin="round"/>
<path d="M16.3214 3.85742H18.6786C19.0953 3.85742 19.4951 4.02299 19.7897 4.31768C20.0844 4.61238 20.25 5.01208 20.25 5.42885V21.1431C20.25 21.5599 20.0844 21.9597 19.7897 22.2543C19.4951 22.5489 19.0953 22.7146 18.6786 22.7146H5.32143C4.90465 22.7146 4.50496 22.5489 4.21026 22.2543C3.91557 21.9597 3.75 21.5599 3.75 21.1431V5.42885C3.75 5.01208 3.91557 4.61238 4.21026 4.31768C4.50496 4.02299 4.90465 3.85742 5.32143 3.85742H7.67857" stroke="#102938" style="stroke:#102938;stroke:color(display-p3 0.0620 0.1626 0.2183);stroke-opacity:1;" stroke-width="1.5" stroke-linecap="round" stroke-linejoin="round"/>
<path d="M8.85742 15.644L11.2146 17.2154L15.9289 10.9297" stroke="#102938" style="stroke:#102938;stroke:color(display-p3 0.0620 0.1626 0.2183);stroke-opacity:1;" stroke-width="1.5" stroke-linecap="round" stroke-linejoin="round"/>
</svg>
