<svg width="24" height="24" viewBox="0 0 24 24" fill="none" xmlns="http://www.w3.org/2000/svg">
<g clip-path="url(#clip0_20544_14293)">
<path d="M4.50001 12C4.50001 7.86455 7.86456 4.5 12 4.5M19.5 12C19.5 16.1355 16.1355 19.5 12 19.5M23.0625 12C23.0625 18.2132 18.2132 23.0625 12 23.0625C5.78681 23.0625 0.9375 18.2132 0.9375 12C0.9375 5.78681 5.78681 0.9375 12 0.9375C18.2132 0.9375 23.0625 5.78681 23.0625 12ZM12 10.0312C12 10.0312 12.63 9.1875 13.875 9.1875C14.985 9.1875 15.75 10.0537 15.75 11.0625C15.75 12.2302 14.7072 13.6117 12 14.8125C9.29279 13.6117 8.25001 12.2302 8.25001 11.0625C8.25001 10.0537 9.01501 9.1875 10.125 9.1875C11.37 9.1875 12 10.0312 12 10.0312Z" stroke="#102938" style="stroke:#102938;stroke:color(display-p3 0.0620 0.1626 0.2183);stroke-opacity:1;" stroke-width="1.7" stroke-miterlimit="10" stroke-linecap="round" stroke-linejoin="round"/>
</g>
<defs>
<clipPath id="clip0_20544_14293">
<rect width="24" height="24" fill="white" style="fill:white;fill-opacity:1;"/>
</clipPath>
</defs>
</svg>
