<svg width="24" height="24" viewBox="0 0 24 24" fill="none" xmlns="http://www.w3.org/2000/svg">
<g clip-path="url(#clip0_20544_14283)">
<path d="M14.0794 9.43869L10.9488 12.5701L9.92073 11.5417C9.55464 11.1755 8.96106 11.1755 8.59492 11.5417C8.22878 11.9079 8.22878 12.5017 8.59492 12.8679L10.2859 14.5593C10.652 14.9254 11.2459 14.9252 11.6117 14.5593L15.4052 10.7648C15.7714 10.3986 15.7714 9.80487 15.4052 9.43869C15.0392 9.07254 14.4456 9.0725 14.0794 9.43869Z" fill="#102938" style="fill:#102938;fill:color(display-p3 0.0620 0.1626 0.2183);fill-opacity:1;"/>
<path d="M20.5649 4.11821L14.5602 0.67848C12.981 -0.22616 11.019 -0.22616 9.43978 0.67848L3.43509 4.11821C1.8367 5.03387 0.84375 6.74725 0.84375 8.58967V15.4104C0.84375 17.2528 1.8367 18.9662 3.43514 19.8818L9.43983 23.3215C11.0189 24.2261 12.981 24.2262 14.5602 23.3215L20.5649 19.8818C22.1633 18.9662 23.1563 17.2528 23.1563 15.4104V8.58967C23.1562 6.74725 22.1633 5.03387 20.5649 4.11821ZM21.2812 15.4104C21.2812 16.5822 20.6497 17.672 19.633 18.2544L13.6283 21.6941C12.6239 22.2695 11.376 22.2695 10.3716 21.6941L4.36687 18.2544C3.3503 17.672 2.71875 16.5822 2.71875 15.4104V8.58967C2.71875 7.41779 3.3503 6.32804 4.36697 5.74567L10.3717 2.30593C11.376 1.73059 12.624 1.7305 13.6284 2.30593L19.6331 5.74567C20.6497 6.32804 21.2812 7.41784 21.2812 8.58967V15.4104Z" fill="#102938" style="fill:#102938;fill:color(display-p3 0.0620 0.1626 0.2183);fill-opacity:1;"/>
</g>
<defs>
<clipPath id="clip0_20544_14283">
<rect width="24" height="24" fill="white" style="fill:white;fill-opacity:1;"/>
</clipPath>
</defs>
</svg>
