<svg width="24" height="24" viewBox="0 0 24 24" fill="none" xmlns="http://www.w3.org/2000/svg">
<g clip-path="url(#clip0_21794_4390)">
<path fill-rule="evenodd" clip-rule="evenodd" d="M17.8465 2.10316C17.0096 2.19054 16.1963 2.56844 15.5561 3.23549C14.0819 4.77135 14.0819 7.26148 15.5561 8.79734C17.0302 10.3332 19.4203 10.3332 20.8944 8.79734C21.5347 8.13029 21.8974 7.283 21.9812 6.41105L19.5526 7.80793C19.1626 8.03225 18.6772 7.96073 18.3622 7.63253L16.6741 5.87372C16.3591 5.54552 16.2904 5.0398 16.5057 4.63347L17.8465 2.10316ZM14.1419 1.76207C15.6542 0.186432 17.7961 -0.331253 19.7197 0.203967C20.017 0.286672 20.2611 0.507334 20.3817 0.802241C20.5023 1.09715 20.4859 1.43347 20.3372 1.7141L18.6202 4.95445L19.2445 5.60495L22.3547 3.81609C22.624 3.66116 22.9468 3.64405 23.2299 3.76967C23.5129 3.8953 23.7247 4.14969 23.8041 4.45938C24.3178 6.46357 23.821 8.69512 22.3086 10.2708C20.9694 11.6661 19.136 12.2328 17.3954 11.9709L21.1207 15.8522C22.9098 17.7161 22.9098 20.7381 21.1207 22.6021C19.3317 24.466 16.4311 24.466 14.6421 22.6021L11.3265 19.1476L8.66525 22.3469C7.01781 24.3273 4.10357 24.4356 2.32488 22.5825C0.546192 20.7293 0.65014 17.6931 2.55103 15.9767L8.33479 10.7542L4.37631 6.63L3.39527 7.65211C3.16798 7.88892 2.84528 7.99746 2.52799 7.94381C2.21069 7.89017 1.93749 7.68088 1.79374 7.38133L0.1056 3.8637C-0.0868939 3.46259 -0.0114394 2.97815 0.292921 2.66105L1.98106 0.902235C2.28542 0.585132 2.75039 0.506518 3.13538 0.707072L6.51166 2.46589C6.79917 2.61566 7.00004 2.9003 7.05153 3.23087C7.10302 3.56145 6.99885 3.89766 6.77155 4.13447L5.79052 5.15658L9.85002 9.38604L12.5305 7.01749C12.2319 5.1638 12.769 3.19243 14.1419 1.76207ZM13.2499 9.07352L3.8609 17.5513C2.83712 18.4757 2.78113 20.111 3.73909 21.1091C4.69706 22.1071 6.26659 22.0488 7.15387 20.9822L15.291 11.2001C14.8809 10.9477 14.4943 10.6379 14.1419 10.2708C13.7895 9.90361 13.4921 9.50082 13.2499 9.07352ZM16.0292 13.4943L12.6397 17.569L16.0563 21.1286C17.0643 22.1788 18.6986 22.1788 19.7065 21.1286C20.7145 20.0785 20.7145 18.3758 19.7065 17.3256L16.0292 13.4943ZM4.37628 3.68318L2.88562 2.90665L2.21679 3.60348L2.96212 5.15655L4.37628 3.68318Z" fill="#102938" stroke="#F0F4F9" style="fill:#102938;fill:color(display-p3 0.0620 0.1626 0.2183);fill-opacity:1;stroke:#F0F4F9;stroke:color(display-p3 0.9412 0.9569 0.9765);stroke-opacity:1;" stroke-width="0.5"/>
</g>
<defs>
<clipPath id="clip0_21794_4390">
<rect width="24" height="24" fill="white" style="fill:white;fill-opacity:1;"/>
</clipPath>
</defs>
</svg>
