<svg width="24" height="24" viewBox="0 0 24 24" fill="none" xmlns="http://www.w3.org/2000/svg">
<path d="M11.0645 10.875C11.0645 9.83948 10.225 9 9.18948 9C8.15396 9 7.31448 9.83948 7.31448 10.875V12.75M7.31445 11.8125C7.31445 10.777 6.47497 9.9375 5.43945 9.9375C4.40394 9.9375 3.56445 10.777 3.56445 11.8125V17.4375C3.56445 20.5441 6.08286 23.0625 9.18945 23.0625H12.8443C16.0151 23.0625 18.5821 20.4857 18.5701 17.315C18.5665 16.351 18.3201 15.4165 17.8688 14.5906L20.3471 7.12402L20.324 7.19691C20.3959 6.99806 20.4349 6.78361 20.4349 6.56006C20.4349 5.52455 19.5955 4.68506 18.56 4.68506C17.7215 4.68506 17.0117 5.23533 16.7718 5.99437L14.8145 11.8125V2.8125C14.8145 1.77698 13.975 0.9375 12.9395 0.9375C11.9039 0.9375 11.0645 1.77698 11.0645 2.8125V11.8125" stroke="#102938" style="stroke:#102938;stroke:color(display-p3 0.0620 0.1626 0.2183);stroke-opacity:1;" stroke-width="1.7" stroke-miterlimit="10" stroke-linecap="round" stroke-linejoin="round"/>
</svg>
