<svg width="24" height="24" viewBox="0 0 24 24" fill="none" xmlns="http://www.w3.org/2000/svg">
<g clip-path="url(#clip0_20544_14271)">
<path d="M9.31491 13.748H0.9375C0.419719 13.748 0 14.1678 0 14.6855V23.063C0 23.5808 0.419719 24.0005 0.9375 24.0005H9.31491C9.83269 24.0005 10.2524 23.5808 10.2524 23.063V14.6855C10.2524 14.1678 9.83269 13.748 9.31491 13.748ZM8.37741 22.1255H1.875V15.623H8.37741V22.1255Z" fill="#102938" style="fill:#102938;fill:color(display-p3 0.0620 0.1626 0.2183);fill-opacity:1;"/>
<path d="M14.2742 14.0226C13.9082 13.6565 13.3146 13.6565 12.9484 14.0226C12.5823 14.3887 12.5823 14.9824 12.9484 15.3484L21.0036 23.4037C21.3697 23.7697 21.9632 23.7698 22.3294 23.4037C22.6956 23.0376 22.6956 22.444 22.3294 22.0778L14.2742 14.0226Z" fill="#102938" style="fill:#102938;fill:color(display-p3 0.0620 0.1626 0.2183);fill-opacity:1;"/>
<path d="M23.9014 9.9697L19.1756 0.51825C19.0168 0.200625 18.6922 0 18.3371 0C17.982 0 17.6574 0.200625 17.4986 0.51825L12.7728 9.9697C12.6275 10.2603 12.643 10.6055 12.8138 10.8818C12.9847 11.1582 13.2864 11.3265 13.6113 11.3265H23.0628C23.3878 11.3265 23.6895 11.1582 23.8603 10.8818C24.0311 10.6054 24.0466 10.2603 23.9014 9.9697ZM15.1283 9.45145L18.3371 3.03384L21.5459 9.45145H15.1283Z" fill="#102938" style="fill:#102938;fill:color(display-p3 0.0620 0.1626 0.2183);fill-opacity:1;"/>
<path d="M5.6632 0C2.54053 0 0 2.54048 0 5.6632C0 8.78592 2.54053 11.3264 5.6632 11.3264C8.78588 11.3264 11.3264 8.78592 11.3264 5.6632C11.3264 2.54048 8.78592 0 5.6632 0ZM5.6632 9.45145C3.57436 9.45145 1.875 7.75205 1.875 5.6632C1.875 3.57436 3.57436 1.875 5.6632 1.875C7.75205 1.875 9.45141 3.57441 9.45141 5.6632C9.45141 7.752 7.75205 9.45145 5.6632 9.45145Z" fill="#102938" style="fill:#102938;fill:color(display-p3 0.0620 0.1626 0.2183);fill-opacity:1;"/>
</g>
<defs>
<clipPath id="clip0_20544_14271">
<rect width="24" height="24" fill="white" style="fill:white;fill-opacity:1;"/>
</clipPath>
</defs>
</svg>
