<svg width="48" height="48" viewBox="0 0 48 48" fill="none" xmlns="http://www.w3.org/2000/svg">
<path d="M35.7496 31.7963C35.9132 30.9842 35.3875 30.1932 34.5754 30.0296C33.7633 29.8659 32.9723 30.3916 32.8087 31.2037C32.0401 35.0181 29.0275 38.0306 25.2023 38.8053C24.3903 38.9698 23.8654 39.7613 24.0298 40.5732C24.1943 41.3852 24.9858 41.9101 25.7977 41.7456C30.8024 40.7321 34.7419 36.7973 35.7496 31.7963Z" fill="white" style="fill:white;fill-opacity:1;"/>
<path fill-rule="evenodd" clip-rule="evenodd" d="M25.1674 0.558139C24.8829 0.205509 24.4543 0.000366868 24.0012 4.85892e-07C23.5481 -0.000363766 23.1192 0.204087 22.8341 0.556257C21.6579 2.00936 20.5089 3.40419 19.3999 4.75039C16.1387 8.70925 13.224 12.2476 10.9827 15.6106C7.94959 20.1619 6 24.5977 6 29.6638C6 39.7619 14.0305 48 24 48C33.9695 48 42 39.7619 42 29.6638C42 24.5963 40.0415 20.1599 37.0052 15.6099C34.7878 12.2871 31.9135 8.79114 28.7044 4.88808C27.5629 3.49978 26.3791 2.05998 25.1674 0.558139ZM9 29.6638C9 25.4314 10.6083 21.5821 13.4791 17.2743C15.6289 14.0486 18.4031 10.6806 21.6286 6.76453C22.3938 5.83548 23.1845 4.87558 23.9982 3.87942C24.8506 4.92588 25.678 5.93224 26.4776 6.90482C29.6482 10.7613 32.3822 14.0868 34.5098 17.2751C37.3852 21.584 39 25.4328 39 29.6638C39 38.1624 32.2559 45 24 45C15.7441 45 9 38.1624 9 29.6638Z" fill="white" style="fill:white;fill-opacity:1;"/>
</svg>
