<svg width="48" height="48" viewBox="0 0 48 48" fill="none" xmlns="http://www.w3.org/2000/svg">
<g clip-path="url(#clip0_19564_21716)">
<g clip-path="url(#clip1_19564_21716)">
<path d="M6 10.3086V46.4986" stroke="white" style="stroke:white;stroke-opacity:1;" stroke-width="3.5" stroke-linecap="round" stroke-linejoin="round"/>
<path d="M1.50098 21L10.501 25.5" stroke="white" style="stroke:white;stroke-opacity:1;" stroke-width="3.5" stroke-linecap="round" stroke-linejoin="round"/>
<path d="M1.50098 28.5L10.501 33" stroke="white" style="stroke:white;stroke-opacity:1;" stroke-width="3.5" stroke-linecap="round" stroke-linejoin="round"/>
<path d="M1.50098 36.002L10.501 40.502" stroke="white" style="stroke:white;stroke-opacity:1;" stroke-width="3.5" stroke-linecap="round" stroke-linejoin="round"/>
<path d="M17.7728 20.6158L2.54879 7.2858C1.94974 6.7191 1.58075 5.95134 1.51248 5.12952C1.44421 4.30772 1.68146 3.4896 2.17879 2.8318C2.67591 2.17322 3.39859 1.72125 4.20831 1.56255C5.01805 1.40385 5.85787 1.54958 6.56679 1.9718L27.5169 15.1178" stroke="white" style="stroke:white;stroke-opacity:1;" stroke-width="3.5" stroke-linecap="round" stroke-linejoin="round"/>
<path d="M28.458 40.5H33.042" stroke="white" style="stroke:white;stroke-opacity:1;" stroke-width="3.5" stroke-linecap="round" stroke-linejoin="round"/>
<path d="M19.5 33.002V27.002C19.5 26.2064 19.8161 25.4432 20.3786 24.8806C20.9412 24.318 21.7044 24.002 22.5 24.002H43.5C44.2956 24.002 45.0588 24.318 45.6214 24.8806C46.184 25.4432 46.5 26.2064 46.5 27.002V39.752" stroke="white" style="stroke:white;stroke-opacity:1;" stroke-width="3.5" stroke-linecap="round" stroke-linejoin="round"/>
<path d="M25.5 24L28.018 12.912C28.154 12.2318 28.5214 11.6198 29.0578 11.18C29.5942 10.7403 30.2664 10.5 30.96 10.5H37.5C38.2956 10.5 39.0588 10.8161 39.6214 11.3787C40.184 11.9413 40.5 12.7044 40.5 13.5V24" stroke="white" style="stroke:white;stroke-opacity:1;" stroke-width="3.5" stroke-linecap="round" stroke-linejoin="round"/>
<path d="M21.75 46.5C25.478 46.5 28.5 43.478 28.5 39.75C28.5 36.022 25.478 33 21.75 33C18.0221 33 15 36.022 15 39.75C15 43.478 18.0221 46.5 21.75 46.5Z" stroke="white" style="stroke:white;stroke-opacity:1;" stroke-width="3.5" stroke-linecap="round" stroke-linejoin="round"/>
<path d="M39.751 46.5C43.479 46.5 46.501 43.478 46.501 39.75C46.501 36.022 43.479 33 39.751 33C36.023 33 33.001 36.022 33.001 39.75C33.001 43.478 36.023 46.5 39.751 46.5Z" stroke="white" style="stroke:white;stroke-opacity:1;" stroke-width="3.5" stroke-linecap="round" stroke-linejoin="round"/>
<path d="M21.75 40.5C21.3358 40.5 21 40.1642 21 39.75C21 39.3358 21.3358 39 21.75 39" stroke="white" style="stroke:white;stroke-opacity:1;" stroke-width="3.5"/>
<path d="M21.75 40.5C22.1642 40.5 22.5 40.1642 22.5 39.75C22.5 39.3358 22.1642 39 21.75 39" stroke="white" style="stroke:white;stroke-opacity:1;" stroke-width="3.5"/>
<path d="M39.751 40.498C39.3368 40.498 39.001 40.1622 39.001 39.748C39.001 39.3338 39.3368 38.998 39.751 38.998" stroke="white" style="stroke:white;stroke-opacity:1;" stroke-width="3.5"/>
<path d="M39.751 40.498C40.1652 40.498 40.501 40.1622 40.501 39.748C40.501 39.3338 40.1652 38.998 39.751 38.998" stroke="white" style="stroke:white;stroke-opacity:1;" stroke-width="3.5"/>
</g>
</g>
<defs>
<clipPath id="clip0_19564_21716">
<rect width="48" height="48" fill="white" style="fill:white;fill-opacity:1;"/>
</clipPath>
<clipPath id="clip1_19564_21716">
<rect width="48" height="48" fill="white" style="fill:white;fill-opacity:1;"/>
</clipPath>
</defs>
</svg>
