<svg width="50" height="50" viewBox="0 0 50 50" fill="none" xmlns="http://www.w3.org/2000/svg">
<g clip-path="url(#clip0_21139_21540)">
<path d="M38.9385 18.2071C38.9385 18.8094 38.5475 19.3346 37.9954 19.5753C35.6601 20.5936 34.0529 22.3375 33.3177 24.8926C32.3895 28.1147 33.5883 31.4273 36.366 33.5058C38.8872 35.3941 42.6397 35.4869 45.3475 33.7308C48.1415 31.9191 49.4872 28.6367 48.8365 25.3844C48.2628 22.5172 46.4903 20.6591 43.8898 19.5387C43.2018 19.2417 42.9779 18.9355 42.9826 18.2071C43.0152 13.3357 42.9896 8.46656 43.0082 3.59511C43.0129 2.51875 42.8636 1.59086 41.6998 1.14779C40.5221 0.700077 39.7734 1.34728 39.0877 2.13367C35.5754 6.1561 32.0653 10.1808 28.5716 14.2195C28.0842 14.7832 27.6037 15.0245 26.7921 15.0082C22.9859 14.9317 19.175 14.9572 15.3664 14.9757C13.7618 14.9827 13.0249 15.7273 13.0039 17.3303C12.9782 19.418 12.9922 21.5058 12.9899 23.5936C12.9899 24.0088 12.9899 24.424 12.9899 24.932C12.1363 24.9715 11.4086 24.9877 10.6856 25.0411C7.47178 25.2823 5.16518 27.6044 4.99026 30.8381C4.91796 32.1882 5.01125 33.5452 4.93895 34.8953C4.91796 35.2804 4.67541 35.7884 4.36755 36.0018C1.43592 38.0409 0.335099 41.0357 1.39161 44.2833C2.36415 47.2734 5.06256 49.0086 8.50496 48.9947C15.616 48.9645 22.727 48.9784 29.838 49.0016C33.2338 49.0132 36.4336 46.4638 36.9094 43.2997C37.4715 39.5719 35.3678 36.1921 31.8391 35.2642C30.9902 35.0415 30.0759 35.0554 29.0357 34.9464C29.0217 34.6517 28.9891 34.2829 28.9891 33.9164C28.9868 29.5089 28.9751 25.1014 29.0054 20.6962C29.0078 20.2323 29.122 19.6593 29.4066 19.3252C32.3848 15.8619 35.4074 12.4356 38.423 9.00473C38.542 8.87019 38.6959 8.7658 38.9385 8.55471L38.9385 18.2071V18.2071ZM24.9636 34.9348H8.96675C8.96675 33.7726 8.95975 32.6985 8.96675 31.6268C8.98074 29.7362 9.68508 29.031 11.5695 29.031C15.7256 29.0264 19.8817 29.031 24.0377 29.0333C24.3339 29.0333 24.6301 29.0774 24.9636 29.1053V34.9348ZM14.7367 44.9931V39.0824H23.2588V44.9931H14.7367ZM41.1611 30.961C38.8662 30.9982 37.1077 29.3674 37.04 27.1381C36.9724 24.9065 38.6703 23.0971 40.8882 23.0345C43.0945 22.9719 44.9603 24.6978 45.0303 26.8667C45.1003 29.0496 43.3278 30.9262 41.1611 30.961ZM24.9566 24.9158H17.1086V19.0979H24.9566V24.9158ZM7.97787 39.0291C9.58946 39.0291 10.9795 40.3629 11.0051 41.9404C11.0308 43.541 9.58246 45.0256 8.0012 45.0233C6.44092 45.021 4.99959 43.6222 4.96927 42.0865C4.93662 40.4627 6.3453 39.0314 7.97787 39.0291ZM32.9749 42.0331C32.9493 43.7242 31.5779 45.0697 29.9337 45.021C28.3361 44.9723 27.023 43.599 27.0417 41.996C27.0603 40.2817 28.385 38.9989 30.0899 39.0407C31.7202 39.0801 33.0006 40.4047 32.9749 42.0331Z" fill="white" stroke="white" style="fill:white;fill-opacity:1;stroke:white;stroke-opacity:1;" stroke-width="0.3"/>
</g>
<rect width="48" height="48" transform="matrix(-1 0 0 1 49 1)" stroke="white" style="stroke:white;stroke-opacity:1;" stroke-width="0.0777416"/>
<defs>
<clipPath id="clip0_21139_21540">
<rect width="48" height="48" transform="matrix(-1 0 0 1 49 1)" fill="white" style="fill:white;fill-opacity:1;"/>
</clipPath>
</defs>
</svg>
