<svg width="48" height="48" viewBox="0 0 48 48" fill="none" xmlns="http://www.w3.org/2000/svg">
<path fill-rule="evenodd" clip-rule="evenodd" d="M23.9138 3C19.0705 3 15.1049 6.99369 15.1049 11.969C15.1049 12.1487 15.1101 12.3271 15.1202 12.5039C15.1497 13.0159 14.9157 13.5075 14.4996 13.8072C14.0835 14.107 13.5432 14.1735 13.0669 13.9834C12.2353 13.6517 11.3291 13.469 10.3777 13.469C6.32482 13.469 3 16.8119 3 20.9845C3 25.1571 6.32482 28.5 10.3777 28.5H37.6223C41.6752 28.5 45 25.1571 45 20.9845C45 16.8119 41.6752 13.469 37.6223 13.469C36.615 13.469 35.6581 13.6738 34.7867 14.0437C34.3076 14.2471 33.7574 14.1876 33.3328 13.8866C32.9083 13.5855 32.6702 13.0859 32.7036 12.5665C32.7163 12.3692 32.7228 12.17 32.7228 11.969C32.7228 6.99369 28.7572 3 23.9138 3ZM12.1784 10.627C12.8358 4.66531 17.8207 0 23.9138 0C30.0177 0 35.0094 4.68172 35.6527 10.6584C36.2909 10.534 36.9495 10.469 37.6223 10.469C43.3754 10.469 48 15.1988 48 20.9845C48 26.7702 43.3754 31.5 37.6223 31.5H10.3777C4.62457 31.5 0 26.7702 0 20.9845C0 15.1988 4.62457 10.469 10.3777 10.469C10.9913 10.469 11.5931 10.5231 12.1784 10.627ZM9.81809 34.6761C10.5084 35.134 10.6969 36.0649 10.2389 36.7552L8.23579 39.775C7.77785 40.4653 6.84698 40.6538 6.15663 40.1958C5.46628 39.7379 5.27786 38.807 5.7358 38.1167L7.73893 35.0969C8.19687 34.4065 9.12774 34.2181 9.81809 34.6761ZM23.4539 34.6761C24.1443 35.134 24.3327 36.0649 23.8747 36.7552L21.8716 39.775C21.4137 40.4653 20.4828 40.6538 19.7924 40.1958C19.1021 39.7379 18.9137 38.807 19.3716 38.1167L21.3747 35.0969C21.8327 34.4065 22.7636 34.2181 23.4539 34.6761ZM37.0897 34.6761C37.78 35.134 37.9684 36.0649 37.5105 36.7552L35.5074 39.775C35.0494 40.4653 34.1186 40.6538 33.4282 40.1958C32.7379 39.7379 32.5495 38.807 33.0074 38.1167L35.0105 35.0969C35.4685 34.4065 36.3993 34.2181 37.0897 34.6761ZM15.3667 37.6953C16.0573 38.1528 16.2463 39.0836 15.7888 39.7742L11.9881 45.5118C11.5306 46.2024 10.5999 46.3914 9.90925 45.934C9.21861 45.4765 9.02961 44.5457 9.4871 43.8551L13.2878 38.1175C13.7453 37.4268 14.6761 37.2378 15.3667 37.6953ZM29.1777 37.6953C29.8684 38.1528 30.0574 39.0836 29.5999 39.7742L25.7992 45.5118C25.3417 46.2024 24.4109 46.3914 23.7203 45.934C23.0297 45.4765 22.8407 44.5457 23.2982 43.8551L27.0989 38.1175C27.5564 37.4268 28.4871 37.2378 29.1777 37.6953Z" fill="white" style="fill:white;fill-opacity:1;"/>
</svg>
