<svg width="48" height="48" viewBox="0 0 48 48" fill="none" xmlns="http://www.w3.org/2000/svg">
<path fill-rule="evenodd" clip-rule="evenodd" d="M5.14286 48H42.8571C43.8034 48 44.5714 47.232 44.5714 46.2857C44.5714 45.3394 43.8034 44.5714 42.8571 44.5714H5.14286C4.19657 44.5714 3.42857 45.3394 3.42857 46.2857C3.42857 47.232 4.19657 48 5.14286 48Z" fill="white" style="fill:white;fill-opacity:1;"/>
<path fill-rule="evenodd" clip-rule="evenodd" d="M5.19943 16.3303C4.43829 14.76 3.99943 12.9497 3.99943 11.0211C3.99943 4.872 8.42914 0 13.7143 0C18.1611 0 21.9874 3.41657 23.1034 8.18057C23.3194 9.10114 22.7469 10.0251 21.8246 10.2411C20.904 10.4571 19.98 9.88286 19.764 8.96229C19.0303 5.82514 16.6423 3.42857 13.7143 3.42857C10.1674 3.42857 7.428 6.89486 7.428 11.0211C7.428 12.9069 8.00057 14.64 8.96571 15.984C9.26571 16.3989 9.36171 16.9251 9.23314 17.4189C9.10286 17.9143 8.75829 18.324 8.29543 18.54C5.43771 19.8634 3.42857 22.2137 3.42857 24.9789C3.42857 29.304 8.13943 32.5714 13.7143 32.5714C15.3411 32.5714 16.884 32.2886 18.264 31.7811C19.152 31.4537 20.1377 31.908 20.4651 32.796C20.7926 33.684 20.3383 34.6697 19.4503 34.9971C17.712 35.6383 15.7663 36 13.7143 36C6.04114 36 0 30.9309 0 24.9789C0 21.5143 1.99371 18.3686 5.19943 16.3303Z" fill="white" style="fill:white;fill-opacity:1;"/>
<path fill-rule="evenodd" clip-rule="evenodd" d="M25.7709 16.3303C25.0097 14.76 24.5709 12.9497 24.5709 11.0211C24.5709 4.872 29.0006 0 34.2857 0C39.5709 0 44.0006 4.872 44.0006 11.0211C44.0006 12.9497 43.5617 14.76 42.8006 16.3303C46.0063 18.3686 48 21.5143 48 24.9789C48 30.9309 41.9589 36 34.2857 36C26.6126 36 20.5714 30.9309 20.5714 24.9789C20.5714 21.5143 22.5651 18.3686 25.7709 16.3303ZM28.8669 18.54C29.3297 18.324 29.6743 17.9143 29.8046 17.4189C29.9331 16.9251 29.8371 16.3989 29.5371 15.984C28.572 14.64 27.9994 12.9069 27.9994 11.0211C27.9994 6.89486 30.7389 3.42857 34.2857 3.42857C37.8326 3.42857 40.572 6.89486 40.572 11.0211C40.572 12.9069 39.9994 14.64 39.0343 15.984C38.7343 16.3989 38.6383 16.9251 38.7669 17.4189C38.8971 17.9143 39.2417 18.324 39.7046 18.54C42.5623 19.8634 44.5714 22.2137 44.5714 24.9789C44.5714 29.304 39.8606 32.5714 34.2857 32.5714C28.7109 32.5714 24 29.304 24 24.9789C24 22.2137 26.0091 19.8634 28.8669 18.54Z" fill="white" style="fill:white;fill-opacity:1;"/>
<path fill-rule="evenodd" clip-rule="evenodd" d="M12 27.4286V46.2857C12 47.232 12.768 48 13.7143 48C14.6606 48 15.4286 47.232 15.4286 46.2857V27.4286C15.4286 26.4823 14.6606 25.7143 13.7143 25.7143C12.768 25.7143 12 26.4823 12 27.4286Z" fill="white" style="fill:white;fill-opacity:1;"/>
<path fill-rule="evenodd" clip-rule="evenodd" d="M32.5714 27.4286V46.2857C32.5714 47.232 33.3394 48 34.2857 48C35.232 48 36 47.232 36 46.2857V27.4286C36 26.4823 35.232 25.7143 34.2857 25.7143C33.3394 25.7143 32.5714 26.4823 32.5714 27.4286Z" fill="white" style="fill:white;fill-opacity:1;"/>
<path fill-rule="evenodd" clip-rule="evenodd" d="M14.9263 28.6406L18.3548 25.212C19.0234 24.5434 19.0234 23.4566 18.3548 22.788C17.6863 22.1194 16.5994 22.1194 15.9308 22.788L12.5023 26.2165C11.8337 26.8851 11.8337 27.972 12.5023 28.6406C13.1708 29.3091 14.2577 29.3091 14.9263 28.6406Z" fill="white" style="fill:white;fill-opacity:1;"/>
<path fill-rule="evenodd" clip-rule="evenodd" d="M35.4977 28.6406L38.9263 25.212C39.5948 24.5434 39.5948 23.4566 38.9263 22.788C38.2577 22.1194 37.1708 22.1194 36.5023 22.788L33.0737 26.2165C32.4051 26.8851 32.4051 27.972 33.0737 28.6406C33.7423 29.3091 34.8291 29.3091 35.4977 28.6406Z" fill="white" style="fill:white;fill-opacity:1;"/>
<path fill-rule="evenodd" clip-rule="evenodd" d="M9.07369 25.212L12.5023 28.6406C13.1708 29.3091 14.2577 29.3091 14.9263 28.6406C15.5948 27.972 15.5948 26.8851 14.9263 26.2165L11.4977 22.788C10.8291 22.1194 9.74227 22.1194 9.07369 22.788C8.40512 23.4566 8.40512 24.5434 9.07369 25.212Z" fill="white" style="fill:white;fill-opacity:1;"/>
<path fill-rule="evenodd" clip-rule="evenodd" d="M29.6451 25.212L33.0737 28.6406C33.7423 29.3091 34.8291 29.3091 35.4977 28.6406C36.1663 27.972 36.1663 26.8851 35.4977 26.2165L32.0691 22.788C31.4006 22.1194 30.3137 22.1194 29.6451 22.788C28.9766 23.4566 28.9766 24.5434 29.6451 25.212Z" fill="white" style="fill:white;fill-opacity:1;"/>
</svg>
