<svg width="48" height="48" viewBox="0 0 48 48" fill="none" xmlns="http://www.w3.org/2000/svg">
<g clip-path="url(#clip0_19564_21861)">
<path fill-rule="evenodd" clip-rule="evenodd" d="M11.5149 0.176471C11.9561 -0.0588236 12.4855 -0.0588236 12.9267 0.176471C17.9105 2.83453 20.5362 7.50855 21.8211 12.0817C23.1041 16.6478 23.1051 21.2834 22.707 24.2027C22.6057 24.9459 21.9709 25.5 21.2208 25.5H13.721V31.5C15.3774 31.5005 16.72 32.8435 16.72 34.5V45C16.72 46.6569 15.3768 48 13.72 48H10.72C9.06312 48 7.71997 46.6569 7.71997 45V34.5C7.71997 32.8432 9.06312 31.5 10.72 31.5H10.721V25.5H3.2208C2.4707 25.5 1.83591 24.9459 1.73456 24.2027C1.33648 21.2834 1.3375 16.6478 2.62047 12.0817C3.90545 7.50855 6.53106 2.83453 11.5149 0.176471ZM19.8689 22.5H13.721V20.9995C13.721 20.1711 13.0494 19.4995 12.221 19.4995C11.3925 19.4995 10.721 20.1711 10.721 20.9995V22.5H4.57272C4.38203 19.9255 4.53129 16.3716 5.50863 12.8933C6.59181 9.03825 8.64384 5.42687 12.2208 3.22814C15.7978 5.42687 17.8498 9.03825 18.933 12.8933C19.9103 16.3716 20.0596 19.9255 19.8689 22.5ZM37.7202 4.50098C37.7202 3.67255 37.0487 3.00098 36.2202 3.00098C35.3918 3.00098 34.7202 3.67255 34.7202 4.50098V22.501H31.7207C30.0639 22.501 28.7207 21.1578 28.7207 19.501V4.50098C28.7207 3.67255 28.0491 3.00098 27.2207 3.00098C26.3923 3.00098 25.7207 3.67255 25.7207 4.50098V19.501C25.7207 22.8147 28.407 25.501 31.7207 25.501H34.7202V31.5C33.0637 31.5004 31.721 32.8434 31.721 34.5V45C31.721 46.6569 33.0641 48 34.721 48H37.721C39.3778 48 40.721 46.6569 40.721 45V34.5C40.721 32.8432 39.3778 31.5 37.721 31.5H37.7202V25.501H40.7207C44.0344 25.501 46.7207 22.8147 46.7207 19.501V4.50098C46.7207 3.67255 46.0491 3.00098 45.2207 3.00098C44.3923 3.00098 43.7207 3.67255 43.7207 4.50098V19.501C43.7207 21.1578 42.3776 22.501 40.7207 22.501H37.7202V4.50098ZM36.1655 34.5C36.1837 34.5007 36.2019 34.501 36.2202 34.501C36.2386 34.501 36.2568 34.5007 36.275 34.5H37.721V45H34.721V34.5H36.1655ZM10.72 34.5H13.72V45H10.72V34.5Z" fill="white" style="fill:white;fill-opacity:1;"/>
</g>
<defs>
<clipPath id="clip0_19564_21861">
<rect width="48" height="48" fill="white" style="fill:white;fill-opacity:1;"/>
</clipPath>
</defs>
</svg>
