<svg width="48" height="48" viewBox="0 0 48 48" fill="none" xmlns="http://www.w3.org/2000/svg">
<g clip-path="url(#clip0_19564_21694)">
<path d="M39.75 24C40.9926 24 42 20.978 42 17.25C42 13.5221 40.9926 10.5 39.75 10.5C38.5074 10.5 37.5 13.5221 37.5 17.25C37.5 20.978 38.5074 24 39.75 24Z" fill="white" style="fill:white;fill-opacity:1;"/>
<path fill-rule="evenodd" clip-rule="evenodd" d="M34.6003 30.8401C35.0793 31.6201 35.614 32.3084 36.2031 32.8722C37.2033 33.8296 38.443 34.5001 39.8594 34.5001C41.2808 34.5001 42.5112 33.825 43.4951 32.8589C44.4724 31.8994 45.2837 30.5848 45.9326 29.0782C47.2327 26.06 48 21.9951 48 17.5839C48 13.1729 47.2328 8.95384 45.9446 5.78433C45.3022 4.20372 44.5003 2.81005 43.5356 1.78682C42.5706 0.763277 41.3293 0 39.8594 0C39.8363 0 39.8134 0.000187014 39.7905 0.000559102C39.777 0.000202376 39.7635 2.28882e-05 39.75 2.28882e-05H9.43036C9.31496 2.28882e-05 9.19995 0.0133385 9.08761 0.0397053C5.5463 0.870867 0 5.94059 0 17.5942V46.5001C0 47.3285 0.671573 48.0001 1.5 48.0001H33.2187C33.6185 48.0001 34.0017 47.8405 34.2834 47.5567C34.565 47.2729 34.7217 46.8885 34.7187 46.4887L34.6003 30.8401ZM34.5 17.5783V17.5839L34.5038 18.0814C34.5633 21.9673 35.3163 25.4136 36.4221 27.8689C36.9995 29.151 37.6441 30.0987 38.2776 30.705C38.9073 31.3078 39.4419 31.5001 39.8594 31.5001C40.2717 31.5001 40.7882 31.3125 41.3933 30.7183C42.005 30.1177 42.6246 29.1746 43.1774 27.8914C44.2807 25.33 45 21.6868 45 17.5839C45 13.4807 44.2806 9.65779 43.1654 6.91391C42.6061 5.53783 41.977 4.50693 41.3528 3.84478C40.7288 3.18294 40.2232 3 39.8594 3C39.4897 3 38.9666 3.18854 38.3186 3.85858C37.6732 4.52593 37.0191 5.56097 36.4349 6.93575C35.2702 9.67666 34.5007 13.4908 34.5 17.5783ZM33.6738 5.76249C34.1056 4.74649 34.603 3.80985 35.1645 3.00002H9.62551C7.76108 3.56087 3 7.11372 3 17.5942V45.0001H31.7073L31.504 18.1147C31.5013 17.9384 31.5 17.7614 31.5 17.5839C31.5 13.1593 32.3263 8.93371 33.6738 5.76249Z" fill="white" style="fill:white;fill-opacity:1;"/>
</g>
<defs>
<clipPath id="clip0_19564_21694">
<rect width="48" height="48" fill="white" style="fill:white;fill-opacity:1;"/>
</clipPath>
</defs>
</svg>
