<svg width="48" height="48" viewBox="0 0 48 48" fill="none" xmlns="http://www.w3.org/2000/svg">
<g clip-path="url(#clip0_19564_21733)">
<path fill-rule="evenodd" clip-rule="evenodd" d="M19.7529 6.5443e-06C20.1998 -0.00131212 20.624 0.19671 20.91 0.540134C24.0032 4.25467 26.1944 6.8477 27.8703 8.83108C30.906 12.4235 32.2515 14.0157 34.2056 16.6492C34.6992 17.3145 34.5601 18.254 33.8948 18.7477C33.2295 19.2413 32.29 19.1022 31.7964 18.4369C29.8986 15.8793 28.6284 14.3763 25.6588 10.8625C24.197 9.13284 22.3234 6.91589 19.7604 3.84601C18.5174 5.3336 17.3239 6.72877 16.1885 8.05611C13.4628 11.2423 11.0716 14.0376 9.13328 16.7822C6.19086 20.9486 4.50098 24.7334 4.50098 29.1026C4.50098 37.9361 11.3841 45 19.7573 45C20.5857 45 21.2573 45.6716 21.2573 46.5C21.2573 47.3285 20.5857 48 19.7573 48C9.62203 48 1.50098 39.4858 1.50098 29.1026C1.50098 23.8634 3.56109 19.4719 6.68276 15.0516C8.6974 12.1989 11.2431 9.22158 14.0378 5.95306C15.5033 4.23911 17.0372 2.44508 18.599 0.546953C18.8829 0.201847 19.306 0.00132512 19.7529 6.5443e-06ZM12.001 19.5C12.8294 19.5 13.501 20.1716 13.501 21V27H19.501V21C19.501 20.1716 20.1726 19.5 21.001 19.5C21.8294 19.5 22.501 20.1716 22.501 21V36C22.501 36.8284 21.8294 37.5 21.001 37.5C20.1726 37.5 19.501 36.8284 19.501 36V30H13.501V36C13.501 36.8284 12.8294 37.5 12.001 37.5C11.1726 37.5 10.501 36.8284 10.501 36L10.501 21C10.501 20.1716 11.1726 19.5 12.001 19.5ZM33.001 26.25C33.001 22.5221 36.0231 19.5 39.751 19.5C43.4789 19.5 46.501 22.5221 46.501 26.25V30.75C46.501 34.4779 43.4789 37.5 39.751 37.5C36.0231 37.5 33.001 34.4779 33.001 30.75V26.25ZM39.751 22.5C37.6799 22.5 36.001 24.1789 36.001 26.25V30.75C36.001 32.8211 37.6799 34.5 39.751 34.5C41.822 34.5 43.501 32.8211 43.501 30.75V26.25C43.501 24.1789 41.822 22.5 39.751 22.5ZM27.3721 35.1264C27.0973 35.5577 27.0035 36.062 26.9916 36.1678C26.8989 36.991 26.1565 37.5833 25.3332 37.4907C24.51 37.398 23.9177 36.6556 24.0104 35.8323C24.0524 35.4591 24.2373 34.4634 24.842 33.5144C25.4891 32.4987 26.6594 31.5 28.5152 31.5C30.1823 31.5 31.3773 32.2251 32.1073 33.229C32.7836 34.159 33.001 35.2375 33.001 36.0001C33.001 36.949 32.5791 37.8423 32.1343 38.5581C31.669 39.307 31.0519 40.0586 30.417 40.7609C30.0375 41.1805 29.6381 41.5973 29.242 42H31.501C32.3294 42 33.001 42.6716 33.001 43.5C33.001 44.3285 32.3294 45 31.501 45H25.6432C25.046 45 24.5058 44.6458 24.2676 44.0982C24.0295 43.5506 24.1388 42.9139 24.5461 42.4771C24.9869 42.0043 25.5201 41.4754 26.059 40.9408C26.1476 40.8529 26.2364 40.7649 26.3249 40.6769C26.965 40.0409 27.6109 39.3912 28.1917 38.7489C28.7771 38.1014 29.2583 37.5024 29.5862 36.9747C29.9347 36.414 30.001 36.1047 30.001 36.0001C30.001 35.7255 29.9069 35.304 29.6809 34.9933C29.5086 34.7564 29.2108 34.5 28.5152 34.5C27.9143 34.5 27.6044 34.7618 27.3721 35.1264Z" fill="white" style="fill:white;fill-opacity:1;"/>
</g>
<defs>
<clipPath id="clip0_19564_21733">
<rect width="48" height="48" fill="white" style="fill:white;fill-opacity:1;"/>
</clipPath>
</defs>
</svg>
